<svg version="1.1" xmlns="http://www.w3.org/2000/svg" xmlns:xlink="http://www.w3.org/1999/xlink" width="36" height="39.1129"><g transform="translate(-222,-162)"><g data-paper-data="{&quot;isPaintingLayer&quot;:true}" fill="none" fill-rule="nonzero" stroke="none" stroke-width="none" stroke-linecap="butt" stroke-linejoin="miter" stroke-miterlimit="10" stroke-dasharray="" stroke-dashoffset="0" font-family="none" font-weight="none" font-size="none" text-anchor="none" style="mix-blend-mode: normal"><path d="M227,183c0,2.209 -1.119,4 -2.5,4c-1.381,0 -2.5,-1.791 -2.5,-4c0,-2.209 1.119,-4 2.5,-4c1.381,0 2.5,1.791 2.5,4z" fill="#ffdc5d" stroke-width="1"/><path d="M225,180.562c0,-8.525 5.373,-15.437 12,-15.437c6.627,0 12,6.912 12,15.438c0,8.525 -5.373,15.437 -12,15.437c-6.627,0 -12,-6.912 -12,-15.438z" fill="#ffdc5d" stroke-width="1"/><path d="M256,183c-0.657,3.945 -1,7 -1,7h-2l-6,-15l-0.034,-0.086c-2.318,0.086 -5.524,0.086 -9.966,0.086c-6.627,0 -13,0.418 -13,-4c0,-4.418 7,-9 17,-9c0.097,0 0.19,0.01 0.287,0.012c0.235,-0.005 0.464,-0.012 0.713,-0.012c14.533,0 15,15 14,21z" fill="#dd2e44" stroke-width="1"/><path d="M252,183c0,2.209 -1.119,4 -2.5,4c-1.381,0 -2.5,-1.791 -2.5,-4c0,-2.209 1.119,-4 2.5,-4c1.381,0 2.5,1.791 2.5,4z" fill="#ffdc5d" stroke-width="1"/><path d="M248,189c1,2 -1,3 -1,3c0,3 -3,3 -3,3c0,3 -4,2 -4,2c-1,1 -3,1 -3,1c0,0 -2,0 -3,-1c0,0 -4,1 -4,-2c0,0 -3,0 -3,-3c0,0 -2,-1 -1,-3c0,0 -1,0 -1,-2c0,-2 2.293,-0.707 3,0c1,1 3,3 5,2c2.829,-1.414 4,-1 4,-1c0,0 1.172,-0.414 4,1c2,1 4,-1 5,-2c0.707,-0.707 3,-2 3,0c0,2 -1,2 -1,2z" fill="#e6e7e8" stroke-width="1"/><path d="M237,190c7,0 4,2 0,2c-4,0 -7,-2 0,-2z" fill="#ffdc5d" stroke-width="1"/><path d="M223,176c0,-2.20914 0.89543,-4 2,-4c1.10457,0 2,1.79086 2,4c0,2.20914 -0.89543,4 -2,4c-1.10457,0 -2,-1.79086 -2,-4z" fill="#d1d3d4" stroke-width="1"/><path d="M246,176c0,-2.20914 0.89543,-4 2,-4c1.10457,0 2,1.79086 2,4c0,2.20914 -0.89543,4 -2,4c-1.10457,0 -2,-1.79086 -2,-4z" fill="#d1d3d4" stroke-width="1"/><path d="M250,191c0,-2.20914 1.79086,-4 4,-4c2.20914,0 4,1.79086 4,4c0,2.20914 -1.79086,4 -4,4c-2.20914,0 -4,-1.79086 -4,-4z" fill="#f1f2f2" stroke-width="1"/><path d="M251,174c0,1.104 -0.896,2 -2,2h-25c-1.104,0 -2,-0.896 -2,-2v-1c0,-1.104 0.896,-2 2,-2h25c1.104,0 2,0.896 2,2z" fill="#f1f2f2" stroke-width="1"/><path d="M246.21408,186.12378c-0.14295,0.19086 -0.3624,0.29208 -0.58494,0.29208c-0.15145,0 -0.30445,-0.04713 -0.4358,-0.1445c-0.02782,-0.02086 -2.78173,-2.0438 -6.1314,-2.0438c-0.2944,0 -0.56098,-0.17772 -0.6738,-0.45049c-0.11281,-0.27276 -0.05023,-0.58648 0.1584,-0.79511c2.37606,-2.37529 6.19322,-2.40311 6.35394,-2.40311c0.40335,0 0.72866,0.32608 0.72944,0.72866c0.00077,0.40258 -0.32608,0.73021 -0.72789,0.73098c-0.02009,0 -1.13742,0.01082 -2.45333,0.39099c0.16072,0.19009 0.26194,0.43349 0.26194,0.70316c0,0.08963 -0.01391,0.17618 -0.034,0.25963c1.98199,0.66993 3.30717,1.64818 3.39062,1.71077c0.32144,0.24186 0.38712,0.69775 0.14681,1.02074z" data-paper-data="{&quot;origPos&quot;:null}" fill="#662113" stroke-width="0.5"/><path d="M235.35528,183.7763c-0.11281,0.27276 -0.37862,0.45049 -0.6738,0.45049c-3.36667,0 -6.10281,2.02294 -6.12986,2.04303c-0.13136,0.09813 -0.28513,0.14604 -0.43735,0.14604c-0.22177,0 -0.44121,-0.10045 -0.58416,-0.29208c-0.24186,-0.32222 -0.17618,-0.77966 0.14604,-1.02151c0.08345,-0.06259 1.40941,-1.04083 3.3914,-1.71077c-0.02009,-0.08345 -0.034,-0.16999 -0.034,-0.25963c0,-0.2689 0.10122,-0.5123 0.26194,-0.70316c-1.31514,-0.3794 -2.43324,-0.39099 -2.45256,-0.39099c-0.40258,-0.00155 -0.72866,-0.3284 -0.72789,-0.73098c0.00077,-0.40258 0.32685,-0.72866 0.72943,-0.72866c0.1615,0 3.97865,0.02704 6.35394,2.40311c0.2094,0.2094 0.27122,0.52235 0.15686,0.79511z" data-paper-data="{&quot;origPos&quot;:null}" fill="#662113" stroke-width="0.5"/><path d="M228.37506,186.36743c-0.0681,0.02618 -0.13887,0.04165 -0.20988,0.04664z" data-paper-data="{&quot;origPos&quot;:null}" fill="#000000" stroke-width="0.5"/><path d="M230.63485,194.97454c-0.48294,0.0935 -1.42255,0 -1.42255,-1.42255c0,-2.8451 3.26854,-6.40108 7.82363,-6.40108c4.55509,0 7.82363,3.55598 7.82363,6.40108c0,1.42255 -0.93961,1.51527 -1.42255,1.42255c-2.11489,-0.41108 -3.82411,-0.71089 -6.40108,-0.71089c-2.57697,0 -4.28696,0.29981 -6.40108,0.71089z" data-paper-data="{&quot;origPos&quot;:null}" fill="#662113" stroke-width="0.5"/><path d="M248.68135,199.56749c0,0.85384 -5.23662,1.54541 -11.69642,1.54541c-6.4598,0 -11.69641,-0.69157 -11.69641,-1.54541c0,-0.56253 2.28411,-1.05397 5.68632,-1.32364v-5.48697c0,-2.00285 3.00505,-4.00647 6.01009,-4.00647c3.00505,0 6.01009,2.00285 6.01009,4.00647v5.48697c3.40221,0.26967 5.68633,0.76111 5.68633,1.32364z" data-paper-data="{&quot;origPos&quot;:null}" fill="#fc9300" stroke-width="1"/><path d="M238,188h-2c-0.552,0 -1,-0.447 -1,-1c0,-0.553 0.448,-1 1,-1h2c0.552,0 1,0.447 1,1c0,0.553 -0.448,1 -1,1z" data-paper-data="{&quot;origPos&quot;:null}" fill="#b7755e" stroke-width="1"/><g data-paper-data="{&quot;origPos&quot;:null,&quot;origRot&quot;:0}" stroke-width="1"><path d="M236.6637,192.21053c0.13141,0.2469 0.03692,0.55643 -0.20998,0.68784l-2.469,1.3141c-0.2469,0.13141 -0.55643,0.03692 -0.68784,-0.20998l-1.01544,-1.90786c-0.13141,-0.2469 -0.03692,-0.55643 0.20998,-0.68784l2.469,-1.3141c0.2469,-0.13141 0.55643,-0.03692 0.68784,0.20998z" fill="#fdd888"/><path d="M235.80574,189.78679c0.13141,0.2469 0.03692,0.55643 -0.20998,0.68784l-3.14236,1.67249c-0.2469,0.13141 -0.55643,0.03692 -0.68784,-0.20998c-0.13141,-0.2469 -0.03692,-0.55643 0.20998,-0.68784l3.14236,-1.67249c0.2469,-0.13141 0.55643,-0.03692 0.68784,0.20998z" fill="#fdd888"/><path d="M232.34117,192.20685l3.36681,-1.79196l0.11946,0.22445l-3.36681,1.79196z" fill="#fcab40"/><path d="M233.9359,190.0619l1.73223,3.25459l-0.89782,0.47786l-1.73223,-3.25459c-0.09898,-0.18596 -0.02847,-0.4169 0.15749,-0.51588l0.22445,-0.11946c0.18596,-0.09898 0.41696,-0.02836 0.51588,0.15749z" fill="#da2f47"/><path d="M233.32227,190.53252c0.12345,-0.06571 0.11092,-0.13335 -0.028,-0.15029l-1.03549,-0.12662c-0.13892,-0.01694 -0.25586,0.08347 -0.26009,0.22326l-0.01552,0.51636c-0.00423,0.13979 0.09337,0.20032 0.21682,0.13462zM233.77118,190.29359c-0.12345,0.06571 -0.17256,0.01753 -0.10903,-0.10716l0.4734,-0.92972c0.06343,-0.12463 0.21213,-0.16562 0.33045,-0.09105l0.43692,0.27541c0.11827,0.07474 0.11397,0.1895 -0.00948,0.25521z" fill="#da2f47"/></g><g data-paper-data="{&quot;origPos&quot;:null,&quot;origRot&quot;:0}" stroke-width="1"><path d="M243.52733,199.68451c-0.14398,0.3702 -0.56468,0.55529 -0.93488,0.41131l-3.70201,-1.4398c-0.3702,-0.14398 -0.55529,-0.56468 -0.41131,-0.93488l1.11257,-2.86064c0.14398,-0.3702 0.56468,-0.55529 0.93488,-0.41131l3.70201,1.4398c0.3702,0.14398 0.55529,0.56467 0.41131,0.93487z" fill="#fdd888"/><path d="M245.34106,196.51538c-0.14398,0.3702 -0.56468,0.55529 -0.93488,0.41131l-4.71166,-1.83247c-0.3702,-0.14398 -0.55529,-0.56467 -0.41131,-0.93487c0.14398,-0.3702 0.56467,-0.55529 0.93487,-0.41131l4.71166,1.83247c0.3702,0.14398 0.55529,0.56468 0.41131,0.93488z" fill="#fdd888"/><path d="M239.52625,195.02877l5.0482,1.96336l-0.13089,0.33655l-5.0482,-1.96337z" fill="#fcab40"/><path d="M243.31245,194.75777l-1.89792,4.87993l-1.34618,-0.52356l1.89792,-4.87993c0.10844,-0.27883 0.42233,-0.41692 0.70116,-0.30848l0.33655,0.13089c0.27883,0.10844 0.41686,0.42249 0.30848,0.70115z" fill="#da2f47"/><path d="M242.23737,194.53337c0.1851,0.07199 0.2463,-0.00417 0.13581,-0.16938l-0.82315,-1.23182c-0.11048,-0.16521 -0.32689,-0.19804 -0.48127,-0.07307l-0.57013,0.46173c-0.15438,0.12497 -0.1291,0.2861 0.056,0.35809zM242.91046,194.79515c-0.1851,-0.07199 -0.17876,-0.16948 0.01432,-0.21663l1.43929,-0.35191c0.19291,-0.04722 0.37481,0.07486 0.40418,0.2713l0.10841,0.72544c0.02914,0.19654 -0.09837,0.29824 -0.28347,0.22625z" fill="#da2f47"/></g><g data-paper-data="{&quot;origPos&quot;:null,&quot;origRot&quot;:0}" stroke-width="1"><path d="M235.43442,200.21977c-0.10123,0.26073 -0.39738,0.39123 -0.65811,0.29l-2.60731,-1.0123c-0.26073,-0.10123 -0.39124,-0.39738 -0.29001,-0.65811l0.78223,-2.01474c0.10123,-0.26073 0.39738,-0.39123 0.65811,-0.29l2.60731,1.0123c0.26073,0.10123 0.39124,0.39738 0.29001,0.65811z" fill="#fdd888"/><path d="M236.71024,197.98753c-0.10123,0.26073 -0.39738,0.39123 -0.65811,0.29l-3.31839,-1.28838c-0.26073,-0.10123 -0.39124,-0.39738 -0.29001,-0.65811c0.10123,-0.26073 0.39738,-0.39123 0.65811,-0.29l3.31839,1.28838c0.26073,0.10123 0.39123,0.39738 0.29,0.65811z" fill="#fdd888"/><path d="M232.61522,196.94314l3.55542,1.38041l-0.09203,0.23703l-3.55542,-1.38041z" fill="#fcab40"/><path d="M235.28111,196.75077l-1.3344,3.43691l-0.94811,-0.36811l1.33439,-3.43691c0.07624,-0.19638 0.29721,-0.29374 0.49358,-0.2175l0.23703,0.09202c0.19638,0.07624 0.2937,0.29732 0.2175,0.49358z" fill="#da2f47"/><path d="M234.52401,196.59321c0.13037,0.05062 0.17343,-0.00304 0.09556,-0.11933l-0.58011,-0.86703c-0.07787,-0.11629 -0.23026,-0.13931 -0.33891,-0.05126l-0.40126,0.32535c-0.10865,0.08806 -0.09079,0.20151 0.03958,0.25212zM234.99806,196.77726c-0.13037,-0.05062 -0.12594,-0.11927 0.00999,-0.15254l1.01331,-0.24838c0.13582,-0.03333 0.26394,0.05256 0.28471,0.19087l0.07664,0.51076c0.0206,0.13838 -0.06914,0.21005 -0.1995,0.15943z" fill="#da2f47"/></g></g></g></svg>