<svg version="1.1" xmlns="http://www.w3.org/2000/svg" xmlns:xlink="http://www.w3.org/1999/xlink" width="36" height="36"><g transform="translate(-222,-162)"><g data-paper-data="{&quot;isPaintingLayer&quot;:true}" fill="none" fill-rule="nonzero" stroke="none" stroke-width="none" stroke-linecap="butt" stroke-linejoin="miter" stroke-miterlimit="10" stroke-dasharray="" stroke-dashoffset="0" font-family="none" font-weight="none" font-size="none" text-anchor="none" style="mix-blend-mode: normal"><path d="M258,194c0,2.209 -1.791,4 -4,4h-28c-2.209,0 -4,-1.791 -4,-4v-28c0,-2.209 1.791,-4 4,-4h28c2.209,0 4,1.791 4,4z" fill="#226699" stroke-width="1"/><g data-paper-data="{&quot;origPos&quot;:null}"><path d="M253.45608,177.92757c0,7.38558 -5.98697,13.37256 -13.37256,13.37256c-7.3848,0 -13.37256,-5.98697 -13.37256,-13.37256c0,-7.3848 5.98776,-13.37256 13.37256,-13.37256c7.38558,0 13.37256,5.98776 13.37256,13.37256" data-paper-data="{&quot;origPos&quot;:null}" fill="#628fde" stroke-width="1"/><path d="M249.59377,179.11537c-0.14552,0.1943 -0.36893,0.29734 -0.59547,0.29734c-0.15418,0 -0.30993,-0.04798 -0.44365,-0.1471c-0.02832,-0.02124 -2.83184,-2.08061 -6.24184,-2.08061c-0.2997,0 -0.57109,-0.18092 -0.68593,-0.4586c-0.11485,-0.27768 -0.05113,-0.59705 0.16126,-0.80943c2.41886,-2.41807 6.30477,-2.44639 6.46838,-2.44639c0.41062,0 0.74178,0.33195 0.74257,0.74178c0.00079,0.40983 -0.33195,0.74336 -0.741,0.74414c-0.02045,0 -1.15791,0.01101 -2.49752,0.39803c0.16362,0.19351 0.26666,0.44129 0.26666,0.71583c0,0.09125 -0.01416,0.17935 -0.03461,0.2643c2.01768,0.682 3.36674,1.67786 3.45169,1.74158c0.32723,0.24621 0.3941,0.71032 0.14946,1.03913z" data-paper-data="{&quot;origPos&quot;:null}" fill="#305490" stroke-width="0.5"/><path d="M238.53939,176.72561c-0.11485,0.27768 -0.38544,0.4586 -0.68593,0.4586c-3.42731,0 -6.21273,2.05937 -6.24026,2.07983c-0.13373,0.0999 -0.29026,0.14867 -0.44523,0.14867c-0.22576,0 -0.44916,-0.10226 -0.59469,-0.29734c-0.24621,-0.32802 -0.17935,-0.7937 0.14867,-1.03991c0.08496,-0.06372 1.4348,-1.05958 3.45248,-1.74158c-0.02045,-0.08496 -0.03461,-0.17306 -0.03461,-0.2643c0,-0.27374 0.10305,-0.52153 0.26666,-0.71583c-1.33883,-0.38623 -2.47707,-0.39803 -2.49674,-0.39803c-0.40983,-0.00157 -0.74178,-0.33431 -0.741,-0.74414c0.00079,-0.40983 0.33274,-0.74178 0.74257,-0.74178c0.1644,0 4.05031,0.02753 6.46838,2.44639c0.21317,0.21317 0.2761,0.53176 0.15968,0.80943z" data-paper-data="{&quot;origPos&quot;:null}" fill="#305490" stroke-width="0.5"/><path d="M233.56716,186.62445c-0.49164,0.09518 -1.44817,0 -1.44817,-1.44817c0,-2.89634 3.32741,-6.51637 7.96454,-6.51637c4.63713,0 7.96454,3.62003 7.96454,6.51637c0,1.44817 -0.95653,1.54256 -1.44817,1.44817c-2.15298,-0.41848 -3.89299,-0.72369 -6.51637,-0.72369c-2.62338,0 -4.36417,0.30521 -6.51637,0.72369z" data-paper-data="{&quot;origPos&quot;:null}" fill="#305490" stroke-width="0.5"/></g><g data-paper-data="{&quot;origPos&quot;:null}" stroke-width="1"><path d="M240.03709,179.60222l2.00477,2.00477h2.8054v2.8054l2.00477,2.00477l-2.00477,2.00477v2.80539h-2.8054l-2.00477,2.00478l-2.00477,-2.00478h-2.8054v-2.80539l-2.00477,-2.00477l2.00477,-2.00477v-2.8054h2.8054z" data-paper-data="{&quot;origPos&quot;:null}" fill="#598341"/><path d="M238.4337,186.41716zM240.03709,180.85554l1.19399,2.70919l2.59321,-0.75734l-0.75787,2.59268l3.46653,1.19452l-3.46653,1.19399l0.75787,2.59268l-2.59321,-0.75734l-1.19399,6.49587l-1.19452,-6.49587l-2.59214,0.75734l0.75733,-2.59268l-3.46706,-1.19399l3.46706,-1.19452l-0.75733,-2.59268l2.59214,0.75734z" data-paper-data="{&quot;origPos&quot;:null}" fill="#77af57"/><path d="M238.4337,186.41716c0,-0.88553 0.71786,-1.60339 1.60339,-1.60339c0.88553,0 1.60339,0.71786 1.60339,1.60339c0,0.88553 -0.71786,1.60339 -1.60339,1.60339c-0.88553,0 -1.60339,-0.71786 -1.60339,-1.60339z" data-paper-data="{&quot;origPos&quot;:null}" fill="#f5f8fa"/><path d="M235.76085,185.34823c-0.10155,0 -0.20469,-0.02886 -0.29609,-0.08979l-3.20678,-2.13785c-0.24532,-0.16354 -0.31159,-0.49544 -0.14804,-0.7413c0.16354,-0.24586 0.49544,-0.31213 0.7413,-0.14805l3.20677,2.13786c0.24586,0.16354 0.3116,0.49544 0.14805,0.7413c-0.10315,0.15446 -0.27258,0.23784 -0.44521,0.23784zM244.31333,185.34823c-0.17263,0 -0.34259,-0.08338 -0.4452,-0.23784c-0.16408,-0.24586 -0.09781,-0.57775 0.14804,-0.7413l3.20678,-2.13786c0.24586,-0.16408 0.57776,-0.0978 0.7413,0.14805c0.16408,0.24532 0.0978,0.57775 -0.14805,0.7413l-3.20677,2.13785c-0.0914,0.06093 -0.19455,0.08979 -0.2961,0.08979zM232.55514,191.22733c-0.17263,0 -0.34205,-0.08337 -0.4452,-0.23783c-0.16354,-0.24586 -0.09727,-0.57722 0.14804,-0.7413l3.20678,-2.13786c0.24532,-0.16461 0.57722,-0.0978 0.7413,0.14805c0.16354,0.24586 0.09727,0.57722 -0.14805,0.7413l-3.20677,2.13785c-0.0914,0.06039 -0.19455,0.08979 -0.2961,0.08979zM248.0535,191.22733c-0.08979,0 -0.18118,-0.02245 -0.26456,-0.07055l-3.74124,-2.13785c-0.25601,-0.14644 -0.34527,-0.473 -0.19882,-0.72901c0.14644,-0.25601 0.47247,-0.34579 0.72901,-0.19882l3.74124,2.13786c0.25601,0.14644 0.34527,0.47299 0.19882,0.72901c-0.09834,0.17263 -0.27845,0.26937 -0.46445,0.26937zM235.76138,196.57196c-0.07269,0 -0.1459,-0.01443 -0.21699,-0.04596c-0.26937,-0.12025 -0.39123,-0.43612 -0.27097,-0.70549l2.13786,-4.81017c0.11972,-0.26937 0.43505,-0.39176 0.70549,-0.27151c0.26937,0.12025 0.39122,0.43613 0.27097,0.7055l-2.13785,4.81016c-0.08872,0.19882 -0.28433,0.31748 -0.4885,0.31748zM244.31333,196.57196c-0.20523,0 -0.40032,-0.11812 -0.48904,-0.31748l-2.13785,-4.81016c-0.11972,-0.2699 0.0016,-0.58578 0.2715,-0.7055c0.27044,-0.11972 0.58577,0.00214 0.70549,0.27151l2.13785,4.81017c0.11972,0.2699 -0.0016,0.58577 -0.2715,0.70549c-0.07055,0.03153 -0.14378,0.04596 -0.21646,0.04596zM238.43423,182.67592c-0.19615,0 -0.38482,-0.10796 -0.47888,-0.29556l-1.06892,-2.13786c-0.13201,-0.26403 -0.02512,-0.58524 0.2389,-0.71725c0.26456,-0.13201 0.58524,-0.02458 0.71725,0.23891l1.06893,2.13786c0.13201,0.26403 0.02512,0.58524 -0.23891,0.71725c-0.07643,0.03848 -0.1582,0.05665 -0.23837,0.05665zM241.63994,182.67592c-0.08017,0 -0.16194,-0.01818 -0.23837,-0.05612c-0.26403,-0.13201 -0.37091,-0.45322 -0.2389,-0.71725l1.06892,-2.13785c0.13254,-0.26456 0.45269,-0.37145 0.71725,-0.2389c0.26403,0.13201 0.37091,0.45322 0.2389,0.71725l-1.06892,2.13785c-0.09407,0.18706 -0.28273,0.29503 -0.47888,0.29503z" data-paper-data="{&quot;origPos&quot;:null}" fill="#77af57"/></g></g></g></svg>