<svg version="1.1" xmlns="http://www.w3.org/2000/svg" xmlns:xlink="http://www.w3.org/1999/xlink" width="36.0775" height="36.8464"><g transform="translate(-222,-162.042)"><g data-paper-data="{&quot;isPaintingLayer&quot;:true}" fill="none" fill-rule="nonzero" stroke="none" stroke-width="none" stroke-linecap="butt" stroke-linejoin="miter" stroke-miterlimit="10" stroke-dasharray="" stroke-dashoffset="0" font-family="none" font-weight="none" font-size="none" text-anchor="none" style="mix-blend-mode: normal"><path d="M226.861,171.147c0.94,-0.657 2.357,-0.531 3.201,0.166l-0.968,-1.407c-0.779,-1.111 -0.5,-2.313 0.612,-3.093c1.112,-0.777 4.263,1.312 4.263,1.312c-0.786,-1.122 -0.639,-2.544 0.483,-3.331c1.122,-0.784 2.67,-0.513 3.456,0.611l10.42,14.72l-1.328,12.875l-11.083,-4.042l-9.667,-14.333c-0.793,-1.129 -0.519,-2.686 0.611,-3.478z" fill="#ef9645" stroke-width="1"/><path d="M224.695,179.336c0,0 -1.132,-1.65 0.519,-2.781c1.649,-1.131 2.78,0.518 2.78,0.518l5.251,7.658c0.181,-0.302 0.379,-0.6 0.6,-0.894l-7.288,-10.627c0,0 -1.131,-1.649 0.519,-2.78c1.649,-1.131 2.78,0.518 2.78,0.518l6.855,9.997c0.255,-0.208 0.516,-0.417 0.785,-0.622l-7.947,-11.591c0,0 -1.131,-1.649 0.519,-2.78c1.649,-1.131 2.78,0.518 2.78,0.518l7.947,11.589c0.292,-0.179 0.581,-0.334 0.871,-0.498l-7.428,-10.832c0,0 -1.131,-1.649 0.518,-2.78c1.649,-1.131 2.78,0.518 2.78,0.518l7.854,11.454l1.194,1.742c-4.948,3.394 -5.419,9.779 -2.592,13.902c0.565,0.825 1.39,0.26 1.39,0.26c-3.393,-4.949 -2.357,-10.51 2.592,-13.903l-1.459,-7.302c0,0 -0.545,-1.924 1.378,-2.47c1.924,-0.545 2.47,1.379 2.47,1.379l1.685,5.004c0.668,1.984 1.379,3.961 2.32,5.831c2.657,5.28 1.07,11.842 -3.94,15.279c-5.465,3.747 -12.936,2.354 -16.684,-3.11z" fill="#ffdc5d" stroke-width="1"/><g fill="#5dadec" stroke-width="1"><path d="M235,195c0,0.553 -0.447,1.042 -1,1.042c-6,0 -10.042,-4.042 -10.042,-10.042c0,-0.553 0.489,-1 1.042,-1c0.553,0 0.958,0.447 0.958,1c0,4 4.042,8.042 8.042,8.042c0.553,0 1,0.405 1,0.958z"/><path d="M230,197c0,0.553 -0.447,1 -1,1c-4,0 -7,-3 -7,-7c0,-0.553 0.447,-1 1,-1c0.553,0 1,0.447 1,1c0,3 2,5 5,5c0.553,0 1,0.447 1,1zM256,174c0,0.552 -0.448,1 -1,1c-0.552,0 -1,-0.448 -1,-1c0,-4.411 -4,-8 -8,-8c-0.552,0 -1,-0.448 -1,-1c0,-0.552 0.448,-1 1,-1c6,0 10,4.486 10,10z"/><path d="M257.958,169c0,0.552 -0.405,1 -0.958,1c-0.553,0 -1.042,-0.448 -1.042,-1c0,-2.733 -1.958,-4.958 -4.958,-4.958c-0.552,0 -1,-0.49 -1,-1.042c0,-0.552 0.448,-0.958 1,-0.958c4,0 6.958,3.121 6.958,6.958z"/></g><path d="M237.30066,193.5196c-0.50172,0.29152 -1.58472,0.55189 -2.13661,-1.03283c-1.10379,-3.16944 1.15778,-8.39887 6.23215,-10.16606c5.07437,-1.7672 10.0951,0.9261 11.19889,4.09554c0.55189,1.58472 -0.45886,2.05254 -1.03283,2.13661c-2.51547,0.36255 -4.53586,0.69168 -7.4066,1.69144c-2.87074,0.99976 -4.65936,1.99716 -6.855,3.2753z" data-paper-data="{&quot;origPos&quot;:null,&quot;origRot&quot;:0}" fill="#ef9645" stroke-width="0.5"/><path d="M258.0775,197.0654c0,1.00721 -6.17723,1.823 -13.79736,1.823c-7.62013,0 -13.79736,-0.81579 -13.79736,-1.823c0,-0.66357 2.69439,-1.24328 6.70772,-1.5614v-6.47255c0,-2.36261 3.54482,-4.72612 7.08964,-4.72612c3.54482,0 7.08964,2.36261 7.08964,4.72612v6.47255c4.01333,0.31811 6.70772,0.89783 6.70772,1.5614z" data-paper-data="{&quot;origPos&quot;:null}" fill="#77af57" stroke-width="1"/><path d="M241.27766,187.24673c0,-0.62171 0.504,-1.1257 1.1257,-1.1257c0.62171,0 1.1257,0.504 1.1257,1.1257c0,0.62171 -0.504,1.1257 -1.1257,1.1257c-0.62171,0 -1.1257,-0.504 -1.1257,-1.1257z" data-paper-data="{&quot;origPos&quot;:null}" fill="#5d8f3f" stroke-width="1"/><path d="M245.67382,189.44527c0,-0.62171 0.504,-1.1257 1.1257,-1.1257c0.62171,0 1.1257,0.504 1.1257,1.1257c0,0.62171 -0.504,1.1257 -1.1257,1.1257c-0.62171,0 -1.1257,-0.504 -1.1257,-1.1257z" data-paper-data="{&quot;origPos&quot;:null}" fill="#5d8f3f" stroke-width="1"/><path d="M247.10682,194.99922c-0.61368,-0.0996 -1.03041,-0.67783 -0.93081,-1.29151c0.0996,-0.61368 0.67783,-1.03041 1.29151,-0.93081c0.61368,0.0996 1.03041,0.67783 0.93081,1.29151c-0.0996,0.61368 -0.67783,1.03041 -1.29151,0.93081z" data-paper-data="{&quot;origPos&quot;:null}" fill="#5d8f3f" stroke-width="1"/><path d="M241.44559,197.32992c-0.87704,-0.14235 -1.47262,-0.96872 -1.33027,-1.84576c0.14235,-0.87704 0.96872,-1.47262 1.84576,-1.33027c0.87704,0.14235 1.47262,0.96872 1.33027,1.84576c-0.14235,0.87704 -0.96872,1.47262 -1.84576,1.33027z" data-paper-data="{&quot;origPos&quot;:null}" fill="#5d8f3f" stroke-width="1"/></g></g></svg>