<svg version="1.1" xmlns="http://www.w3.org/2000/svg" xmlns:xlink="http://www.w3.org/1999/xlink" width="32.018" height="38.79827"><g transform="translate(-224.938,-162.241)"><g data-paper-data="{&quot;isPaintingLayer&quot;:true}" fill="none" fill-rule="nonzero" stroke="none" stroke-width="none" stroke-linecap="butt" stroke-linejoin="miter" stroke-miterlimit="10" stroke-dasharray="" stroke-dashoffset="0" font-family="none" font-weight="none" font-size="none" text-anchor="none" style="mix-blend-mode: normal"><path d="M255.705,182.497c0.593,0.603 0.961,1.427 0.961,2.336c0,1.252 -0.702,2.331 -1.725,2.901c0.43,0.561 0.696,1.255 0.696,2.015c0,1.25 -0.7,2.328 -1.72,2.899c0.431,0.562 0.698,1.256 0.698,2.018c0,1.838 -1.495,3.334 -3.333,3.334h-18.044c-3.605,0 -3.043,-1.781 -5.542,-2.062c-2.578,-0.29 -2.758,-2.052 -2.758,-3.885v-10.719c0,-4.709 4.75,-2.083 6.875,-6.771c3.977,-8.774 -0.35,-12.322 4.148,-12.322c2.728,0 4.351,3.865 4.01,6.382c-0.524,3.87 -1.378,5.633 0.115,5.668c8.93,0.211 15.208,-0.105 16.549,4.221c0.201,0.429 0.321,0.901 0.321,1.404c0,1.046 -0.494,1.97 -1.251,2.581z" fill="#ffdb5e" stroke-width="1"/><g data-paper-data="{&quot;origPos&quot;:null}"><path d="M233.40686,194.28301c-0.53155,0.10291 -1.56574,0 -1.56574,-1.56574c0,-3.13149 3.59755,-7.04542 8.61117,-7.04542c5.01361,0 8.61117,3.91394 8.61117,7.04542c0,1.56574 -1.03419,1.6678 -1.56574,1.56574c-2.32778,-0.45246 -4.20905,-0.78245 -7.04542,-0.78245c-2.83637,0 -4.71849,0.32999 -7.04542,0.78245z" data-paper-data="{&quot;origPos&quot;:null}" fill="#ee9547" stroke-width="0.5"/><path d="M253.26995,199.33829c0,0.93979 -5.76374,1.70097 -12.8738,1.70097c-7.11006,0 -12.8738,-0.76118 -12.8738,-1.70097c0,-0.61915 2.51404,-1.16006 6.25872,-1.45688v-6.0393c0,-2.20446 3.30754,-4.40977 6.61508,-4.40977c3.30754,0 6.61508,2.20446 6.61508,4.40977v6.0393c3.74469,0.29682 6.25872,0.83773 6.25872,1.45688z" data-paper-data="{&quot;origPos&quot;:null}" fill="#77af57" stroke-width="1"/><path d="M237.59465,190.17686c0,-0.58009 0.47026,-1.05035 1.05035,-1.05035c0.58009,0 1.05035,0.47026 1.05035,1.05035c0,0.58009 -0.47026,1.05035 -1.05035,1.05035c-0.58009,0 -1.05035,-0.47026 -1.05035,-1.05035z" data-paper-data="{&quot;origPos&quot;:null}" fill="#5d8f3f" stroke-width="1"/><path d="M241.69654,192.22823c0,-0.58009 0.47026,-1.05035 1.05035,-1.05035c0.58009,0 1.05035,0.47026 1.05035,1.05035c0,0.58009 -0.47026,1.05035 -1.05035,1.05035c-0.58009,0 -1.05035,-0.47026 -1.05035,-1.05035z" data-paper-data="{&quot;origPos&quot;:null}" fill="#5d8f3f" stroke-width="1"/><path d="M243.03362,197.41042c-0.5726,-0.09293 -0.96144,-0.63246 -0.86851,-1.20506c0.09293,-0.5726 0.63246,-0.96144 1.20506,-0.86851c0.5726,0.09293 0.96144,0.63246 0.86851,1.20506c-0.09293,0.5726 -0.63246,0.96144 -1.20506,0.86851z" data-paper-data="{&quot;origPos&quot;:null}" fill="#5d8f3f" stroke-width="1"/><path d="M237.75133,199.58511c-0.81833,-0.13282 -1.37404,-0.90388 -1.24122,-1.72221c0.13282,-0.81833 0.90388,-1.37404 1.72221,-1.24122c0.81833,0.13282 1.37404,0.90388 1.24122,1.72221c-0.13282,0.81833 -0.90388,1.37404 -1.72221,1.24122z" data-paper-data="{&quot;origPos&quot;:null}" fill="#5d8f3f" stroke-width="1"/></g><path d="M243.50366,196.99662v-13.05761h9.68064v13.05761z" fill="#ffdb5e" stroke-width="0"/><path d="M243.437,184.833c0,0.873 0.71,1.583 1.583,1.583h8.312c0.564,0 1.074,-0.29 1.363,-0.776c0.246,-0.415 0.782,-0.551 1.199,-0.305c0.415,0.247 0.552,0.784 0.305,1.199c-0.598,1.007 -1.697,1.632 -2.867,1.632h-8.091c-0.873,0 -1.583,0.71 -1.583,1.583c0,0.873 0.71,1.584 1.583,1.584h7.063c0.564,0 1.074,-0.29 1.363,-0.777c0.245,-0.415 0.78,-0.556 1.199,-0.305c0.415,0.246 0.552,0.783 0.305,1.199c-0.597,1.007 -1.697,1.633 -2.867,1.633h-6.506c-0.873,0 -1.583,0.71 -1.583,1.583c0,0.873 0.71,1.583 1.583,1.583h5.484c0.555,0 1.078,-0.297 1.363,-0.776c0.246,-0.415 0.783,-0.55 1.199,-0.305c0.415,0.247 0.552,0.784 0.305,1.199c-0.598,1.007 -1.697,1.632 -2.867,1.632h-5.484c-1.838,0 -3.333,-1.495 -3.333,-3.333c0,-0.848 0.328,-1.615 0.852,-2.204c-0.85,-0.605 -1.409,-1.593 -1.409,-2.713c0,-0.926 0.379,-1.763 0.99,-2.367c-0.734,-0.611 -1.212,-1.521 -1.212,-2.549c0,-0.928 0.383,-1.768 0.998,-2.373c-0.73,-0.612 -1.205,-1.519 -1.205,-2.544c0,-1.838 1.495,-3.333 3.333,-3.333h5.888c0.483,0 0.875,0.392 0.875,0.875c0,0.483 -0.392,0.875 -0.875,0.875h-5.887c-0.873,0 -1.583,0.71 -1.583,1.583c0,0.873 0.71,1.583 1.583,1.583h8.81c0.555,0 1.078,-0.296 1.361,-0.775c0.247,-0.415 0.784,-0.554 1.199,-0.307c0.416,0.247 0.553,0.784 0.307,1.199c-0.598,1.007 -1.696,1.633 -2.866,1.633h-8.604c-0.874,0 -1.583,0.711 -1.583,1.584z" data-paper-data="{&quot;origPos&quot;:null}" fill="#ee9547" stroke-width="1"/></g></g></svg>