<svg version="1.1" xmlns="http://www.w3.org/2000/svg" xmlns:xlink="http://www.w3.org/1999/xlink" width="34.99229" height="35.909" viewBox="0,0,34.99229,35.909"><g transform="translate(-222.00771,-162.091)"><g data-paper-data="{&quot;isPaintingLayer&quot;:true}" fill="none" fill-rule="nonzero" stroke="none" stroke-width="none" stroke-linecap="butt" stroke-linejoin="miter" stroke-miterlimit="10" stroke-dasharray="" stroke-dashoffset="0" font-family="none" font-weight="none" font-size="none" text-anchor="none" style="mix-blend-mode: normal"><path d="M231.00001,198v-7c0,-3.315 3.687,-5.5 7,-5.5h12c3.315,0 7,2.185 7,5.5v7z" fill="#9266cc" stroke-width="1"/><path d="M243.94401,163.569c4.106,0 10.948,2.053 10.948,10.948c0,8.895 0,10.948 -2.053,10.948c-2.054,0 -4.79,-2.053 -8.896,-2.053c-4.105,0 -6.784,2.053 -8.895,2.053c-2.287,0 -2.053,-8.211 -2.053,-10.948c0.002,-8.895 6.844,-10.948 10.949,-10.948" fill="#ffac33" stroke-width="1"/><path d="M240.32801,182.315h7.332v3.205c0,1.48 -2.16,1.98 -3.66,1.98c-1.5,0 -3.672,-0.5 -3.672,-1.98z" fill="#ffdc5d" stroke-width="1"/><path d="M240.32101,180.743h7.339v2.936c-1.023,1.156 -2.291,1.468 -3.67,1.468c-1.378,0 -2.646,-0.313 -3.669,-1.468z" fill="#f9ca55" stroke-width="1"/><path d="M235.73401,174.217c0,-5.834 3.676,-10.563 8.21,-10.563c4.534,0 8.211,4.729 8.211,10.563c0,5.833 -3.677,10.286 -8.211,10.286c-4.534,0 -8.21,-4.452 -8.21,-10.286" fill="#ffdc5d" stroke-width="1"/><path d="M233.00601,177.5c-0.028,-2 -0.008,-2.464 -0.008,-3.257c0,-8.895 6.842,-12.152 10.947,-12.152c4.105,0 10.948,3.312 10.948,12.207c0,1.278 0,1.202 -0.007,3.202h-0.718c0.018,-1 0.04,-0.225 0.04,-0.469c0,-3.421 -2.053,0.9 -2.053,-1.837c0,-2.737 -2.738,-4.112 -5.474,-4.112c-2.737,0 -6.158,-2.067 -6.158,-2.067c0,0 -1.368,1.341 -2.053,2.026c-1.368,1.368 -2.736,1.612 -2.736,4.051c0,2.437 -2.053,-1.479 -2.053,1.943c0,0.241 0.023,-0.535 0.044,0.465z" fill="#ffac33" stroke-width="1"/><path d="M244.83701,177.59995h-1.691c-0.233,0 -0.423,-0.19 -0.423,-0.423v-0.153c0,-0.233 0.189,-0.424 0.423,-0.424h1.691c0.232,0 0.423,0.19 0.423,0.424v0.153c0,0.233 -0.191,0.423 -0.423,0.423" data-paper-data="{&quot;origPos&quot;:null}" fill="#c1694f" stroke-width="1"/><path d="M237.44401,175.436c0,1.448 -0.734,2.622 -1.639,2.622c-0.905,0 -1.639,-1.174 -1.639,-2.622c0,-1.448 0.734,-2.623 1.639,-2.623c0.905,-0.001 1.639,1.174 1.639,2.623M253.83301,175.436c0,1.448 -0.733,2.622 -1.639,2.622c-0.905,0 -1.639,-1.174 -1.639,-2.622c0,-1.448 0.733,-2.623 1.639,-2.623c0.906,-0.001 1.639,1.174 1.639,2.623" fill="#ffdc5d" stroke-width="1"/><path d="M255.00001,197c0,0.553 -0.447,1 -1,1h-10c-0.553,0 -1,-0.447 -1,-1c0,-0.553 0.447,-1 1,-1h10c0.553,0 1,0.447 1,1z" fill="#e1e8ed" stroke-width="1"/><path d="M245.00001,186.76l4,11.24h-20c-2.25,0 -2.646,-1.994 -2.647,-1.994l-3.072,-8.475c-1,-2.76 0.954,-3.531 2.478,-3.531h16.481c1.525,0 2.322,1.438 2.76,2.76z" fill="#e1e8ed" stroke-width="1"/><path d="M251.04211,176.62873c-0.105,0.14019 -0.2662,0.21455 -0.42966,0.21455c-0.11125,0 -0.22363,-0.03462 -0.32012,-0.10614c-0.02043,-0.01532 -2.04331,-1.50126 -4.50379,-1.50126c-0.21625,0 -0.41207,-0.13054 -0.49493,-0.3309c-0.08287,-0.20036 -0.03689,-0.4308 0.11636,-0.58405c1.74533,-1.74476 4.5492,-1.76519 4.66726,-1.76519c0.29628,0 0.53523,0.23952 0.5358,0.53523c0.00057,0.29571 -0.23952,0.53637 -0.53467,0.53694c-0.01476,0 -0.83549,0.00795 -1.80208,0.2872c0.11806,0.13963 0.19241,0.31842 0.19241,0.5165c0,0.06584 -0.01022,0.12941 -0.02497,0.19071c1.45586,0.4921 2.42927,1.21066 2.49057,1.25663c0.23612,0.17765 0.28436,0.51253 0.10784,0.74978z" data-paper-data="{&quot;origPos&quot;:null}" fill="#662113" stroke-width="0.5"/><path d="M243.06583,174.9044c-0.08287,0.20036 -0.27812,0.3309 -0.49493,0.3309c-2.47297,0 -4.48279,1.48594 -4.50266,1.5007c-0.09649,0.07208 -0.20944,0.10727 -0.32125,0.10727c-0.1629,0 -0.32409,-0.07379 -0.42909,-0.21455c-0.17765,-0.23668 -0.12941,-0.57269 0.10727,-0.75035c0.0613,-0.04597 1.03528,-0.76454 2.49113,-1.25663c-0.01476,-0.0613 -0.02497,-0.12487 -0.02497,-0.19071c0,-0.19752 0.07435,-0.37631 0.19241,-0.5165c-0.96603,-0.27868 -1.78733,-0.2872 -1.80152,-0.2872c-0.29571,-0.00114 -0.53523,-0.24122 -0.53467,-0.53694c0.00057,-0.29571 0.24009,-0.53523 0.5358,-0.53523c0.11863,0 2.9225,0.01987 4.66726,1.76519c0.15382,0.15382 0.19922,0.38369 0.11522,0.58405z" data-paper-data="{&quot;origPos&quot;:null}" fill="#662113" stroke-width="0.5"/><path d="M240.46116,182.86249c-0.25102,0.0486 -0.73941,0 -0.73941,-0.73942c0,-1.47884 1.69893,-3.32717 4.06659,-3.32717c2.36766,0 4.06659,1.84834 4.06659,3.32717c0,0.73942 -0.48839,0.78761 -0.73942,0.73942c-1.09929,-0.21367 -1.98771,-0.36951 -3.32717,-0.36951c-1.33946,0 -2.22829,0.15584 -3.32718,0.36951z" fill="#662113" stroke-width="1"/><path d="M246.77881,193.91266c0,0.44381 0.42822,1.59081 -2.92948,1.59081c-3.3577,0 -3.21145,-13.79369 -3.21145,-13.79369c0,-1.04104 1.56197,-2.08249 3.12394,-2.08249c1.56197,0 3.12394,1.04104 3.12394,2.08249c0,0 -0.10696,11.91048 -0.10696,12.20288z" data-paper-data="{&quot;origPos&quot;:null}" fill="#77af57" stroke-width="1"/><path d="M242.43883,180.92337c0,-0.27394 0.22207,-0.49602 0.49602,-0.49602c0.27394,0 0.49603,0.22208 0.49603,0.49602c0,0.27394 -0.22208,0.49603 -0.49603,0.49603c-0.27394,0 -0.49602,-0.22208 -0.49602,-0.49603z" data-paper-data="{&quot;origPos&quot;:null}" fill="#5d8f3f" stroke-width="1"/><path d="M244.37593,181.89213c0,-0.27394 0.22208,-0.49603 0.49603,-0.49603c0.27394,0 0.49603,0.22208 0.49603,0.49603c0,0.27394 -0.22208,0.49603 -0.49603,0.49603c-0.27394,0 -0.49603,-0.22208 -0.49603,-0.49603z" data-paper-data="{&quot;origPos&quot;:null}" fill="#5d8f3f" stroke-width="1"/><path d="M245.00736,184.33939c-0.27041,-0.04388 -0.45404,-0.29868 -0.41015,-0.56909c0.04388,-0.27041 0.29868,-0.45404 0.56909,-0.41015c0.27041,0.04388 0.45403,0.29868 0.41015,0.56909c-0.04388,0.27041 -0.29867,0.45404 -0.56908,0.41015z" data-paper-data="{&quot;origPos&quot;:null}" fill="#5d8f3f" stroke-width="1"/><path d="M242.51282,185.36638c-0.38646,-0.06273 -0.64888,-0.42685 -0.58616,-0.81331c0.06273,-0.38646 0.42685,-0.64888 0.8133,-0.58616c0.38646,0.06273 0.64889,0.42685 0.58616,0.8133c-0.06273,0.38646 -0.42685,0.64889 -0.81331,0.58616z" data-paper-data="{&quot;origPos&quot;:null}" fill="#5d8f3f" stroke-width="1"/><path d="M243.32617,186.88591c0,-0.27394 0.22207,-0.49602 0.49602,-0.49602c0.27394,0 0.49603,0.22208 0.49603,0.49602c0,0.27394 -0.22208,0.49603 -0.49603,0.49603c-0.27394,0 -0.49602,-0.22208 -0.49602,-0.49603z" data-paper-data="{&quot;origPos&quot;:null}" fill="#5d8f3f" stroke-width="1"/><path d="M245.26327,187.85466c0,-0.27394 0.22208,-0.49603 0.49603,-0.49603c0.27394,0 0.49603,0.22208 0.49603,0.49603c0,0.27394 -0.22208,0.49603 -0.49603,0.49603c-0.27394,0 -0.49603,-0.22208 -0.49603,-0.49603z" data-paper-data="{&quot;origPos&quot;:null}" fill="#5d8f3f" stroke-width="1"/><path d="M245.8947,190.30193c-0.27041,-0.04388 -0.45404,-0.29868 -0.41015,-0.56909c0.04388,-0.27041 0.29868,-0.45404 0.56909,-0.41015c0.27041,0.04388 0.45403,0.29868 0.41015,0.56909c-0.04388,0.27041 -0.29867,0.45404 -0.56908,0.41015z" data-paper-data="{&quot;origPos&quot;:null}" fill="#5d8f3f" stroke-width="1"/><path d="M243.40016,191.32892c-0.38646,-0.06273 -0.64888,-0.42685 -0.58616,-0.81331c0.06273,-0.38646 0.42685,-0.64888 0.8133,-0.58616c0.38646,0.06273 0.64889,0.42685 0.58616,0.8133c-0.06273,0.38646 -0.42685,0.64889 -0.81331,0.58616z" data-paper-data="{&quot;origPos&quot;:null}" fill="#5d8f3f" stroke-width="1"/><path d="M244.00001,186.76l4,11.24h-20c-2.25,0 -2.646,-1.994 -2.647,-1.994l-3.072,-8.475c-1,-2.76 0.954,-3.531 2.478,-3.531h16.481c1.525,0 2.322,1.438 2.76,2.76z" data-paper-data="{&quot;origPos&quot;:null}" fill="#99aab5" stroke-width="1"/><path d="M236.01901,191.283c0.524,1.572 0.1,3.13 -0.949,3.479c-1.047,0.35 -2.322,-0.641 -2.846,-2.213c-0.524,-1.572 -0.099,-3.13 0.949,-3.479c1.048,-0.349 2.323,0.641 2.846,2.213zM241.00001,186.75h-16c-0.414,0 -0.75,-0.336 -0.75,-0.75c0,-0.414 0.336,-0.75 0.75,-0.75h16c0.414,0 0.75,0.336 0.75,0.75c0,0.414 -0.336,0.75 -0.75,0.75z" data-paper-data="{&quot;origPos&quot;:null}" fill="#e1e8ed" stroke-width="1"/></g></g></svg>