<svg version="1.1" xmlns="http://www.w3.org/2000/svg" xmlns:xlink="http://www.w3.org/1999/xlink" width="36" height="40.68559"><g transform="translate(-222,-163)"><g data-paper-data="{&quot;isPaintingLayer&quot;:true}" fill="none" fill-rule="nonzero" stroke="none" stroke-width="1" stroke-linecap="butt" stroke-linejoin="miter" stroke-miterlimit="10" stroke-dasharray="" stroke-dashoffset="0" font-family="none" font-weight="none" font-size="none" text-anchor="none" style="mix-blend-mode: normal"><path d="M252.245,184.732c1.481,4.274 3.755,8.593 3.755,9.268c0,1.657 -1.343,3 -3,3c-3.605,0 -3,-2 -6,-2c-3,0 -2,2 -6,2c-4,0 -3,-2 -7,-2h-1c-2.046,0 -3.162,-5.117 -3.664,-9.958c-3.334,0.418 -3.336,3.958 -3.336,3.958c0,1.104 -0.896,2 -2,2c-1.104,0 -2,-0.896 -2,-2c0,-3.769 1.778,-10.194 7,-11.763v-3.237c0,-6.075 4.925,-11 11,-11c6.075,0 11,4.925 11,11v2.894c2.989,-0.609 3,-3.894 3,-3.894c0,-1.104 0.896,-2 2,-2c1.104,0 2,0.896 2,2c0,3.58 -0.019,10.348 -5.755,11.732z" fill="#e1e8ed"/><path d="M233,174c0,-1.10457 0.89543,-2 2,-2c1.10457,0 2,0.89543 2,2c0,1.10457 -0.89543,2 -2,2c-1.10457,0 -2,-0.89543 -2,-2z" fill="#292f33"/><path d="M241,174c0,-2.20914 1.79086,-4 4,-4c2.20914,0 4,1.79086 4,4c0,2.20914 -1.79086,4 -4,4c-2.20914,0 -4,-1.79086 -4,-4z" fill="#292f33"/><path d="M243,175c0,-1.10457 0.89543,-2 2,-2c1.10457,0 2,0.89543 2,2c0,1.10457 -0.89543,2 -2,2c-1.10457,0 -2,-0.89543 -2,-2z" fill="#9aaab4"/><path d="M233.94328,190.35524c-0.5694,0.121 -1.67722,0 -1.67722,-1.841c0,-3.682 3.8537,-8.284 9.22428,-8.284c5.37058,0 9.22428,4.602 9.22428,8.284c0,1.841 -1.10783,1.961 -1.67723,1.841c-2.49352,-0.532 -4.50874,-0.92 -7.54705,-0.92c-3.03832,0 -5.05445,0.388 -7.54705,0.92z" data-paper-data="{&quot;origPos&quot;:null}" fill="#292f33"/><path d="M255.22062,200.90004c0,1.53902 -6.17411,2.78556 -13.79041,2.78556c-7.6163,0 -13.79041,-1.24654 -13.79041,-2.78556c0,-1.01394 2.69304,-1.89975 6.70435,-2.38583v-9.89013c0,-3.61008 3.54303,-7.22156 7.08607,-7.22156c3.54304,0 7.08607,3.61008 7.08607,7.22156v9.89013c4.01131,0.48608 6.70434,1.37189 6.70434,2.38583z" data-paper-data="{&quot;origPos&quot;:null}" fill="#77af57"/><path d="M238.58507,185.07838c0,-0.68207 0.55293,-1.235 1.235,-1.235c0.68207,0 1.235,0.55293 1.235,1.235c0,0.68207 -0.55293,1.235 -1.235,1.235c-0.68207,0 -1.235,-0.55293 -1.235,-1.235z" data-paper-data="{&quot;origPos&quot;:null}" fill="#5d8f3f"/><path d="M243.40807,187.49038c0,-0.68207 0.55293,-1.235 1.235,-1.235c0.68207,0 1.235,0.55293 1.235,1.235c0,0.68207 -0.55293,1.235 -1.235,1.235c-0.68207,0 -1.235,-0.55293 -1.235,-1.235z" data-paper-data="{&quot;origPos&quot;:null}" fill="#5d8f3f"/><path d="M244.9802,193.58359c-0.67326,-0.10927 -1.13046,-0.74364 -1.02119,-1.4169c0.10927,-0.67326 0.74364,-1.13047 1.4169,-1.0212c0.67326,0.10927 1.13047,0.74365 1.02119,1.41691c-0.10927,0.67326 -0.74365,1.13046 -1.41691,1.02119z" data-paper-data="{&quot;origPos&quot;:null}" fill="#5d8f3f"/><path d="M238.7693,196.14058c-0.96219,-0.15617 -1.6156,-1.06278 -1.45943,-2.02497c0.15617,-0.96219 1.06278,-1.6156 2.02497,-1.45943c0.96219,0.15617 1.6156,1.06278 1.45943,2.02497c-0.15617,0.96219 -1.06278,1.6156 -2.02497,1.45943z" data-paper-data="{&quot;origPos&quot;:null}" fill="#5d8f3f"/><path d="M242.72248,199.0737c0,-0.68207 0.55293,-1.235 1.235,-1.235c0.68207,0 1.235,0.55293 1.235,1.235c0,0.68207 -0.55293,1.235 -1.235,1.235c-0.68207,0 -1.235,-0.55293 -1.235,-1.235z" data-paper-data="{&quot;origPos&quot;:null}" fill="#5d8f3f"/><path d="M247.58627,203.37146c-0.67326,-0.10927 -1.13046,-0.74364 -1.02119,-1.4169c0.10927,-0.67326 0.74364,-1.13047 1.4169,-1.0212c0.67326,0.10927 1.13047,0.74365 1.02119,1.41691c-0.10927,0.67326 -0.74365,1.13046 -1.41691,1.02119z" data-paper-data="{&quot;origPos&quot;:null}" fill="#5d8f3f"/><path d="M237.03636,203.38489c-0.96219,-0.15617 -1.6156,-1.06278 -1.45943,-2.02497c0.15617,-0.96219 1.06278,-1.6156 2.02497,-1.45943c0.96219,0.15617 1.6156,1.06278 1.45943,2.02497c-0.15617,0.96219 -1.06278,1.6156 -2.02497,1.45943z" data-paper-data="{&quot;origPos&quot;:null}" fill="#5d8f3f"/></g></g></svg>