<svg version="1.1" xmlns="http://www.w3.org/2000/svg" xmlns:xlink="http://www.w3.org/1999/xlink" width="35.90688" height="39.32094"><g transform="translate(-221.66095,-158.67906)"><g data-paper-data="{&quot;isPaintingLayer&quot;:true}" fill="none" fill-rule="nonzero" stroke="none" stroke-width="1" stroke-linecap="butt" stroke-linejoin="miter" stroke-miterlimit="10" stroke-dasharray="" stroke-dashoffset="0" font-family="none" font-weight="none" font-size="none" text-anchor="none" style="mix-blend-mode: normal"><path d="M257.56095,187.47906c0,4 -3.3,7.3 -7.3,7.3c-5.2,0 -8.7,-0.7 -10.9,-1.7c-2.9,1 -6.2,1.7 -9.5,1.7c-4.5,0 -8.2,-3.6 -8.2,-8c0,-3.2 2,-6 4.7,-7.2c-0.5,-0.9 -0.8,-1.9 -0.8,-2.9c0,-2.4 1.7,-4.5 4,-5.4v0l0.7,-0.3c-0.5,-0.6 -0.8,-1.4 -0.8,-2.3c0,-1.6 1,-2.9 2.2,-3.6v0c0,0 1.4,-0.5 3.8,-0.9c-0.1,-1.9 0.5,-4 2.9,-5.5c3,4 7,2 8,5c0.3,0.9 0.2,1.6 0,2.2c2,0.4 3.9,1.7 4.7,3.6c0.5,1.3 0.6,2.6 0.3,3.8c1.5,0.9 2.6,2.2 3.3,3.8c0.7,1.6 0.9,3.3 0.5,4.9c1.5,1.3 2.5,3.3 2.4,5.5z" data-paper-data="{&quot;origPos&quot;:null}" fill="#bf6952"/><path d="M247.3,190.3c-1.5,0.9 -3.5,1.7 -6.3,1.7c-2.8,0 -4.8,-0.7 -6.3,-1.7c1.1,-1.4 3.5,-2.3 6.3,-2.3c2.8,0 5.2,0.9 6.3,2.3z" fill="#f2abba"/><path d="M231.7,190c-0.6,0.2 -1.8,0 -1.8,-1.8c0,-3.7 4.2,-8.3 10.1,-8.3c5.9,0 10.1,4.6 10.1,8.3c0,1.8 -1.2,1.9 -1.8,1.8c-2.8,-0.5 -5,-0.9 -8.3,-0.9c-3.3,0 -5.5,0.4 -8.3,0.9zM252.2,180.6c-0.2,0.3 -0.5,0.4 -0.8,0.4c-0.2,0 -0.4,-0.1 -0.6,-0.2c0,0 -3.6,-2.6 -7.9,-2.6c-0.4,0 -0.8,-0.2 -0.9,-0.6c-0.2,-0.3 -0.1,-0.7 0.2,-1c3.1,-3.1 8,-3.1 8.2,-3.1c0.5,0 0.9,0.4 0.9,0.9c0,0.5 -0.4,0.9 -0.9,0.9c-0.1,0 -1.5,0 -3.2,0.5c0.2,0.2 0.3,0.6 0.3,0.9c0,0.1 0,0.2 0,0.3c2.6,0.9 4.3,2.1 4.4,2.2c0.4,0.3 0.5,0.9 0.3,1.4zM238.1,177.3c-0.2,0.4 -0.5,0.6 -0.9,0.6c-4.3,0 -7.9,2.6 -7.9,2.6c-0.2,0.1 -0.4,0.2 -0.6,0.2c-0.3,0 -0.6,-0.2 -0.8,-0.4c-0.3,-0.4 -0.2,-1 0.2,-1.3c0.1,-0.1 1.8,-1.3 4.4,-2.2c0,-0.1 0,-0.2 0,-0.3c0,-0.3 0.1,-0.7 0.3,-0.9c-1.7,-0.5 -3.2,-0.5 -3.2,-0.5c-0.5,0 -0.9,-0.4 -0.9,-0.9c0,-0.5 0.4,-0.9 0.9,-0.9c0.2,0 5.1,0 8.2,3.1c0.3,0.3 0.4,0.7 0.3,0.9z" fill="#292f33"/><path d="M254.9,196c0,1.1 -6.8,2 -15.1,2c-8.3,0 -15.1,-0.9 -15.1,-2c0,-0.7 3,-1.4 7.4,-1.7v-7.1c0,-2.6 3.9,-5.2 7.8,-5.2c3.9,0 7.8,2.6 7.8,5.2v7.1c4.4,0.3 7.4,1 7.2,1.7z" fill="#77af57"/><path d="M236.7,185.2c0,-0.66274 0.53726,-1.2 1.2,-1.2c0.66274,0 1.2,0.53726 1.2,1.2c0,0.66274 -0.53726,1.2 -1.2,1.2c-0.66274,0 -1.2,-0.53726 -1.2,-1.2z" fill="#5d8f3f"/><path d="M241.5,187.6c0,-0.66274 0.53726,-1.2 1.2,-1.2c0.66274,0 1.2,0.53726 1.2,1.2c0,0.66274 -0.53726,1.2 -1.2,1.2c-0.66274,0 -1.2,-0.53726 -1.2,-1.2z" fill="#5d8f3f"/><path d="M242,192.5c0,-0.66274 0.53726,-1.2 1.2,-1.2c0.66274,0 1.2,0.53726 1.2,1.2c0,0.66274 -0.53726,1.2 -1.2,1.2c-0.66274,0 -1.2,-0.53726 -1.2,-1.2z" fill="#5d8f3f"/><path d="M235.3,194.5c0,-0.99411 0.80589,-1.8 1.8,-1.8c0.99411,0 1.8,0.80589 1.8,1.8c0,0.99411 -0.80589,1.8 -1.8,1.8c-0.99411,0 -1.8,-0.80589 -1.8,-1.8z" fill="#5d8f3f"/></g></g></svg>