<svg version="1.1" xmlns="http://www.w3.org/2000/svg" xmlns:xlink="http://www.w3.org/1999/xlink" width="44.33333" height="40.90517"><defs><linearGradient x1="236" y1="162" x2="236" y2="198" gradientUnits="userSpaceOnUse" id="color-1"><stop offset="0" stop-color="#ccd6dd"/><stop offset="1" stop-color="#afc7ab"/></linearGradient><linearGradient x1="242.00095" y1="186" x2="242.00095" y2="198" gradientUnits="userSpaceOnUse" id="color-2"><stop offset="0" stop-color="#ccd6dd"/><stop offset="1" stop-color="#afc7ab"/></linearGradient></defs><g transform="translate(-216.853,-162)"><g data-paper-data="{&quot;isPaintingLayer&quot;:true}" fill="none" fill-rule="nonzero" stroke="none" stroke-width="none" stroke-linecap="butt" stroke-linejoin="miter" stroke-miterlimit="10" stroke-dasharray="" stroke-dashoffset="0" font-family="none" font-weight="none" font-size="none" text-anchor="none" style="mix-blend-mode: normal"><path d="M261.18633,196.9885c0,3.26768 -9.92435,5.91667 -22.16667,5.91667c-12.24231,0 -22.16667,-2.64898 -22.16667,-5.91667c0,-3.26768 9.92435,-5.91667 22.16667,-5.91667c12.24231,0 22.16667,2.64898 22.16667,5.91667z" data-paper-data="{&quot;origPos&quot;:null}" fill="#77af57" stroke-width="0"/><path d="M223.65756,199.12353c-0.96219,-0.15617 -1.6156,-1.06278 -1.45943,-2.02497c0.15617,-0.96219 1.06278,-1.6156 2.02497,-1.45943c0.96219,0.15617 1.6156,1.06278 1.45943,2.02497c-0.15617,0.96219 -1.06278,1.6156 -2.02497,1.45943z" data-paper-data="{&quot;origPos&quot;:null}" fill="#5d8f3f" stroke-width="1"/><path d="M243.47333,198.728c0,-0.68207 0.55293,-1.235 1.235,-1.235c0.68207,0 1.235,0.55293 1.235,1.235c0,0.68207 -0.55293,1.235 -1.235,1.235c-0.68207,0 -1.235,-0.55293 -1.235,-1.235z" data-paper-data="{&quot;origPos&quot;:null}" fill="#5d8f3f" stroke-width="1"/><path d="M232.62967,199.97333c0,-0.68207 0.55293,-1.235 1.235,-1.235c0.68207,0 1.235,0.55293 1.235,1.235c0,0.68207 -0.55293,1.235 -1.235,1.235c-0.68207,0 -1.235,-0.55293 -1.235,-1.235z" data-paper-data="{&quot;origPos&quot;:null}" fill="#5d8f3f" stroke-width="1"/><path d="M253.69169,199.55892c-0.99122,-0.16087 -1.66433,-1.09483 -1.50346,-2.08606c0.16087,-0.99122 1.09483,-1.66433 2.08606,-1.50346c0.99122,0.16087 1.66433,1.09483 1.50346,2.08606c-0.16087,0.99122 -1.09483,1.66433 -2.08606,1.50346z" data-paper-data="{&quot;origPos&quot;:null}" fill="#5d8f3f" stroke-width="1"/><path d="M238.19169,200.39225c-0.99122,-0.16088 -1.66433,-1.09483 -1.50346,-2.08606c0.16088,-0.99122 1.09483,-1.66434 2.08606,-1.50346c0.99122,0.16088 1.66433,1.09483 1.50346,2.08606c-0.16087,0.99122 -1.09483,1.66434 -2.08606,1.50346z" data-paper-data="{&quot;origPos&quot;:null}" fill="#5d8f3f" stroke-width="1"/><path d="M250,194c0,2.209 -1.791,4 -4,4h-20c-2.209,0 -4,-1.875 -4,-8v-24c0,-2.209 1.791,-4 4,-4h20c2.209,0 4,1.791 4,4z" data-paper-data="{&quot;origPos&quot;:null}" fill="url(#color-1)" stroke-width="1"/><path d="M253,198h-27c4,0 4,-8 4,-8c0,-2.209 1.791,-4 4,-4h20c2.209,0 4,2 4,4c0,0 0.25,8 -5,8z" data-paper-data="{&quot;origPos&quot;:null}" fill="url(#color-2)" stroke-width="1"/><path d="M246,169c0,0.552 -0.447,1 -1,1h-18c-0.552,0 -1,-0.448 -1,-1c0,-0.552 0.448,-1 1,-1h18c0.553,0 1,0.448 1,1zM246,173c0,0.552 -0.447,1 -1,1h-18c-0.552,0 -1,-0.448 -1,-1c0,-0.552 0.448,-1 1,-1h18c0.553,0 1,0.448 1,1zM246,177c0,0.552 -0.447,1 -1,1h-18c-0.552,0 -1,-0.448 -1,-1c0,-0.552 0.448,-1 1,-1h18c0.553,0 1,0.448 1,1zM246,181c0,0.553 -0.447,1 -1,1h-18c-0.552,0 -1,-0.447 -1,-1c0,-0.553 0.448,-1 1,-1h18c0.553,0 1,0.447 1,1z" data-paper-data="{&quot;origPos&quot;:null}" fill="#99aab5" stroke-width="1"/></g></g></svg>