<svg version="1.1" xmlns="http://www.w3.org/2000/svg" xmlns:xlink="http://www.w3.org/1999/xlink" width="34" height="39.158"><g transform="translate(-223,-162.042)"><g data-paper-data="{&quot;isPaintingLayer&quot;:true}" fill="none" fill-rule="nonzero" stroke="none" stroke-width="none" stroke-linecap="butt" stroke-linejoin="miter" stroke-miterlimit="10" stroke-dasharray="" stroke-dashoffset="0" font-family="none" font-weight="none" font-size="none" text-anchor="none" style="mix-blend-mode: normal"><path d="M240,198c-9.389,0 -17,-7.611 -17,-17c0,-4.195 1.52,-8.035 4.038,-11c-1.455,5.292 0.123,8.613 2.963,8.333c2.541,-0.25 3.625,-2.5 2.583,-5.208c-0.999,-2.598 -0.905,-6.614 2.333,-9c-1,4.5 1.709,7.273 4.667,7.042c2.666,-0.208 5.208,-3.625 2.333,-9.125c6.919,3.625 7.167,7.985 6.931,11.794c-0.14,2.247 -2.035,6.956 0.777,8.164c3.002,1.289 5.875,-1.479 6.335,-6.868c0.673,1.829 1.04,3.806 1.04,5.868c0,9.389 -7.611,17 -17,17z" fill="#f4900c" stroke-width="1"/><path d="M252,192c0,0.368 -0.023,0.73 -0.055,1.09c-3.07,3.034 -7.287,4.91 -11.945,4.91c-4.658,0 -8.875,-1.876 -11.945,-4.91c-0.032,-0.36 -0.055,-0.722 -0.055,-1.09c0,-3.324 1.352,-6.332 3.536,-8.506c0.215,4.006 2.096,4.433 3.968,4.007c1.833,-0.417 5.33,-2.751 3.08,-9.084c3.083,0.917 5.166,3 5.708,6c0.542,3 -0.023,4.448 2.083,5.291c1.458,0.584 4.167,-0.625 4.019,-3.709c1.022,1.765 1.606,3.814 1.606,6.001z" fill="#ffcc4d" stroke-width="1"/><g data-paper-data="{&quot;origPos&quot;:null}"><path d="M232.116,193.256c-0.625,0.121 -1.841,0 -1.841,-1.841c0,-3.682 4.23,-8.284 10.125,-8.284c5.895,0 10.125,4.602 10.125,8.284c0,1.841 -1.216,1.961 -1.841,1.841c-2.737,-0.532 -4.949,-0.92 -8.284,-0.92c-3.335,0 -5.548,0.388 -8.284,0.92z" data-paper-data="{&quot;origPos&quot;:null}" fill="#8d5307" stroke-width="0.5"/><path d="M255.471,199.2c0,1.105 -6.777,2 -15.137,2c-8.36,0 -15.137,-0.895 -15.137,-2c0,-0.728 2.956,-1.364 7.359,-1.713v-7.101c0,-2.592 3.889,-5.185 7.778,-5.185c3.889,0 7.778,2.592 7.778,5.185v7.101c4.403,0.349 7.359,0.985 7.359,1.713z" data-paper-data="{&quot;origPos&quot;:null}" fill="#f4900c" stroke-width="1"/><path d="M237.04,188.428c0,-0.68207 0.55293,-1.235 1.235,-1.235c0.68207,0 1.235,0.55293 1.235,1.235c0,0.68207 -0.55293,1.235 -1.235,1.235c-0.68207,0 -1.235,-0.55293 -1.235,-1.235z" data-paper-data="{&quot;origPos&quot;:null}" fill="#ffcc4d" stroke-width="1"/><path d="M241.863,190.84c0,-0.68207 0.55293,-1.235 1.235,-1.235c0.68207,0 1.235,0.55293 1.235,1.235c0,0.68207 -0.55293,1.235 -1.235,1.235c-0.68207,0 -1.235,-0.55293 -1.235,-1.235z" data-paper-data="{&quot;origPos&quot;:null}" fill="#ffcc4d" stroke-width="1"/><path d="M243.43513,196.93321c-0.67326,-0.10927 -1.13046,-0.74364 -1.02119,-1.41691c0.10927,-0.67326 0.74364,-1.13046 1.41691,-1.02119c0.67326,0.10927 1.13046,0.74364 1.02119,1.41691c-0.10927,0.67326 -0.74364,1.13046 -1.41691,1.02119z" data-paper-data="{&quot;origPos&quot;:null}" fill="#ffcc4d" stroke-width="1"/><path d="M237.22423,199.4902c-0.96219,-0.15617 -1.6156,-1.06278 -1.45943,-2.02497c0.15617,-0.96219 1.06278,-1.6156 2.02497,-1.45943c0.96219,0.15617 1.6156,1.06278 1.45943,2.02497c-0.15617,0.96219 -1.06278,1.6156 -2.02497,1.45943z" data-paper-data="{&quot;origPos&quot;:null}" fill="#ffcc4d" stroke-width="1"/></g></g></g></svg>