<svg version="1.1" xmlns="http://www.w3.org/2000/svg" xmlns:xlink="http://www.w3.org/1999/xlink" width="36" height="40.25051" viewBox="0,0,36,40.25051"><g transform="translate(-222,-161.99996)"><g data-paper-data="{&quot;isPaintingLayer&quot;:true}" fill="none" fill-rule="nonzero" stroke="none" stroke-width="none" stroke-linecap="butt" stroke-linejoin="miter" stroke-miterlimit="10" stroke-dasharray="" stroke-dashoffset="0" font-family="none" font-weight="none" font-size="none" text-anchor="none" style="mix-blend-mode: normal"><path d="M222,180c0,-9.94112 8.05888,-18 18,-18c9.94113,0 18,8.05888 18,18c0,9.94113 -8.05887,18 -18,18c-9.94112,0 -18,-8.05887 -18,-18z" fill="#aa8dd8" stroke-width="1"/><path d="M233.701,166.948c0.365,0.59 0.398,1.326 0.088,1.946l-2,4c-0.339,0.678 -1.032,1.106 -1.789,1.106c-6.328,0 -8,-6.541 -8,-10c0,-0.809 0.487,-1.538 1.235,-1.847c0.746,-0.31 1.608,-0.139 2.179,0.433c0.955,0.948 4.006,3.414 6.586,3.414c0.693,0 1.337,0.359 1.701,0.948zM258,164c0,3.459 -1.672,10 -8,10c-0.758,0 -1.45,-0.428 -1.789,-1.105l-2,-4c-0.309,-0.62 -0.276,-1.357 0.088,-1.946c0.364,-0.59 1.008,-0.949 1.701,-0.949c2.589,0 5.7,-2.528 6.586,-3.413c0.573,-0.573 1.43,-0.745 2.18,-0.434c0.747,0.309 1.234,1.038 1.234,1.847z" fill="#aa8dd8" stroke-width="1"/><path d="M237.707,179.90872c-0.195,0.195 -0.451,0.293 -0.707,0.293c-0.012,0 -0.024,-0.007 -0.037,-0.007c0.018,0.167 0.037,0.333 0.037,0.507c0,1.934 -1.119,3.5 -2.5,3.5c-1.381,0 -2.5,-1.566 -2.5,-3.5c0,-1.129 0.389,-2.123 0.982,-2.763c-2.058,-0.715 -3.954,-0.737 -3.983,-0.737c-0.552,-0.001 -0.999,-0.45 -0.998,-1.002c0,-0.551 0.447,-0.998 0.999,-0.998c0.221,0 5.452,0.038 8.707,3.293c0.391,0.391 0.391,1.023 0,1.414z" data-paper-data="{&quot;origPos&quot;:null}" fill="#553986" stroke-width="1"/><path d="M251.999,176.19972c0.001,0.552 -0.446,1.001 -0.997,1.002c-0.03,0 -1.926,0.022 -3.984,0.737c0.593,0.64 0.982,1.634 0.982,2.763c0,1.934 -1.119,3.5 -2.5,3.5c-1.381,0 -2.5,-1.566 -2.5,-3.5c0,-0.174 0.02,-0.34 0.036,-0.507c-0.012,0 -0.023,0.007 -0.036,0.007c-0.256,0 -0.512,-0.098 -0.707,-0.293c-0.391,-0.391 -0.391,-1.023 0,-1.414c3.256,-3.255 8.486,-3.293 8.707,-3.293c0.552,0 0.998,0.447 0.999,0.998z" data-paper-data="{&quot;origPos&quot;:null}" fill="#553986" stroke-width="1"/><path d="M234.76226,190.35676c-0.09323,-0.05152 -0.18489,-0.10392 -0.27498,-0.15707c0.10139,0.03238 0.20328,0.06394 0.30561,0.09469z" data-paper-data="{&quot;origPos&quot;:null}" fill="#000000" stroke-width="1"/><path d="M240.32696,185.78888c3.335,0 5.547,-0.388 8.284,-0.92c0.625,-0.12 1.841,0 1.841,1.841c0,3.682 -4.23,8.284 -10.125,8.284c-5.895,0 -10.125,-4.602 -10.125,-8.284c0,-1.841 1.216,-1.962 1.841,-1.841c2.736,0.532 4.949,0.92 8.284,0.92z" data-paper-data="{&quot;origPos&quot;:null,&quot;index&quot;:null}" fill="#553986" stroke-width="0.5"/><path d="M255.39796,200.25047c0,1.105 -6.777,2 -15.137,2c-8.36,0 -15.137,-0.895 -15.137,-2c0,-0.728 2.956,-1.364 7.359,-1.713l-0.49044,-9.22624c0,-2.592 4.37944,-2.24236 8.26844,-2.24236c3.889,0 8.10496,-0.51412 8.10496,2.07888l-0.32696,9.38972c4.403,0.349 7.359,0.985 7.359,1.713z" data-paper-data="{&quot;origPos&quot;:null}" fill="#77af57" stroke-width="1"/><path d="M236.96696,189.47847c0,-0.68207 0.55293,-1.235 1.235,-1.235c0.68207,0 1.235,0.55293 1.235,1.235c0,0.68207 -0.55293,1.235 -1.235,1.235c-0.68207,0 -1.235,-0.55293 -1.235,-1.235z" data-paper-data="{&quot;origPos&quot;:null}" fill="#5d8f3f" stroke-width="1"/><path d="M241.78996,191.89047c0,-0.68207 0.55293,-1.235 1.235,-1.235c0.68207,0 1.235,0.55293 1.235,1.235c0,0.68207 -0.55293,1.235 -1.235,1.235c-0.68207,0 -1.235,-0.55293 -1.235,-1.235z" data-paper-data="{&quot;origPos&quot;:null}" fill="#5d8f3f" stroke-width="1"/><path d="M243.36209,197.98368c-0.67326,-0.10927 -1.13046,-0.74364 -1.02119,-1.41691c0.10927,-0.67326 0.74364,-1.13046 1.41691,-1.02119c0.67326,0.10927 1.13046,0.74364 1.02119,1.41691c-0.10927,0.67326 -0.74364,1.13046 -1.41691,1.02119z" data-paper-data="{&quot;origPos&quot;:null}" fill="#5d8f3f" stroke-width="1"/><path d="M237.15119,200.54067c-0.96219,-0.15617 -1.6156,-1.06278 -1.45943,-2.02497c0.15617,-0.96219 1.06278,-1.6156 2.02497,-1.45943c0.96219,0.15617 1.6156,1.06278 1.45943,2.02497c-0.15617,0.96219 -1.06278,1.6156 -2.02497,1.45943z" data-paper-data="{&quot;origPos&quot;:null}" fill="#5d8f3f" stroke-width="1"/></g></g></svg>