<svg version="1.1" xmlns="http://www.w3.org/2000/svg" xmlns:xlink="http://www.w3.org/1999/xlink" width="36" height="39.23517"><g transform="translate(-222,-162)"><g data-paper-data="{&quot;isPaintingLayer&quot;:true}" fill="none" fill-rule="nonzero" stroke="none" stroke-width="1" stroke-linecap="butt" stroke-linejoin="miter" stroke-miterlimit="10" stroke-dasharray="" stroke-dashoffset="0" font-family="none" font-weight="none" font-size="none" text-anchor="none" style="mix-blend-mode: normal"><path d="M258,180c0,9.941 -8.059,18 -18,18c-9.94,0 -18,-8.059 -18,-18c0,-9.94 8.06,-18 18,-18c9.941,0 18,8.06 18,18" fill="#ffcc4d"/><path d="M250.312,180.391c-0.091,0.072 -0.202,0.109 -0.312,0.109c-0.104,0 -0.21,-0.033 -0.298,-0.099c-0.028,-0.02 -1.276,-0.901 -3.702,-0.901c-2.44,0 -3.69,0.893 -3.702,0.902c-0.184,0.133 -0.435,0.128 -0.61,-0.014c-0.177,-0.142 -0.237,-0.384 -0.145,-0.591c0.06,-0.135 1.5,-3.297 4.457,-3.297c2.958,0 4.397,3.162 4.457,3.297c0.093,0.208 0.032,0.452 -0.145,0.594zM238.312,180.391c-0.091,0.072 -0.202,0.109 -0.312,0.109c-0.104,0 -0.21,-0.033 -0.298,-0.099c-0.028,-0.02 -1.276,-0.901 -3.702,-0.901c-2.441,0 -3.69,0.893 -3.703,0.902c-0.183,0.133 -0.434,0.128 -0.61,-0.014c-0.176,-0.142 -0.236,-0.384 -0.144,-0.591c0.06,-0.135 1.5,-3.297 4.457,-3.297c2.958,0 4.397,3.162 4.457,3.297c0.092,0.208 0.033,0.452 -0.145,0.594zM253.37,177.927c0.513,-0.205 0.763,-0.787 0.558,-1.3c-2.176,-5.44 -7.506,-6.563 -7.732,-6.608c-0.542,-0.107 -1.069,0.242 -1.177,0.784c-0.109,0.542 0.243,1.069 0.784,1.177c0.045,0.01 4.49,0.946 6.268,5.391c0.157,0.391 0.533,0.629 0.929,0.629c0.124,0 0.25,-0.023 0.37,-0.073zM227.929,177.371c1.765,-4.411 6.086,-5.353 6.271,-5.391c0.539,-0.11 0.889,-0.636 0.781,-1.176c-0.109,-0.541 -0.634,-0.89 -1.177,-0.784c-0.226,0.045 -5.556,1.168 -7.732,6.608c-0.205,0.513 0.044,1.095 0.557,1.3c0.122,0.049 0.247,0.072 0.371,0.072c0.396,0 0.772,-0.238 0.929,-0.629zM249,183c0.679,-0.132 2,0 2,2c0,4 -4.596,9 -11,9c-6.405,0 -11,-5 -11,-9c0,-2 1.321,-2.131 2,-2c2.973,0.578 5.377,1 9,1c3.623,0 6.027,-0.422 9,-1z" fill="#664500"/><g data-paper-data="{&quot;origPos&quot;:null}"><path d="M254.07814,199.39694c0,1.01563 -6.22885,1.83823 -13.91265,1.83823c-7.68381,0 -13.91265,-0.82261 -13.91265,-1.83823c0,-0.66912 2.7169,-1.25367 6.76377,-1.57444v-6.52664c0,-2.38235 3.25092,-3.30979 6.82536,-3.30979c3.57444,0 7.4724,0.92652 7.4724,3.30979v6.52664c4.04686,0.32077 6.76377,0.90533 6.76377,1.57444z" data-paper-data="{&quot;origPos&quot;:null}" fill="#77af57"/><path d="M237.13792,189.49623c0,-0.6269 0.50821,-1.13511 1.13511,-1.13511c0.6269,0 1.13511,0.50821 1.13511,1.13511c0,0.6269 -0.50821,1.13511 -1.13511,1.13511c-0.6269,0 -1.13511,-0.50821 -1.13511,-1.13511z" data-paper-data="{&quot;origPos&quot;:null}" fill="#5d8f3f"/><path d="M241.57081,191.71313c0,-0.6269 0.50821,-1.13511 1.13511,-1.13511c0.6269,0 1.1351,0.50821 1.1351,1.13511c0,0.6269 -0.5082,1.13511 -1.1351,1.13511c-0.6269,0 -1.13511,-0.50821 -1.13511,-1.13511z" data-paper-data="{&quot;origPos&quot;:null}" fill="#5d8f3f"/><path d="M243.01578,197.3135c-0.61881,-0.10043 -1.03902,-0.68349 -0.93859,-1.3023c0.10043,-0.61881 0.68348,-1.03902 1.3023,-0.93859c0.61881,0.10043 1.03903,0.68349 0.9386,1.3023c-0.10043,0.61881 -0.68349,1.03902 -1.30231,0.93859z" data-paper-data="{&quot;origPos&quot;:null}" fill="#5d8f3f"/><path d="M237.30725,199.66367c-0.88437,-0.14354 -1.48493,-0.97681 -1.34139,-1.86118c0.14354,-0.88437 0.97681,-1.48493 1.86118,-1.34139c0.88437,0.14354 1.48493,0.97682 1.34139,1.86118c-0.14354,0.88437 -0.97681,1.48492 -1.86118,1.34138z" data-paper-data="{&quot;origPos&quot;:null}" fill="#5d8f3f"/></g><path d="M231,185c0,0 3,1 9,1c6,0 9,-1 9,-1c0,0 -2,4 -9,4c-7,0 -9,-4 -9,-4z" data-paper-data="{&quot;origPos&quot;:null}" fill="#ffffff"/><path d="M232.847,190.229c-0.68,2.677 -3.4,4.295 -6.077,3.615c-2.676,-0.679 -4.295,-3.399 -3.616,-6.076c0.679,-2.677 6.337,-8.708 7.307,-8.462c0.97,0.247 3.065,8.247 2.386,10.923zM247.133,190.229c0.68,2.677 3.4,4.295 6.077,3.615c2.677,-0.679 4.296,-3.399 3.616,-6.076c-0.68,-2.677 -6.338,-8.708 -7.308,-8.462c-0.968,0.247 -3.064,8.247 -2.385,10.923z" data-paper-data="{&quot;origPos&quot;:null}" fill="#5dadec"/></g></g></svg>