<svg version="1.1" xmlns="http://www.w3.org/2000/svg" xmlns:xlink="http://www.w3.org/1999/xlink" width="36" height="38.82207"><g transform="translate(-222,-162)"><g data-paper-data="{&quot;isPaintingLayer&quot;:true}" fill="none" fill-rule="nonzero" stroke="none" stroke-width="1" stroke-linecap="butt" stroke-linejoin="miter" stroke-miterlimit="10" stroke-dasharray="" stroke-dashoffset="0" font-family="none" font-weight="none" font-size="none" text-anchor="none" style="mix-blend-mode: normal"><path d="M258,180c0,9.941 -8.059,18 -18,18c-9.941,0 -18,-8.059 -18,-18c0,-9.941 8.059,-18 18,-18c9.941,0 18,8.059 18,18" fill="#ffcc4d"/><path d="M240,183.849c2.967,0 4.935,-0.346 7.369,-0.819c0.556,-0.107 1.638,0 1.638,1.638c0,3.275 -3.763,7.369 -9.007,7.369c-5.244,0 -9.007,-4.094 -9.007,-7.369c0,-1.638 1.081,-1.744 1.638,-1.638c2.434,0.473 4.403,0.819 7.369,0.819" data-paper-data="{&quot;origPos&quot;:null}" fill="#664500"/><path d="M238.65,165.281c-0.859,-2.431 -3.524,-3.707 -5.956,-2.85c-1.476,0.52 -2.521,1.711 -2.928,3.104c-1.191,-0.829 -2.751,-1.1 -4.225,-0.58c-2.43,0.858 -3.708,3.525 -2.849,5.956c0.122,0.344 0.284,0.663 0.472,0.958c1.951,3.582 7.588,6.1 11.001,6.131c2.637,-2.167 5.446,-7.665 4.718,-11.677c-0.038,-0.348 -0.113,-0.698 -0.233,-1.042zM241.35,165.281c0.859,-2.431 3.525,-3.707 5.956,-2.85c1.476,0.52 2.521,1.711 2.929,3.104c1.191,-0.829 2.751,-1.1 4.225,-0.58c2.43,0.858 3.707,3.525 2.85,5.956c-0.123,0.344 -0.284,0.663 -0.473,0.958c-1.951,3.582 -7.588,6.1 -11.002,6.131c-2.637,-2.167 -5.445,-7.665 -4.717,-11.677c0.037,-0.348 0.112,-0.698 0.232,-1.042z" fill="#dd2e44"/><path d="M255.55958,198.82207c0,1.105 -6.777,2 -15.137,2c-8.36,0 -15.137,-0.895 -15.137,-2c0,-0.728 2.956,-1.364 7.359,-1.713c0,0 1.31343,-8.45745 1.31343,-8.74279c0,-0.28535 3.31682,-1.73724 6.30039,-1.73724c3.42032,0 6.46457,0.49652 6.46457,0.91634c0,0.41981 1.47761,9.56369 1.47761,9.56369c4.403,0.349 7.359,0.985 7.359,1.713z" data-paper-data="{&quot;origPos&quot;:null}" fill="#77af57"/><path d="M237.12858,188.05007c0,-0.68207 0.55293,-1.235 1.235,-1.235c0.68207,0 1.235,0.55293 1.235,1.235c0,0.68207 -0.55293,1.235 -1.235,1.235c-0.68207,0 -1.235,-0.55293 -1.235,-1.235z" data-paper-data="{&quot;origPos&quot;:null}" fill="#5d8f3f"/><path d="M241.95158,190.46207c0,-0.68207 0.55293,-1.235 1.235,-1.235c0.68207,0 1.235,0.55293 1.235,1.235c0,0.68207 -0.55293,1.235 -1.235,1.235c-0.68207,0 -1.235,-0.55293 -1.235,-1.235z" data-paper-data="{&quot;origPos&quot;:null}" fill="#5d8f3f"/><path d="M243.52371,196.55528c-0.67326,-0.10927 -1.13047,-0.74365 -1.02119,-1.41691c0.10927,-0.67326 0.74365,-1.13047 1.41691,-1.0212c0.67326,0.10927 1.13046,0.74365 1.02119,1.41691c-0.10927,0.67326 -0.74364,1.13047 -1.4169,1.02119z" data-paper-data="{&quot;origPos&quot;:null}" fill="#5d8f3f"/><path d="M237.31281,199.11227c-0.96219,-0.15617 -1.6156,-1.06278 -1.45943,-2.02497c0.15617,-0.96219 1.06278,-1.6156 2.02497,-1.45943c0.96219,0.15617 1.6156,1.06278 1.45943,2.02497c-0.15617,0.96219 -1.06278,1.6156 -2.02497,1.45943z" data-paper-data="{&quot;origPos&quot;:null}" fill="#5d8f3f"/></g></g></svg>