<svg version="1.1" xmlns="http://www.w3.org/2000/svg" xmlns:xlink="http://www.w3.org/1999/xlink" width="36" height="40.08699"><g transform="translate(-222,-162)"><g data-paper-data="{&quot;isPaintingLayer&quot;:true}" fill="none" fill-rule="nonzero" stroke="none" stroke-width="none" stroke-linecap="butt" stroke-linejoin="miter" stroke-miterlimit="10" stroke-dasharray="" stroke-dashoffset="0" font-family="none" font-weight="none" font-size="none" text-anchor="none" style="mix-blend-mode: normal"><path d="M258,180c0,9.941 -8.059,18 -18,18c-9.94,0 -18,-8.059 -18,-18c0,-9.94 8.06,-18 18,-18c9.941,0 18,8.06 18,18" fill="#ffcc4d" stroke-width="1"/><path d="M239.312,179.612c-0.176,-0.143 -0.427,-0.147 -0.61,-0.014c-0.012,0.009 -1.26,0.902 -3.702,0.902c-2.441,0 -3.69,-0.893 -3.7,-0.9c-0.183,-0.137 -0.435,-0.133 -0.611,0.009c-0.178,0.142 -0.238,0.386 -0.146,0.594c0.06,0.135 1.5,3.297 4.457,3.297c2.958,0 4.397,-3.162 4.457,-3.297c0.092,-0.207 0.032,-0.449 -0.145,-0.591zM249.312,179.612c-0.176,-0.143 -0.426,-0.148 -0.61,-0.014c-0.012,0.009 -1.261,0.902 -3.702,0.902c-2.44,0 -3.69,-0.893 -3.7,-0.9c-0.183,-0.137 -0.434,-0.133 -0.611,0.009c-0.178,0.142 -0.238,0.386 -0.146,0.594c0.06,0.135 1.5,3.297 4.457,3.297c2.958,0 4.397,-3.162 4.457,-3.297c0.092,-0.207 0.032,-0.449 -0.145,-0.591zM244,190h-8c-0.552,0 -1,-0.447 -1,-1c0,-0.553 0.448,-1 1,-1h8c0.553,0 1,0.447 1,1c0,0.553 -0.447,1 -1,1zM228,176c-0.552,0 -1,-0.448 -1,-1c0,-0.551 0.445,-0.998 0.996,-1c0.156,-0.002 3.569,-0.086 6.205,-3.6c0.331,-0.44 0.957,-0.532 1.4,-0.2c0.442,0.331 0.531,0.958 0.2,1.4c-3.263,4.35 -7.617,4.4 -7.801,4.4zM252,176c-0.184,0 -4.537,-0.05 -7.8,-4.4c-0.332,-0.442 -0.242,-1.069 0.2,-1.4c0.441,-0.333 1.067,-0.242 1.399,0.2c2.641,3.521 6.061,3.599 6.206,3.6c0.55,0.006 0.994,0.456 0.991,1.005c-0.002,0.551 -0.446,0.995 -0.996,0.995z" fill="#664500" stroke-width="1"/><path d="M232.36991,192.35441c-0.5695,0.08595 -1.67751,0 -1.67751,-1.30771c0,-2.61543 3.85436,-5.88435 9.22586,-5.88435c5.3715,0 9.22586,3.26893 9.22586,5.88435c0,1.30771 -1.10801,1.39295 -1.67751,1.30771c-2.49394,-0.37789 -4.50951,-0.6535 -7.54835,-0.6535c-3.03884,0 -5.05532,0.27561 -7.54835,0.6535z" data-paper-data="{&quot;origPos&quot;:null}" fill="#65471b" stroke-width="0.5"/><path d="M255.23448,200.08699c0,1.105 -6.777,2 -15.137,2c-8.36,0 -15.137,-0.895 -15.137,-2c0,-0.728 3.28296,-1.364 7.68596,-1.713l0.49044,-7.75492c0,-2.592 3.0716,-3.71368 6.9606,-3.71368c3.889,0 6.79712,1.61112 6.79712,4.20412l0.32696,7.26448c4.403,0.349 8.01292,0.985 8.01292,1.713z" data-paper-data="{&quot;origPos&quot;:null}" fill="#77af57" stroke-width="1"/><path d="M236.80348,189.31499c0,-0.68207 0.55293,-1.235 1.235,-1.235c0.68207,0 1.235,0.55293 1.235,1.235c0,0.68207 -0.55293,1.235 -1.235,1.235c-0.68207,0 -1.235,-0.55293 -1.235,-1.235z" data-paper-data="{&quot;origPos&quot;:null}" fill="#5d8f3f" stroke-width="1"/><path d="M241.62648,191.72699c0,-0.68207 0.55293,-1.235 1.235,-1.235c0.68207,0 1.235,0.55293 1.235,1.235c0,0.68207 -0.55293,1.235 -1.235,1.235c-0.68207,0 -1.235,-0.55293 -1.235,-1.235z" data-paper-data="{&quot;origPos&quot;:null}" fill="#5d8f3f" stroke-width="1"/><path d="M243.19861,197.8202c-0.67326,-0.10927 -1.13046,-0.74364 -1.02119,-1.41691c0.10927,-0.67326 0.74364,-1.13046 1.41691,-1.02119c0.67326,0.10927 1.13046,0.74364 1.02119,1.41691c-0.10927,0.67326 -0.74364,1.13046 -1.41691,1.02119z" data-paper-data="{&quot;origPos&quot;:null}" fill="#5d8f3f" stroke-width="1"/><path d="M236.98771,200.37719c-0.96219,-0.15617 -1.6156,-1.06278 -1.45943,-2.02497c0.15617,-0.96219 1.06278,-1.6156 2.02497,-1.45943c0.96219,0.15617 1.6156,1.06278 1.45943,2.02497c-0.15617,0.96219 -1.06278,1.6156 -2.02497,1.45943z" data-paper-data="{&quot;origPos&quot;:null}" fill="#5d8f3f" stroke-width="1"/></g></g></svg>