<svg version="1.1" xmlns="http://www.w3.org/2000/svg" xmlns:xlink="http://www.w3.org/1999/xlink" width="37.78107" height="41.54432"><g transform="translate(-222,-162)"><g data-paper-data="{&quot;isPaintingLayer&quot;:true}" fill="none" fill-rule="nonzero" stroke="none" stroke-width="none" stroke-linecap="butt" stroke-linejoin="miter" stroke-miterlimit="10" stroke-dasharray="" stroke-dashoffset="0" font-family="none" font-weight="none" font-size="none" text-anchor="none" style="mix-blend-mode: normal"><path d="M259.78107,198.06775c0,3.02463 -5.23326,5.47658 -11.68881,5.47658c-6.45555,0 -11.68881,-2.45195 -11.68881,-5.47658c0,-3.02463 5.23326,-5.47657 11.68881,-5.47657c6.45555,0 11.68881,2.45194 11.68881,5.47657z" data-paper-data="{&quot;origPos&quot;:null}" fill="#de5eac" stroke-width="0"/><path d="M222,180c0,-9.94112 8.05888,-18 18,-18c9.94113,0 18,8.05888 18,18c0,9.94113 -8.05887,18 -18,18c-9.94112,0 -18,-8.05887 -18,-18z" data-paper-data="{&quot;origPos&quot;:null}" fill="#ffcc4d" stroke-width="1"/><path d="M231,177.5c0,-1.933 1.11929,-3.5 2.5,-3.5c1.38071,0 2.5,1.567 2.5,3.5c0,1.933 -1.11929,3.5 -2.5,3.5c-1.38071,0 -2.5,-1.567 -2.5,-3.5z" fill="#664500" stroke-width="1"/><path d="M250.312,180.391c-0.091,0.072 -0.202,0.109 -0.312,0.109c-0.104,0 -0.21,-0.033 -0.298,-0.099c-0.028,-0.02 -1.276,-0.901 -3.702,-0.901c-2.44,0 -3.69,0.893 -3.702,0.902c-0.184,0.133 -0.435,0.128 -0.61,-0.014c-0.177,-0.142 -0.237,-0.384 -0.145,-0.591c0.06,-0.135 1.5,-3.297 4.457,-3.297c2.958,0 4.397,3.162 4.457,3.297c0.093,0.208 0.032,0.452 -0.145,0.594z" data-paper-data="{&quot;origPos&quot;:null}" fill="#664500" stroke-width="1"/><path d="M251.001,176c-0.305,0 -0.604,-0.138 -0.801,-0.4c-2.592,-3.456 -6.961,-2.628 -7.004,-2.62c-0.547,0.11 -1.068,-0.244 -1.177,-0.784c-0.108,-0.541 0.243,-1.068 0.784,-1.177c0.231,-0.047 5.657,-1.072 8.996,3.38c0.332,0.442 0.242,1.069 -0.2,1.4c-0.179,0.136 -0.389,0.201 -0.598,0.201z" data-paper-data="{&quot;origPos&quot;:null}" fill="#664500" stroke-width="1"/><path d="M227.999,173c-0.208,0 -0.419,-0.065 -0.599,-0.2c-0.442,-0.331 -0.531,-0.958 -0.2,-1.4c3.262,-4.35 7.616,-4.4 7.8,-4.4c0.552,0 1,0.448 1,1c0,0.551 -0.445,0.998 -0.996,1c-0.155,0.002 -3.568,0.086 -6.204,3.6c-0.196,0.262 -0.497,0.4 -0.801,0.4z" data-paper-data="{&quot;origPos&quot;:null}" fill="#664500" stroke-width="1"/><path d="" data-paper-data="{&quot;origPos&quot;:null}" fill="#000000" stroke-width="1"/><path d="M242.16282,195.60904c0.05083,0.48143 -0.12031,1.39479 -1.51511,1.27448c-2.78959,-0.24062 -5.99976,-3.74614 -5.61452,-8.21236c0.38524,-4.46623 4.14829,-7.37025 6.93788,-7.12963c1.39479,0.12031 1.40625,1.04943 1.27448,1.51511c-0.58193,2.03886 -1.02045,3.68938 -1.23839,6.21608c-0.21794,2.52669 -0.06861,4.22868 0.15565,6.33632z" data-paper-data="{&quot;origPos&quot;:null}" fill="#65471b" stroke-width="0.5"/><path d="M253.47881,197.3034c0.83718,0.07221 -5.88217,4.37198 -6.71935,4.29976c-0.55156,-0.04757 -0.84023,-2.32869 -0.8169,-5.68734l-5.37993,-0.46406c-2.8306,-0.24416 -3.54032,-4.53108 -2.89456,-7.29783c1.25216,-5.45926 1.97524,-4.68645 3.98454,-5.14205c2.19842,0.13823 3.18383,5.14023 6.13885,5.39512c1.96454,0.16945 5.13579,8.84883 5.68734,8.8964z" data-paper-data="{&quot;origPos&quot;:null}" fill="#de5eac" stroke-width="1"/><g data-paper-data="{&quot;origPos&quot;:null}" stroke-width="1"><path d="M245.6289,189.86489c-0.70067,0.30318 -1.47455,0.45049 -2.02699,0.3921c-0.69708,-0.72178 -1.33262,-2.42179 -0.98453,-3.56981c0.02246,-0.09971 0.05615,-0.19943 0.10331,-0.29599c0.33192,-0.6809 1.1543,-0.96387 1.83566,-0.6315c0.41322,0.20121 0.67821,0.58434 0.75008,1.00474c0.37593,-0.20256 0.84035,-0.22862 1.25446,-0.02695c0.35887,0.17472 0.60276,0.48732 0.70875,0.84215c-0.41322,0.85562 -0.96701,1.6295 -1.64073,2.28526z" data-paper-data="{&quot;origPos&quot;:null}" fill="#ffac33"/><path d="M247.75201,188.48152c-0.69079,0.98004 -2.4218,1.52484 -3.42025,1.41975c-0.50202,-0.5198 -0.66588,-0.9219 -0.88002,-1.61209c-0.22992,-0.74103 -0.32936,-1.21514 -0.1045,-1.95772c0.02246,-0.09971 0.05614,-0.19942 0.1033,-0.29599c0.33192,-0.68045 1.1543,-0.96387 1.83566,-0.6315c0.41322,0.20121 0.67821,0.58434 0.75008,1.00474c0.37593,-0.20256 0.84036,-0.22862 1.25447,-0.02695c0.68045,0.33192 0.96297,1.1543 0.63105,1.83521c-0.04716,0.09656 -0.10465,0.18415 -0.16977,0.26455z" data-paper-data="{&quot;origPos&quot;:null}" fill="#dd2e44"/></g><g data-paper-data="{&quot;origPos&quot;:null}" stroke-width="1"><path d="M250.30669,194.31672c-0.51757,0.22395 -1.08922,0.33276 -1.49731,0.28964c-0.51492,-0.53316 -0.98438,-1.78894 -0.72725,-2.63696c0.01659,-0.07366 0.04148,-0.14731 0.07631,-0.21864c0.24518,-0.50297 0.85266,-0.712 1.35597,-0.46648c0.30524,0.14864 0.50098,0.43165 0.55407,0.74219c0.27769,-0.14963 0.62075,-0.16887 0.92665,-0.0199c0.26509,0.12906 0.44525,0.35997 0.52354,0.62208c-0.30524,0.63203 -0.71431,1.20369 -1.21198,1.68808z" data-paper-data="{&quot;origPos&quot;:null}" fill="#ffac33"/><path d="M251.875,193.29485c-0.51027,0.72394 -1.78894,1.12637 -2.52648,1.04874c-0.37083,-0.38397 -0.49187,-0.68099 -0.65006,-1.19082c-0.16984,-0.54738 -0.2433,-0.8976 -0.07719,-1.44613c0.01659,-0.07366 0.04147,-0.14731 0.0763,-0.21864c0.24518,-0.50264 0.85267,-0.712 1.35597,-0.46648c0.30524,0.14864 0.50098,0.43165 0.55407,0.74219c0.27769,-0.14963 0.62076,-0.16887 0.92665,-0.0199c0.50264,0.24518 0.71133,0.85266 0.46614,1.35564c-0.03483,0.07133 -0.0773,0.13603 -0.12541,0.19542z" data-paper-data="{&quot;origPos&quot;:null}" fill="#dd2e44"/></g><g data-paper-data="{&quot;origPos&quot;:null}" stroke-width="1"><path d="M249.40142,200.35316c-0.47624,0.20606 -1.00222,0.30619 -1.37771,0.26651c-0.47379,-0.49058 -0.90577,-1.64605 -0.66917,-2.42634c0.01526,-0.06777 0.03816,-0.13555 0.07021,-0.20118c0.2256,-0.4628 0.78456,-0.65513 1.24767,-0.42922c0.28086,0.13676 0.46097,0.39717 0.50982,0.68291c0.25552,-0.13768 0.57117,-0.15538 0.85264,-0.01832c0.24391,0.11875 0.40968,0.33122 0.48172,0.5724c-0.28086,0.58155 -0.65726,1.10754 -1.11517,1.55325z" data-paper-data="{&quot;origPos&quot;:null}" fill="#ffac33"/><path d="M250.84447,199.41291c-0.46952,0.66612 -1.64606,1.03641 -2.32469,0.96498c-0.34121,-0.3533 -0.45258,-0.6266 -0.59813,-1.09571c-0.15627,-0.50367 -0.22387,-0.82591 -0.07103,-1.33063c0.01526,-0.06777 0.03815,-0.13554 0.07021,-0.20118c0.2256,-0.46249 0.78456,-0.65513 1.24767,-0.42922c0.28086,0.13676 0.46097,0.39718 0.50982,0.68291c0.25552,-0.13768 0.57117,-0.15538 0.85263,-0.01832c0.46249,0.2256 0.65451,0.78456 0.42891,1.24735c-0.03206,0.06563 -0.07113,0.12517 -0.11539,0.17981z" data-paper-data="{&quot;origPos&quot;:null}" fill="#dd2e44"/></g><g data-paper-data="{&quot;origPos&quot;:null}" stroke-width="1"><path d="M256.31874,199.22509c-0.61356,0.26549 -1.29121,0.39448 -1.77498,0.34335c-0.61041,-0.63204 -1.16694,-2.12069 -0.86212,-3.12598c0.01967,-0.08731 0.04916,-0.17463 0.09046,-0.25919c0.29065,-0.59625 1.0108,-0.84403 1.60744,-0.55299c0.36184,0.1762 0.59389,0.5117 0.65682,0.87983c0.3292,-0.17738 0.73587,-0.20019 1.09849,-0.0236c0.31425,0.153 0.52782,0.42673 0.62063,0.73744c-0.36184,0.74924 -0.84679,1.42691 -1.43674,2.00114z" data-paper-data="{&quot;origPos&quot;:null}" fill="#ffac33"/><path d="M258.17789,198.01372c-0.6049,0.85819 -2.1207,1.33526 -2.99501,1.24322c-0.4396,-0.45517 -0.58309,-0.80728 -0.77061,-1.41166c-0.20134,-0.6489 -0.28842,-1.06407 -0.09151,-1.71432c0.01967,-0.08731 0.04915,-0.17462 0.09045,-0.25918c0.29065,-0.59586 1.01079,-0.84404 1.60743,-0.55299c0.36184,0.1762 0.5939,0.51171 0.65683,0.87983c0.3292,-0.17738 0.73586,-0.20019 1.09849,-0.0236c0.59585,0.29065 0.84325,1.01078 0.55259,1.60703c-0.0413,0.08456 -0.09164,0.16127 -0.14867,0.23166z" data-paper-data="{&quot;origPos&quot;:null}" fill="#dd2e44"/></g></g></g></svg>