<svg version="1.1" xmlns="http://www.w3.org/2000/svg" xmlns:xlink="http://www.w3.org/1999/xlink" width="36" height="36"><defs><linearGradient x1="240" y1="178" x2="240" y2="197" gradientUnits="userSpaceOnUse" id="color-1"><stop offset="0" stop-color="#5dadec"/><stop offset="1" stop-color="#5ccd88"/></linearGradient><linearGradient x1="240.31642" y1="183.20081" x2="240.31642" y2="195.74856" gradientUnits="userSpaceOnUse" id="color-2"><stop offset="0" stop-color="#77af57"/><stop offset="1" stop-color="#5ccd88"/></linearGradient><linearGradient x1="243.08042" y1="187.60481" x2="243.08042" y2="190.07481" gradientUnits="userSpaceOnUse" id="color-3"><stop offset="0" stop-color="#5d8f3f"/><stop offset="1" stop-color="#51b477"/></linearGradient></defs><g transform="translate(-222,-162)"><g data-paper-data="{&quot;isPaintingLayer&quot;:true}" fill="none" fill-rule="nonzero" stroke="none" stroke-width="none" stroke-linecap="butt" stroke-linejoin="miter" stroke-miterlimit="10" stroke-dasharray="" stroke-dashoffset="0" font-family="none" font-weight="none" font-size="none" text-anchor="none" style="mix-blend-mode: normal"><path d="M258,180c0,9.941 -8.059,18 -18,18c-9.941,0 -18,-8.059 -18,-18c0,-9.941 8.059,-18 18,-18c9.941,0 18,8.059 18,18" fill="#ffcc4d" stroke-width="1"/><path d="M252,177c-0.124,0 -0.25,-0.023 -0.371,-0.072c-5.229,-2.091 -7.372,-5.241 -7.461,-5.374c-0.307,-0.46 -0.183,-1.081 0.277,-1.387c0.459,-0.306 1.077,-0.184 1.385,0.274c0.019,0.027 1.93,2.785 6.541,4.629c0.513,0.206 0.763,0.787 0.558,1.3c-0.157,0.392 -0.533,0.63 -0.929,0.63z" data-paper-data="{&quot;origPos&quot;:null}" fill="#664500" stroke-width="1"/><path d="M228,177c-0.397,0 -0.772,-0.238 -0.929,-0.629c-0.205,-0.513 0.044,-1.095 0.557,-1.3c4.612,-1.844 6.523,-4.602 6.542,-4.629c0.308,-0.456 0.929,-0.577 1.387,-0.27c0.457,0.308 0.581,0.925 0.275,1.383c-0.089,0.133 -2.232,3.283 -7.46,5.374c-0.122,0.048 -0.248,0.071 -0.372,0.071z" data-paper-data="{&quot;origPos&quot;:null}" fill="#664500" stroke-width="1"/><path d="M246,178h4v19l-4,-0.046zM230,197l4,-0.046v-18.954h-4z" data-paper-data="{&quot;origPos&quot;:null}" fill="url(#color-1)" stroke-width="1"/><path d="M236.999,180c-0.15,0 -0.303,-0.034 -0.446,-0.105c-3.512,-1.756 -7.07,-0.018 -7.105,0c-0.495,0.249 -1.095,0.046 -1.342,-0.447c-0.247,-0.494 -0.047,-1.095 0.447,-1.342c0.182,-0.09 4.498,-2.197 8.895,0c0.494,0.247 0.694,0.848 0.447,1.342c-0.176,0.35 -0.529,0.552 -0.896,0.552zM250.999,180c-0.15,0 -0.303,-0.034 -0.446,-0.105c-3.513,-1.756 -7.07,-0.018 -7.105,0c-0.494,0.248 -1.094,0.047 -1.342,-0.447c-0.247,-0.494 -0.047,-1.095 0.447,-1.342c0.182,-0.09 4.501,-2.196 8.895,0c0.494,0.247 0.694,0.848 0.447,1.342c-0.176,0.35 -0.529,0.552 -0.896,0.552z" fill="#664500" stroke-width="1"/><path d="M222,196c0,-1.10457 8.05887,-2 18,-2c9.94113,0 18,0.89543 18,2c0,1.10457 -8.05887,2 -18,2c-9.94113,0 -18,-0.89543 -18,-2z" data-paper-data="{&quot;origPos&quot;:null}" fill="#5ccd88" stroke-width="1"/><path d="" data-paper-data="{&quot;origPos&quot;:null}" fill="#553986" stroke-width="1"/><path d="M232.09842,191.25581c-0.625,0.121 -1.841,0 -1.841,-1.841c0,-3.682 4.23,-8.284 10.125,-8.284c5.895,0 10.125,4.602 10.125,8.284c0,1.841 -1.216,1.961 -1.841,1.841c-2.737,-0.532 -4.949,-0.92 -8.284,-0.92c-3.335,0 -5.548,0.388 -8.284,0.92z" data-paper-data="{&quot;origPos&quot;:null}" fill="#65471b" stroke-width="0.5"/><path d="M232.53842,195.48681v-7.101c0,-2.592 3.889,-5.185 7.778,-5.185c3.889,0 7.778,2.592 7.778,5.185v7.101c4.403,0.349 -19.959,0.349 -15.556,0z" data-paper-data="{&quot;origPos&quot;:null}" fill="url(#color-2)" stroke-width="1"/><path d="M237.02242,186.42781c0,-0.68207 0.55293,-1.235 1.235,-1.235c0.68207,0 1.235,0.55293 1.235,1.235c0,0.68207 -0.55293,1.235 -1.235,1.235c-0.68207,0 -1.235,-0.55293 -1.235,-1.235z" data-paper-data="{&quot;origPos&quot;:null}" fill="#5d8f3f" stroke-width="1"/><path d="M241.84542,188.83981c0,-0.68207 0.55293,-1.235 1.235,-1.235c0.68207,0 1.235,0.55293 1.235,1.235c0,0.68207 -0.55293,1.235 -1.235,1.235c-0.68207,0 -1.235,-0.55293 -1.235,-1.235z" data-paper-data="{&quot;origPos&quot;:null}" fill="url(#color-3)" stroke-width="1"/><path d="M243.41755,194.93302c-0.67326,-0.10927 -1.13046,-0.74364 -1.02119,-1.41691c0.10927,-0.67326 0.74364,-1.13046 1.41691,-1.02119c0.67326,0.10927 1.13046,0.74364 1.02119,1.41691c-0.10927,0.67326 -0.74364,1.13046 -1.41691,1.02119z" data-paper-data="{&quot;origPos&quot;:null}" fill="#51b477" stroke-width="1"/><path d="M237.20665,196.50913c-0.96219,-0.15617 -1.6156,-1.06278 -1.45943,-2.02497c0.15617,-0.96219 1.06278,-1.6156 2.02497,-1.45943c0.96219,0.15617 1.6156,1.06278 1.45943,2.02497c-0.15617,0.96219 -1.06278,1.6156 -2.02497,1.45943z" data-paper-data="{&quot;origPos&quot;:null}" fill="#51b477" stroke-width="1"/></g></g></svg>