<svg version="1.1" xmlns="http://www.w3.org/2000/svg" xmlns:xlink="http://www.w3.org/1999/xlink" width="36" height="38.70659"><g transform="translate(-222,-162)"><g data-paper-data="{&quot;isPaintingLayer&quot;:true}" fill="none" fill-rule="nonzero" stroke="none" stroke-width="none" stroke-linecap="butt" stroke-linejoin="miter" stroke-miterlimit="10" stroke-dasharray="" stroke-dashoffset="0" font-family="none" font-weight="none" font-size="none" text-anchor="none" style="mix-blend-mode: normal"><path d="M258,180c0,9.941 -8.059,18 -18,18c-9.94,0 -18,-8.059 -18,-18c0,-9.94 8.06,-18 18,-18c9.941,0 18,8.06 18,18" fill="#ffcc4d" stroke-width="1"/><path d="M231,178.5c0,-1.933 1.11929,-3.5 2.5,-3.5c1.38071,0 2.5,1.567 2.5,3.5c0,1.933 -1.11929,3.5 -2.5,3.5c-1.38071,0 -2.5,-1.567 -2.5,-3.5z" fill="#664500" stroke-width="1"/><path d="M244,178.5c0,-1.933 1.11929,-3.5 2.5,-3.5c1.38071,0 2.5,1.567 2.5,3.5c0,1.933 -1.11929,3.5 -2.5,3.5c-1.38071,0 -2.5,-1.567 -2.5,-3.5z" fill="#664500" stroke-width="1"/><path d="M245.246,190.436c-0.077,0.043 -0.162,0.064 -0.246,0.064c-0.125,0 -0.249,-0.047 -0.344,-0.137c-0.039,-0.033 -1.066,-0.863 -4.656,-0.863c-3.643,0 -4.647,0.855 -4.657,0.863c-0.163,0.146 -0.409,0.172 -0.596,0.06c-0.188,-0.113 -0.284,-0.331 -0.231,-0.544c0.01,-0.044 1.144,-4.379 5.484,-4.379c4.34,0 5.474,4.335 5.485,4.379c0.055,0.218 -0.043,0.445 -0.239,0.557z" fill="#664500" stroke-width="1"/><path d="M222.344,183.484c-0.221,-1.128 -0.344,-2.292 -0.344,-3.484c0,-9.94 8.06,-18 18,-18c9.941,0 18,8.06 18,18c0,1.192 -0.122,2.356 -0.344,3.484c-1.623,-5.975 -8.907,-10.484 -17.656,-10.484c-8.748,0 -16.033,4.509 -17.656,10.484z" fill="#bdddf4" stroke-width="1"/><path d="M252,174c-5.554,0 -7.802,-4.367 -7.895,-4.553c-0.247,-0.494 -0.047,-1.095 0.447,-1.342c0.492,-0.247 1.092,-0.048 1.34,0.443c0.075,0.146 1.821,3.452 6.108,3.452c0.553,0 1,0.448 1,1c0,0.552 -0.447,1 -1,1zM228,174c-0.552,0 -1,-0.448 -1,-1c0,-0.552 0.448,-1 1,-1c5.083,0 5.996,-3.12 6.033,-3.253c0.145,-0.528 0.69,-0.848 1.219,-0.709c0.53,0.139 0.851,0.673 0.718,1.205c-0.049,0.194 -1.266,4.757 -7.97,4.757z" fill="#664500" stroke-width="1"/><g data-paper-data="{&quot;origPos&quot;:null}"><path d="M231.82877,192.76259c-0.625,0.121 -1.841,0 -1.841,-1.841c0,-3.682 4.23,-8.284 10.125,-8.284c5.895,0 10.125,4.602 10.125,8.284c0,1.841 -1.216,1.961 -1.841,1.841c-2.737,-0.532 -4.949,-0.92 -8.284,-0.92c-3.335,0 -5.548,0.388 -8.284,0.92z" data-paper-data="{&quot;origPos&quot;:null}" fill="#65471b" stroke-width="0.5"/><path d="M255.18377,198.70659c0,1.105 -6.777,2 -15.137,2c-8.36,0 -15.137,-0.895 -15.137,-2c0,-0.728 2.956,-1.364 7.359,-1.713v-7.101c0,-2.592 3.889,-5.185 7.778,-5.185c3.889,0 7.778,2.592 7.778,5.185v7.101c4.403,0.349 7.359,0.985 7.359,1.713z" data-paper-data="{&quot;origPos&quot;:null}" fill="#77af57" stroke-width="1"/><path d="M236.75277,187.93459c0,-0.68207 0.55293,-1.235 1.235,-1.235c0.68207,0 1.235,0.55293 1.235,1.235c0,0.68207 -0.55293,1.235 -1.235,1.235c-0.68207,0 -1.235,-0.55293 -1.235,-1.235z" data-paper-data="{&quot;origPos&quot;:null}" fill="#5d8f3f" stroke-width="1"/><path d="M241.57577,190.34659c0,-0.68207 0.55293,-1.235 1.235,-1.235c0.68207,0 1.235,0.55293 1.235,1.235c0,0.68207 -0.55293,1.235 -1.235,1.235c-0.68207,0 -1.235,-0.55293 -1.235,-1.235z" data-paper-data="{&quot;origPos&quot;:null}" fill="#5d8f3f" stroke-width="1"/><path d="M243.1479,196.4398c-0.67326,-0.10927 -1.13046,-0.74364 -1.02119,-1.41691c0.10927,-0.67326 0.74364,-1.13046 1.41691,-1.02119c0.67326,0.10927 1.13046,0.74364 1.02119,1.41691c-0.10927,0.67326 -0.74364,1.13046 -1.41691,1.02119z" data-paper-data="{&quot;origPos&quot;:null}" fill="#5d8f3f" stroke-width="1"/><path d="M236.937,198.99679c-0.96219,-0.15617 -1.6156,-1.06278 -1.45943,-2.02497c0.15617,-0.96219 1.06278,-1.6156 2.02497,-1.45943c0.96219,0.15617 1.6156,1.06278 1.45943,2.02497c-0.15617,0.96219 -1.06278,1.6156 -2.02497,1.45943z" data-paper-data="{&quot;origPos&quot;:null}" fill="#5d8f3f" stroke-width="1"/></g><path d="M232,192c0,2.762 -2.238,5 -5,5c-2.762,0 -5,-2.238 -5,-5c0,-2.762 4,-10 5,-10c1,0 5,7.238 5,10z" data-paper-data="{&quot;origPos&quot;:null}" fill="#5dadec" stroke-width="1"/></g></g></svg>