<svg version="1.1" xmlns="http://www.w3.org/2000/svg" xmlns:xlink="http://www.w3.org/1999/xlink" width="36.00214" height="40.50916" viewBox="0,0,36.00214,40.50916"><g transform="translate(-221.99893,-162.0017)"><g data-paper-data="{&quot;isPaintingLayer&quot;:true}" fill="none" fill-rule="nonzero" stroke="none" stroke-width="none" stroke-linecap="butt" stroke-linejoin="miter" stroke-miterlimit="10" stroke-dasharray="" stroke-dashoffset="0" font-family="none" font-weight="none" font-size="none" text-anchor="none" style="mix-blend-mode: normal"><path d="M257,189c-0.39,0.716 -2.367,3.025 -5,5c-4,3 -10,4 -12,4c-2,0 -8,-1 -12,-4c-2.633,-1.975 -4.61,-4.284 -5,-5c-0.343,-0.63 -1.129,-3.487 -0.734,-7.071c0.359,-3.269 0.734,-4.929 1.734,-6.929c0,0 -3,-9 -1,-12.7c0.674,-1.246 7.404,1.688 10,3.7c0,0 4,-0.998 7,-0.998c3,0 7,0.998 7,0.998c2.596,-2.012 9.326,-4.946 10,-3.7c2,3.7 -1,12.7 -1,12.7c1,2 1.375,3.66 1.734,6.929c0.395,3.584 -0.391,6.441 -0.734,7.071z" fill="#ffcc4d" stroke-width="1"/><path d="M240,180.11826c3,0 3,0.5 3,1.5c0,1 -1.5,3 -3,3c-1.5,0 -3,-2 -3,-3c0,-1 -0.001,-1.5 3,-1.5z" data-paper-data="{&quot;origPos&quot;:null}" fill="#e75a70" stroke-width="1"/><path d="M225,173c1,-3 5.64,-6 5.64,-6c-1,-1 -6.193,-3.342 -6.64,-2c-1,3 1,8 1,8zM255,173c-1,-3 -5.64,-6 -5.64,-6c1,-1 6.193,-3.342 6.64,-2c1,3 -1,8 -1,8z" fill="#f18f26" stroke-width="1"/><path d="M229,172.603c1,-1 2,-1.603 3,-2.603c1,-1 -5.066,-3.811 -5.066,-2.397c0,1 1.066,6 2.066,5zM251,172.603c-1,-1 -2,-1.603 -3,-2.603c-1,-1 5.066,-3.811 5.066,-2.397c0,1 -1.066,6 -2.066,5z" fill="#ffcc4d" stroke-width="1"/><path d="M223.011,186.894c0.036,-0.029 3.718,-2.869 9.951,-2.395c0.28,0.041 0.516,-0.185 0.537,-0.46c0.021,-0.275 -0.185,-0.516 -0.46,-0.536c-6.628,-0.515 -10.486,2.478 -10.648,2.605c-0.217,0.171 -0.254,0.485 -0.083,0.702c0.099,0.125 0.245,0.19 0.393,0.19c0.108,0 0.217,-0.035 0.31,-0.106zM232.045,181.987c0.083,-0.264 -0.064,-0.544 -0.328,-0.627c-5.076,-1.585 -9.189,-0.39 -9.362,-0.338c-0.264,0.079 -0.414,0.357 -0.335,0.622c0.08,0.265 0.358,0.416 0.623,0.335c0.04,-0.011 3.987,-1.161 8.777,0.336c0.049,0.015 0.1,0.022 0.149,0.022c0.213,0 0.41,-0.137 0.476,-0.35zM256.989,186.894c-0.036,-0.029 -3.718,-2.869 -9.951,-2.395c-0.28,0.041 -0.516,-0.185 -0.537,-0.46c-0.021,-0.275 0.185,-0.516 0.46,-0.536c6.628,-0.515 10.486,2.478 10.648,2.605c0.217,0.171 0.254,0.485 0.083,0.702c-0.099,0.125 -0.245,0.19 -0.393,0.19c-0.108,0 -0.217,-0.035 -0.31,-0.106zM247.955,181.987c-0.083,-0.264 0.064,-0.544 0.328,-0.627c5.076,-1.585 9.189,-0.39 9.362,-0.338c0.264,0.079 0.414,0.357 0.335,0.622c-0.08,0.265 -0.358,0.416 -0.623,0.335c-0.04,-0.011 -3.987,-1.161 -8.777,0.336c-0.049,0.015 -0.1,0.022 -0.149,0.022c-0.213,0 -0.411,-0.137 -0.476,-0.35z" fill="#fee7b8" stroke-width="1"/><g data-paper-data="{&quot;origPos&quot;:null}" stroke-width="1"><path d="M232.05105,194.56686c-0.625,0.121 -1.841,0 -1.841,-1.841c0,-3.682 4.23,-8.284 10.125,-8.284c5.895,0 10.125,4.602 10.125,8.284c0,1.841 -1.216,1.961 -1.841,1.841c-2.737,-0.532 -4.949,-0.92 -8.284,-0.92c-3.335,0 -5.548,0.388 -8.284,0.92z" fill="#292f33"/><path d="M255.40605,200.51086c0,1.105 -6.777,2 -15.137,2c-8.36,0 -15.137,-0.895 -15.137,-2c0,-0.728 2.956,-1.364 7.359,-1.713v-7.101c0,-2.592 3.889,-5.185 7.778,-5.185c3.889,0 7.778,2.592 7.778,5.185v7.101c4.403,0.349 7.359,0.985 7.359,1.713z" fill="#77af57"/><path d="M236.97505,189.73886c0,-0.68207 0.55293,-1.235 1.235,-1.235c0.68207,0 1.235,0.55293 1.235,1.235c0,0.68207 -0.55293,1.235 -1.235,1.235c-0.68207,0 -1.235,-0.55293 -1.235,-1.235z" fill="#5d8f3f"/><path d="M241.79805,192.15086c0,-0.68207 0.55293,-1.235 1.235,-1.235c0.68207,0 1.235,0.55293 1.235,1.235c0,0.68207 -0.55293,1.235 -1.235,1.235c-0.68207,0 -1.235,-0.55293 -1.235,-1.235z" fill="#5d8f3f"/><path d="M243.37018,198.24407c-0.67326,-0.10927 -1.13047,-0.74365 -1.02119,-1.41691c0.10927,-0.67326 0.74365,-1.13047 1.41691,-1.0212c0.67326,0.10927 1.13046,0.74365 1.02119,1.41691c-0.10927,0.67326 -0.74364,1.13047 -1.4169,1.02119z" fill="#5d8f3f"/><path d="M237.15928,200.80106c-0.96219,-0.15617 -1.6156,-1.06278 -1.45943,-2.02497c0.15617,-0.96219 1.06278,-1.6156 2.02497,-1.45943c0.96219,0.15617 1.6156,1.06278 1.45943,2.02497c-0.15617,0.96219 -1.06278,1.6156 -2.02497,1.45943z" fill="#5d8f3f"/></g><g fill="#292f33" stroke-width="0.5"><path d="M252.09,182.06566c-0.185,0.247 -0.469,0.378 -0.757,0.378c-0.196,0 -0.394,-0.061 -0.564,-0.187c-0.036,-0.027 -3.6,-2.645 -7.935,-2.645c-0.381,0 -0.726,-0.23 -0.872,-0.583c-0.146,-0.353 -0.065,-0.759 0.205,-1.029c3.075,-3.074 8.015,-3.11 8.223,-3.11c0.522,0 0.943,0.422 0.944,0.943c0.001,0.521 -0.422,0.945 -0.942,0.946c-0.026,0 -1.472,0.014 -3.175,0.506c0.208,0.246 0.339,0.561 0.339,0.91c0,0.116 -0.018,0.228 -0.044,0.336c2.565,0.867 4.28,2.133 4.388,2.214c0.416,0.313 0.501,0.903 0.19,1.321z" data-paper-data="{&quot;origPos&quot;:null}"/><path d="M238.037,179.02766c-0.146,0.353 -0.49,0.583 -0.872,0.583c-4.357,0 -7.898,2.618 -7.933,2.644c-0.17,0.127 -0.369,0.189 -0.566,0.189c-0.287,0 -0.571,-0.13 -0.756,-0.378c-0.313,-0.417 -0.228,-1.009 0.189,-1.322c0.108,-0.081 1.824,-1.347 4.389,-2.214c-0.026,-0.108 -0.044,-0.22 -0.044,-0.336c0,-0.348 0.131,-0.663 0.339,-0.91c-1.702,-0.491 -3.149,-0.506 -3.174,-0.506c-0.521,-0.002 -0.943,-0.425 -0.942,-0.946c0.001,-0.521 0.423,-0.943 0.944,-0.943c0.209,0 5.149,0.035 8.223,3.11c0.271,0.271 0.351,0.676 0.203,1.029z" data-paper-data="{&quot;origPos&quot;:null}"/></g></g></g></svg>