<svg version="1.1" xmlns="http://www.w3.org/2000/svg" xmlns:xlink="http://www.w3.org/1999/xlink" width="61.77373" height="39.40302" viewBox="0,0,61.77373,39.40302"><g transform="translate(-208.86335,-162)"><g data-paper-data="{&quot;isPaintingLayer&quot;:true}" fill="none" fill-rule="nonzero" stroke="none" stroke-width="none" stroke-linecap="butt" stroke-linejoin="miter" stroke-miterlimit="10" stroke-dasharray="" stroke-dashoffset="0" font-family="none" font-weight="none" font-size="none" text-anchor="none" style="mix-blend-mode: normal"><path d="M253,176.5c0,-1.933 1.11929,-3.5 2.5,-3.5c1.38071,0 2.5,1.567 2.5,3.5c0,1.933 -1.11929,3.5 -2.5,3.5c-1.38071,0 -2.5,-1.567 -2.5,-3.5z" fill="#f4900c" stroke-width="1"/><path d="M222,176.5c0,-1.933 1.11929,-3.5 2.5,-3.5c1.38071,0 2.5,1.567 2.5,3.5c0,1.933 -1.11929,3.5 -2.5,3.5c-1.38071,0 -2.5,-1.567 -2.5,-3.5z" fill="#f4900c" stroke-width="1"/><path d="M256,181c0,0.553 -0.447,1 -1,1h-3c-0.553,0 -1,-0.447 -1,-1v-9c0,-0.552 0.447,-1 1,-1h3c0.553,0 1,0.448 1,1zM229,181c0,0.553 -0.448,1 -1,1h-3c-0.552,0 -1,-0.447 -1,-1v-9c0,-0.552 0.448,-1 1,-1h3c0.552,0 1,0.448 1,1z" fill="#ffac33" stroke-width="1"/><path d="M250,167c0,2.761 -4.478,4 -10,4c-5.523,0 -10,-1.239 -10,-4c0,-2.761 4.477,-5 10,-5c5.522,0 10,2.239 10,5z" fill="#ffcc4d" stroke-width="1"/><path d="M247,166.083c0,1.611 -3.135,2.917 -7,2.917c-3.866,0 -7,-1.306 -7,-2.917c0,-1.611 3.134,-2.917 7,-2.917c3.865,0 7,1.306 7,2.917z" fill="#f4900c" stroke-width="1"/><path d="M252,167.5c0,1.381 -1.119,1.5 -2.5,1.5h-19c-1.381,0 -2.5,-0.119 -2.5,-1.5c0,-1.381 1.119,-2.5 2.5,-2.5h19c1.381,0 2.5,1.119 2.5,2.5z" fill="#226699" stroke-width="1"/><path d="M254,170v26h-28v-26c0,-1.104 0.896,-2 2,-2h24c1.104,0 2,0.896 2,2z" fill="#55acee" stroke-width="1"/><path d="M256,197h-32c-1.104,0 -1,-0.896 -1,-2v-1c0,-1.104 0.896,-2 2,-2h10.929l3.364,3.364c0.391,0.391 1.023,0.391 1.414,0l3.364,-3.364h10.929c1.104,0 2,0.896 2,2v1c0,1.104 0.104,2 -1,2z" fill="#3b88c3" stroke-width="1"/><path d="M242,176.5c0,-2.48528 2.01472,-4.5 4.5,-4.5c2.48528,0 4.5,2.01472 4.5,4.5c0,2.48528 -2.01472,4.5 -4.5,4.5c-2.48528,0 -4.5,-2.01472 -4.5,-4.5z" fill="#ffffff" stroke-width="1"/><path d="M243.779,176.5c0,-1.50277 1.21823,-2.721 2.721,-2.721c1.50277,0 2.721,1.21823 2.721,2.721c0,1.50277 -1.21823,2.721 -2.721,2.721c-1.50277,0 -2.721,-1.21823 -2.721,-2.721z" fill="#dd2e44" stroke-width="1"/><path d="M229,176.5c0,-2.48528 2.01472,-4.5 4.5,-4.5c2.48528,0 4.5,2.01472 4.5,4.5c0,2.48528 -2.01472,4.5 -4.5,4.5c-2.48528,0 -4.5,-2.01472 -4.5,-4.5z" data-paper-data="{&quot;origPos&quot;:null}" fill="#ffffff" stroke-width="1"/><path d="M251,187.5c0,1.381 -1.119,2.5 -2.5,2.5h-17c-1.381,0 -2.5,-1.119 -2.5,-2.5c0,-1.381 1.119,-2.5 2.5,-2.5h17c1.381,0 2.5,1.119 2.5,2.5z" fill="#f5f8fa" stroke-width="1"/><path d="M239,185h2v5h-2zM234,185h2v5h-2zM244,185h2v5h-2zM229,187.5c0,1.21 0.859,2.218 2,2.45v-4.9c-1.141,0.232 -2,1.24 -2,2.45zM249,185.05v4.899c1.141,-0.232 2,-1.24 2,-2.45c0,-1.21 -0.859,-2.217 -2,-2.449z" fill="#ccd6dd" stroke-width="1"/><path d="M230.779,176.5c0,-1.50277 1.21823,-2.721 2.721,-2.721c1.50277,0 2.721,1.21823 2.721,2.721c0,1.50277 -1.21823,2.721 -2.721,2.721c-1.50277,0 -2.721,-1.21823 -2.721,-2.721z" fill="#dd2e44" stroke-width="1"/><path d="M229.0035,180.82533c-0.08813,0.03388 -0.17972,0.0539 -0.27162,0.06036z" data-paper-data="{&quot;origPos&quot;:null}" fill="#000000" stroke-width="0.5"/><path d="M255.50864,199.40302c0,1.105 -6.777,2 -15.137,2c-8.36,0 -15.137,-0.895 -15.137,-2c0,-0.728 2.956,-1.364 7.359,-1.713v-7.101c0,-2.592 3.889,-5.185 7.778,-5.185c3.889,0 7.778,2.592 7.778,5.185v7.101c4.403,0.349 7.359,0.985 7.359,1.713z" data-paper-data="{&quot;origPos&quot;:null}" fill="#949494" stroke-width="1"/><path d="M228.1961,181.4868v-3.71428h24.85715v3.71428z" data-paper-data="{&quot;origPos&quot;:null}" fill="#55acee" stroke-width="0"/><path d="M268.20601,177.13861l-5.0782,-0.93251l-2.54616,-0.46759c-0.06471,-0.01199 -0.12067,-0.04673 -0.15958,-0.09517c-0.03641,-0.04532 -0.05822,-0.1027 -0.05869,-0.16459c-0.00143,-0.12781 0.08801,-0.23833 0.21314,-0.26395l3.97852,-0.81388l-2.0168,-2.51025c-0.06982,-0.0869 -0.07786,-0.20803 -0.02096,-0.30369c0.0569,-0.09566 0.16762,-0.14562 0.27715,-0.12552l5.0782,0.9325l2.54617,0.46759c0.06471,0.01199 0.12066,0.04673 0.15958,0.09516c0.03641,0.04532 0.05823,0.10271 0.05869,0.16459c0.00143,0.12781 -0.088,0.23832 -0.21314,0.26395l-3.97853,0.81388l2.0168,2.51024c0.06982,0.0869 0.07823,0.20807 0.02133,0.30373c-0.05727,0.09561 -0.16783,0.14579 -0.27753,0.12548z" data-paper-data="{&quot;origPos&quot;:null,&quot;origRot&quot;:4.72491}" fill="#ffac33" stroke-width="1"/><path d="M211.01691,178.76313c-0.0569,-0.09566 -0.04848,-0.21683 0.02133,-0.30373l2.0168,-2.51024l-3.97853,-0.81388c-0.12514,-0.02562 -0.21457,-0.13613 -0.21314,-0.26395c0.00047,-0.06188 0.02228,-0.11927 0.05869,-0.16459c0.03891,-0.04844 0.09488,-0.08318 0.15958,-0.09516l2.54616,-0.46759l5.0782,-0.93251c0.10953,-0.02009 0.22025,0.02986 0.27715,0.12552c0.0569,0.09566 0.04886,0.21679 -0.02095,0.30369l-2.0168,2.51024l3.97853,0.81388c0.12514,0.02562 0.21457,0.13614 0.21314,0.26395c-0.00047,0.06188 -0.02228,0.11927 -0.05869,0.16459c-0.03891,0.04844 -0.09488,0.08318 -0.15958,0.09516l-2.54617,0.46759l-5.0782,0.93251c-0.1097,0.02031 -0.22025,-0.02987 -0.27753,-0.12548z" data-paper-data="{&quot;origPos&quot;:null,&quot;origRot&quot;:4.72491,&quot;index&quot;:null}" fill="#ffac33" stroke-width="1"/><path d="M215.95094,187.83224c-0.10877,-0.0236 -0.19168,-0.11237 -0.20765,-0.22269l-0.46131,-3.18684l-3.30793,2.35557c-0.10406,0.07407 -0.24588,0.06415 -0.3384,-0.02404c-0.04495,-0.04253 -0.07206,-0.09762 -0.08039,-0.15515c-0.0089,-0.06149 0.00384,-0.12612 0.03918,-0.18162l1.3939,-2.18143l2.78012,-4.35071c0.05998,-0.09383 0.17201,-0.14076 0.28078,-0.11717c0.10877,0.0236 0.1919,0.11206 0.20788,0.22238l0.46131,3.18685l3.30792,-2.35557c0.10406,-0.07407 0.24589,-0.06415 0.33841,0.02404c0.04495,0.04253 0.07206,0.09762 0.08039,0.15515c0.0089,0.06149 -0.00384,0.12612 -0.03918,0.18162l-1.3939,2.18143l-2.78012,4.35071c-0.05994,0.09409 -0.17201,0.14076 -0.28101,0.11747z" data-paper-data="{&quot;origPos&quot;:null,&quot;origRot&quot;:4.72491,&quot;index&quot;:null}" fill="#ffac33" stroke-width="1"/><path d="M241.49351,189.5897v0.2619c0,0.14457 -0.11734,0.26191 -0.26191,0.26191h-0.44026c-0.04243,0.17927 -0.11301,0.34715 -0.20717,0.49945l0.31154,0.31154c0.10227,0.10227 0.10227,0.26819 0,0.37046l-0.18517,0.18516c-0.10227,0.10227 -0.26806,0.10227 -0.37033,0l-0.31154,-0.31153c-0.1523,0.09402 -0.32018,0.16474 -0.49932,0.20717v0.44026c0,0.14457 -0.11733,0.26191 -0.2619,0.26191h-0.26191c-0.14457,0 -0.2619,-0.11734 -0.2619,-0.26191v-0.44026c-0.17927,-0.04243 -0.34715,-0.11301 -0.49945,-0.20717l-0.31153,0.31153c-0.10227,0.10215 -0.26819,0.10215 -0.37033,0l-0.18517,-0.18516c-0.10227,-0.10227 -0.10228,-0.26832 -0.00013,-0.37046l0.31154,-0.31154c-0.09402,-0.1523 -0.16474,-0.32018 -0.20717,-0.49932h-0.44026c-0.14457,0 -0.2619,-0.11733 -0.2619,-0.2619v-0.26191c0,-0.14457 0.11733,-0.2619 0.2619,-0.2619h0.44026c0.04243,-0.17915 0.11302,-0.34702 0.20704,-0.49932l-0.31154,-0.31153c-0.10215,-0.10227 -0.10214,-0.26819 0.00014,-0.37046l0.1853,-0.18517c0.10215,-0.10227 0.26806,-0.10227 0.37033,0l0.31141,0.31153c0.1523,-0.09402 0.32018,-0.16473 0.49945,-0.20716v-0.44027c0,-0.14457 0.11734,-0.26191 0.26191,-0.26191h0.2619c0.14457,0 0.26191,0.11734 0.26191,0.26191v0.44027c0.17927,0.04243 0.34702,0.11301 0.49945,0.20703l0.31154,-0.31153c0.10227,-0.10227 0.26806,-0.10227 0.37033,0l0.18517,0.18516c0.10227,0.10227 0.10227,0.26819 0,0.37046l-0.31154,0.31154c0.09402,0.1523 0.16474,0.32018 0.20717,0.49945h0.44026c0.14457,0 0.26191,0.11733 0.26191,0.26178zM240.18399,189.72078c0,-0.57855 -0.46907,-1.04762 -1.04762,-1.04762c-0.57855,0 -1.04762,0.46907 -1.04762,1.04762c0,0.57855 0.46907,1.04762 1.04762,1.04762c0.57855,0 1.04762,-0.46907 1.04762,-1.04762z" data-paper-data="{&quot;origPos&quot;:null}" fill="#66757f" stroke-width="1"/><path d="M245.27911,192.89512l-0.07894,0.16298c-0.04357,0.08997 -0.15196,0.12762 -0.24192,0.08405l-0.27398,-0.1327c-0.08044,0.09877 -0.17496,0.18198 -0.27946,0.24838l0.09997,0.28777c0.03282,0.09447 -0.01719,0.19772 -0.11166,0.23054l-0.17105,0.05942c-0.09447,0.03282 -0.19764,-0.01714 -0.23046,-0.11162l-0.09997,-0.28777c-0.12312,0.01261 -0.24891,0.00601 -0.37318,-0.02158l-0.1327,0.27398c-0.04357,0.08997 -0.15196,0.12762 -0.24192,0.08405l-0.16298,-0.07894c-0.08997,-0.04357 -0.12762,-0.15196 -0.08405,-0.24193l0.1327,-0.27398c-0.09877,-0.08044 -0.18197,-0.17496 -0.24837,-0.27946l-0.28777,0.09997c-0.09444,0.03274 -0.19768,-0.01727 -0.23046,-0.11162l-0.05942,-0.17104c-0.03282,-0.09447 0.01722,-0.1978 0.11158,-0.23058l0.28777,-0.09997c-0.01261,-0.12312 -0.00601,-0.24891 0.02158,-0.37318l-0.27398,-0.1327c-0.08997,-0.04357 -0.12762,-0.15196 -0.08405,-0.24193l0.07894,-0.16298c0.04357,-0.08997 0.15196,-0.12762 0.24193,-0.08405l0.27398,0.1327c0.0804,-0.09869 0.17492,-0.18189 0.27934,-0.24833l-0.09998,-0.28777c-0.03274,-0.09444 0.01727,-0.19769 0.11174,-0.23051l0.17112,-0.05938c0.09439,-0.03286 0.19764,0.01715 0.23046,0.11162l0.09989,0.28773c0.12312,-0.01261 0.2489,-0.00601 0.37325,0.02162l0.1327,-0.27398c0.04357,-0.08997 0.15196,-0.12762 0.24193,-0.08405l0.16298,0.07894c0.08997,0.04357 0.12762,0.15196 0.08404,0.24193l-0.1327,0.27398c0.09877,0.08044 0.1819,0.17492 0.24842,0.27938l0.28777,-0.09997c0.09447,-0.03282 0.19764,0.01714 0.23046,0.11162l0.05942,0.17104c0.03282,0.09447 -0.01719,0.19773 -0.11166,0.23055l-0.28777,0.09997c0.01261,0.12312 0.00601,0.2489 -0.02162,0.37325l0.27398,0.1327c0.08997,0.04357 0.12762,0.15196 0.08408,0.24185zM244.42467,192.582c0.17438,-0.36004 0.02386,-0.79333 -0.33618,-0.96771c-0.36004,-0.17438 -0.79333,-0.02385 -0.96771,0.33619c-0.17438,0.36004 -0.02385,0.79332 0.33619,0.9677c0.36004,0.17438 0.79332,0.02385 0.9677,-0.33618z" data-paper-data="{&quot;origPos&quot;:null,&quot;origRot&quot;:0}" fill="#66757f" stroke-width="1"/><path d="M239.01991,194.40101l0.08899,0.21928c0.04912,0.12104 -0.00925,0.25915 -0.13029,0.30827l-0.36862,0.1496c0.02539,0.16452 0.02334,0.32906 -0.00374,0.48857l0.36669,0.15498c0.12038,0.05088 0.17676,0.18979 0.12588,0.31017l-0.09212,0.21795c-0.05088,0.12038 -0.18967,0.17671 -0.31006,0.12583l-0.36669,-0.15498c-0.09557,0.13047 -0.2121,0.24672 -0.34767,0.34312l0.14959,0.36861c0.04912,0.12104 -0.00925,0.25915 -0.13029,0.30827l-0.21928,0.08899c-0.12104,0.04912 -0.25915,-0.00924 -0.30828,-0.13029l-0.14959,-0.36861c-0.16452,0.02539 -0.32906,0.02333 -0.48856,-0.00375l-0.15498,0.36669c-0.05092,0.12028 -0.18983,0.17665 -0.31006,0.12583l-0.21795,-0.09212c-0.12038,-0.05088 -0.1768,-0.1899 -0.12599,-0.31013l0.15498,-0.36669c-0.13047,-0.09557 -0.24672,-0.2121 -0.34312,-0.34767l-0.36861,0.14959c-0.12104,0.04912 -0.25915,-0.00924 -0.30828,-0.13029l-0.08899,-0.21928c-0.04912,-0.12104 0.00925,-0.25916 0.13029,-0.30828l0.36861,-0.14959c-0.02534,-0.16441 -0.02329,-0.32895 0.00368,-0.48841l-0.36669,-0.15497c-0.12028,-0.05092 -0.17665,-0.18984 -0.12577,-0.31022l0.09222,-0.21799c0.05077,-0.12034 0.18968,-0.17671 0.31006,-0.12583l0.36658,0.15503c0.09557,-0.13047 0.2121,-0.24671 0.34778,-0.34316l-0.1496,-0.36862c-0.04912,-0.12104 0.00925,-0.25916 0.13029,-0.30828l0.21928,-0.08899c0.12104,-0.04912 0.25915,0.00925 0.30827,0.1303l0.1496,0.36862c0.16452,-0.02539 0.32895,-0.0233 0.48852,0.00363l0.15498,-0.36669c0.05088,-0.12038 0.18967,-0.17671 0.31006,-0.12583l0.21796,0.09211c0.12038,0.05088 0.17676,0.1898 0.12588,0.31018l-0.15498,0.36669c0.13047,0.09557 0.24671,0.2121 0.34316,0.34778l0.36862,-0.1496c0.12104,-0.04912 0.25915,0.00925 0.30823,0.13019zM237.96804,194.95572c-0.19658,-0.4844 -0.7487,-0.71775 -1.2331,-0.52117c-0.4844,0.19658 -0.71775,0.7487 -0.52116,1.2331c0.19658,0.4844 0.7487,0.71774 1.2331,0.52116c0.4844,-0.19658 0.71774,-0.7487 0.52116,-1.23309z" data-paper-data="{&quot;origPos&quot;:null,&quot;origRot&quot;:0}" fill="#66757f" stroke-width="1"/><path d="M247.30677,199.33243l-0.07245,0.17147c-0.03999,0.09465 -0.14926,0.13901 -0.24392,0.09902l-0.28824,-0.12178c-0.07737,0.10564 -0.17001,0.19603 -0.27379,0.2697l0.11779,0.29014c0.03867,0.09525 -0.00722,0.20387 -0.10247,0.24254l-0.17245,0.07001c-0.09525,0.03867 -0.20379,-0.00719 -0.24246,-0.10244l-0.11779,-0.29014c-0.12572,0.01943 -0.25519,0.01929 -0.38422,-0.00248l-0.12178,0.28824c-0.03999,0.09465 -0.14926,0.13901 -0.24392,0.09902l-0.17147,-0.07245c-0.09465,-0.03999 -0.13902,-0.14927 -0.09903,-0.24392l0.12178,-0.28824c-0.10564,-0.07737 -0.19602,-0.17002 -0.26969,-0.27379l-0.29014,0.11779c-0.09522,0.03858 -0.20384,-0.00731 -0.24246,-0.10244l-0.07001,-0.17245c-0.03867,-0.09525 0.00726,-0.20396 0.10239,-0.24258l0.29014,-0.11779c-0.01943,-0.12572 -0.01929,-0.25519 0.00248,-0.38422l-0.28824,-0.12178c-0.09465,-0.03999 -0.13902,-0.14927 -0.09903,-0.24392l0.07245,-0.17147c0.03999,-0.09465 0.14927,-0.13902 0.24393,-0.09903l0.28824,0.12178c0.07733,-0.10555 0.16998,-0.19593 0.27367,-0.26964l-0.11779,-0.29013c-0.03858,-0.09522 0.00731,-0.20384 0.10256,-0.24251l0.17253,-0.06998c0.09517,-0.03871 0.20379,0.00719 0.24246,0.10244l0.1177,0.29011c0.12572,-0.01943 0.25519,-0.01929 0.3843,0.00252l0.12178,-0.28824c0.03999,-0.09465 0.14927,-0.13902 0.24392,-0.09903l0.17147,0.07245c0.09465,0.03999 0.13901,0.14927 0.09902,0.24392l-0.12178,0.28824c0.10564,0.07737 0.19594,0.16998 0.26973,0.2737l0.29014,-0.11779c0.09525,-0.03867 0.20379,0.00719 0.24246,0.10244l0.07001,0.17245c0.03867,0.09525 -0.00722,0.20388 -0.10248,0.24255l-0.29014,0.11778c0.01943,0.12572 0.01928,0.25519 -0.00253,0.3843l0.28824,0.12178c0.09465,0.03999 0.13901,0.14927 0.09906,0.24384zM246.41316,199.05602c0.16004,-0.37878 -0.01731,-0.81563 -0.3961,-0.97567c-0.37878,-0.16004 -0.81564,0.01731 -0.97567,0.3961c-0.16004,0.37878 0.01732,0.81564 0.3961,0.97567c0.37878,0.16004 0.81563,-0.01732 0.97567,-0.3961z" data-paper-data="{&quot;origPos&quot;:null,&quot;origRot&quot;:0}" fill="#66757f" stroke-width="1"/><path d="M241.21259,199.02928l-0.00695,0.14445c-0.00384,0.07974 -0.07166,0.14133 -0.1514,0.13749l-0.24281,-0.01169c-0.02816,0.09775 -0.07154,0.18846 -0.12752,0.26996l0.16354,0.18009c0.05369,0.05912 0.04929,0.15062 -0.00984,0.20432l-0.10704,0.09721c-0.05912,0.05369 -0.15055,0.04929 -0.20424,-0.00984l-0.16355,-0.18009c-0.08649,0.04781 -0.18096,0.08236 -0.28089,0.101l-0.01169,0.24281c-0.00384,0.07974 -0.07166,0.14133 -0.1514,0.13749l-0.14445,-0.00695c-0.07974,-0.00384 -0.14133,-0.07166 -0.13749,-0.1514l0.01169,-0.24281c-0.09775,-0.02816 -0.18846,-0.07155 -0.26996,-0.12752l-0.18009,0.16355c-0.05912,0.05362 -0.15062,0.04921 -0.20424,-0.00983l-0.09721,-0.10704c-0.05369,-0.05912 -0.04929,-0.15069 0.00976,-0.20432l0.18009,-0.16355c-0.04781,-0.08649 -0.08236,-0.18096 -0.101,-0.28089l-0.24281,-0.01169c-0.07974,-0.00384 -0.14133,-0.07166 -0.13749,-0.1514l0.00695,-0.14445c0.00384,-0.07974 0.07167,-0.14133 0.1514,-0.1375l0.24281,0.01169c0.02816,-0.09768 0.07155,-0.18839 0.12745,-0.26989l-0.16355,-0.18008c-0.05362,-0.05912 -0.04921,-0.15063 0.00991,-0.20432l0.10711,-0.0972c0.05905,-0.0537 0.15055,-0.04929 0.20424,0.00983l0.16347,0.18009c0.08649,-0.04781 0.18096,-0.08235 0.28096,-0.10099l0.01169,-0.24281c0.00384,-0.07974 0.07167,-0.14133 0.1514,-0.1375l0.14445,0.00695c0.07974,0.00384 0.14133,0.07167 0.13749,0.1514l-0.01169,0.24281c0.09775,0.02816 0.18839,0.07154 0.26996,0.12745l0.18009,-0.16355c0.05912,-0.05369 0.15055,-0.04929 0.20424,0.00983l0.09721,0.10704c0.05369,0.05912 0.04928,0.15063 -0.00984,0.20432l-0.18009,0.16354c0.04781,0.08649 0.08235,0.18096 0.10099,0.28096l0.24281,0.01169c0.07974,0.00384 0.14133,0.07167 0.1375,0.15133zM240.48688,199.0668c0.01536,-0.31908 -0.23088,-0.59024 -0.54996,-0.6056c-0.31908,-0.01536 -0.59024,0.23088 -0.60561,0.54997c-0.01536,0.31908 0.23089,0.59024 0.54997,0.6056c0.31908,0.01536 0.59024,-0.23088 0.6056,-0.54996z" data-paper-data="{&quot;origPos&quot;:null,&quot;origRot&quot;:0}" fill="#66757f" stroke-width="1"/></g></g></svg>