<svg version="1.1" xmlns="http://www.w3.org/2000/svg" xmlns:xlink="http://www.w3.org/1999/xlink" width="34" height="35.9809"><g transform="translate(-223,-162.018)"><g data-paper-data="{&quot;isPaintingLayer&quot;:true}" fill="none" fill-rule="nonzero" stroke="none" stroke-width="none" stroke-linecap="butt" stroke-linejoin="miter" stroke-miterlimit="10" stroke-dasharray="" stroke-dashoffset="0" font-family="none" font-weight="none" font-size="none" text-anchor="none" style="mix-blend-mode: normal"><path d="M223,179.018c0,-9.38884 7.61116,-17 17,-17c9.38884,0 17,7.61116 17,17c0,9.38884 -7.61116,17 -17,17c-9.38884,0 -17,-7.61116 -17,-17z" fill="#ffcb4c" stroke-width="1"/><path d="M232.994,173.174c0,-1.46687 0.95139,-2.656 2.125,-2.656c1.17361,0 2.125,1.18913 2.125,2.656c0,1.46687 -0.95139,2.656 -2.125,2.656c-1.17361,0 -2.125,-1.18913 -2.125,-2.656z" fill="#65471b" stroke-width="1"/><path d="M244.25,174.236c0,-1.46687 0.95139,-2.656 2.125,-2.656c1.17361,0 2.125,1.18913 2.125,2.656c0,1.46687 -0.95139,2.656 -2.125,2.656c-1.17361,0 -2.125,-1.18913 -2.125,-2.656z" fill="#65471b" stroke-width="1"/><path d="M236.82423,193.73362c-0.96219,-0.15617 -1.6156,-1.06278 -1.45943,-2.02497c0.15617,-0.96219 1.06278,-1.6156 2.02497,-1.45943c0.96219,0.15617 1.6156,1.06278 1.45943,2.02497c-0.15617,0.96219 -1.06278,1.6156 -2.02497,1.45943z" data-paper-data="{&quot;origPos&quot;:null}" fill="#5d8f3f" stroke-width="1"/><path d="M231.296,168.351c-0.164,-0.088 -0.303,-0.224 -0.391,-0.399c-0.216,-0.428 -0.04,-0.927 0.393,-1.112c4.266,-1.831 7.699,-0.043 7.843,0.034c0.433,0.231 0.608,0.747 0.391,1.154c-0.216,0.405 -0.74,0.546 -1.173,0.318c-0.123,-0.063 -2.832,-1.432 -6.278,0.047c-0.257,0.109 -0.547,0.085 -0.785,-0.042zM243.431,172.101c-0.156,-0.098 -0.286,-0.243 -0.362,-0.424c-0.187,-0.442 0.023,-0.927 0.468,-1.084c4.381,-1.536 7.685,0.48 7.823,0.567c0.415,0.26 0.555,0.787 0.312,1.178c-0.242,0.39 -0.776,0.495 -1.191,0.238c-0.12,-0.072 -2.727,-1.621 -6.267,-0.379c-0.266,0.091 -0.553,0.046 -0.783,-0.096z" fill="#65471b" stroke-width="1"/><g data-paper-data="{&quot;origPos&quot;:null}"><path d="M232.05432,187.8005c-0.625,0.121 -1.841,0 -1.841,-1.841c0,-3.682 4.23,-8.284 10.125,-8.284c5.895,0 10.125,4.602 10.125,8.284c0,1.841 -1.216,1.961 -1.841,1.841c-2.737,-0.532 -4.949,-0.92 -8.284,-0.92c-3.335,0 -5.548,0.388 -8.284,0.92z" data-paper-data="{&quot;origPos&quot;:null}" fill="#65471b" stroke-width="0.5"/><path d="M255.40932,193.7445c0,1.105 -6.777,2 -15.137,2c-8.36,0 -15.137,-0.895 -15.137,-2c0,-0.728 2.956,-1.364 7.359,-1.713v-7.101c0,-2.592 3.889,-5.185 7.778,-5.185c3.889,0 7.778,2.592 7.778,5.185v7.101c4.403,0.349 7.359,0.985 7.359,1.713z" data-paper-data="{&quot;origPos&quot;:null}" fill="#77af57" stroke-width="1"/><path d="M236.97832,182.9725c0,-0.68207 0.55293,-1.235 1.235,-1.235c0.68207,0 1.235,0.55293 1.235,1.235c0,0.68207 -0.55293,1.235 -1.235,1.235c-0.68207,0 -1.235,-0.55293 -1.235,-1.235z" data-paper-data="{&quot;origPos&quot;:null}" fill="#5d8f3f" stroke-width="1"/><path d="M241.80132,185.3845c0,-0.68207 0.55293,-1.235 1.235,-1.235c0.68207,0 1.235,0.55293 1.235,1.235c0,0.68207 -0.55293,1.235 -1.235,1.235c-0.68207,0 -1.235,-0.55293 -1.235,-1.235z" data-paper-data="{&quot;origPos&quot;:null}" fill="#5d8f3f" stroke-width="1"/><path d="M243.37345,191.47771c-0.67326,-0.10927 -1.13046,-0.74364 -1.02119,-1.41691c0.10927,-0.67326 0.74364,-1.13046 1.41691,-1.02119c0.67326,0.10927 1.13046,0.74364 1.02119,1.41691c-0.10927,0.67326 -0.74364,1.13046 -1.41691,1.02119z" data-paper-data="{&quot;origPos&quot;:null}" fill="#5d8f3f" stroke-width="1"/><path d="M237.16255,194.0347c-0.96219,-0.15617 -1.6156,-1.06278 -1.45943,-2.02497c0.15617,-0.96219 1.06278,-1.6156 2.02497,-1.45943c0.96219,0.15617 1.6156,1.06278 1.45943,2.02497c-0.15617,0.96219 -1.06278,1.6156 -2.02497,1.45943z" data-paper-data="{&quot;origPos&quot;:null}" fill="#5d8f3f" stroke-width="1"/></g><path d="M236.124,197.83c-3.575,0.828 -7.124,-1.473 -7.952,-5.048c-0.758,-3.278 0.381,-4.816 2.83,-6.973c1.041,-0.918 1.437,-2.439 0.833,-4.293c-0.403,-1.24 0.405,-1.951 1.542,-1.561c0.729,0.25 1.36,0.978 1.734,1.899c0.201,0.496 0.552,1.774 0.433,2.809c-0.113,0.984 -0.438,1.577 -0.946,2.113c-0.381,0.402 -0.136,0.639 0.404,0.512l1.439,-0.334c2.156,-0.502 8.406,-1.953 8.9,-2.068c0.493,-0.115 1.448,-0.077 1.697,1.003c0.251,1.079 -0.553,1.574 -1.069,1.694c-0.518,0.12 -5.556,1.341 -5.556,1.341c0,0 1.033,0.469 0.995,1.428c-0.046,1.139 -1.016,1.539 -1.016,1.539c0,0 0.984,0.262 0.861,1.363c-0.131,1.168 -1.172,1.376 -1.172,1.376c0,0 0.797,0.195 0.624,1.167c-0.164,0.941 -1.429,1.352 -1.429,1.352z" data-paper-data="{&quot;origPos&quot;:null}" fill="#f19020" stroke-width="1"/></g></g></svg>