<svg version="1.1" xmlns="http://www.w3.org/2000/svg" xmlns:xlink="http://www.w3.org/1999/xlink" width="35.89927" height="37.58901" viewBox="0,0,35.89927,37.58901"><g transform="translate(-222.05036,-163)"><g data-paper-data="{&quot;isPaintingLayer&quot;:true}" fill="none" fill-rule="nonzero" stroke="none" stroke-width="none" stroke-linecap="butt" stroke-linejoin="miter" stroke-miterlimit="10" stroke-dasharray="" stroke-dashoffset="0" font-family="none" font-weight="none" font-size="none" text-anchor="none" style="mix-blend-mode: normal"><path d="M255,183c0,0.14799 -0.00214,0.29548 -0.0064,0.44244c-0.394,0.71478 -0.61819,1.5363 -0.61819,2.41019c0,0.36119 0.0383,0.71344 0.11106,1.0529c-1.71871,6.3904 -7.55345,11.09448 -14.48647,11.09448c-8.284,0 -15,-6.716 -15,-15c0,-8.284 6.716,-15 15,-15c8.284,0 15,6.716 15,15" fill="#ffcc4d" stroke-width="1"/><path d="M257.558,170.304c-2.279,4.517 -7.789,7.696 -17.558,7.696c-9.77,0 -15.28,-3.179 -17.558,-7.696c-1.442,-2.86 1.405,-4.78 3.558,-2.174c1.19,1.44 3.182,1.951 5.076,2.121c0.318,-1.538 1.683,-7.251 4.424,-7.251c2.403,0 3.269,1.091 4.5,1.091c1.231,0 2.097,-1.091 4.5,-1.091c2.741,0 4.106,5.713 4.424,7.251c1.894,-0.17 3.886,-0.68 5.076,-2.121c2.153,-2.606 5,-0.686 3.558,2.174z" data-paper-data="{&quot;origPos&quot;:null}" fill="#664500" stroke-width="0.5"/><path d="M247,171.75c0,0 -1.281,2.25 -7,2.25c-5.718,0 -7,-2.25 -7,-2.25c0,0 1.037,-6.75 3.5,-6.75c1.869,0 2.543,0.964 3.5,0.964c0.957,0 1.631,-0.964 3.5,-0.964c2.463,0 3.5,6.75 3.5,6.75z" fill="#825d0e" stroke-width="1"/><path d="M233,168c0,0 2.074,2 7,2c4.927,0 7,-2 7,-2v2c0,0 -2.222,2 -7,2c-4.778,0 -7,-2 -7,-2z" fill="#664500" stroke-width="1"/><g data-paper-data="{&quot;origPos&quot;:null}"><path d="M232.64536,193.38734c-0.5666,0.10969 -1.66897,0 -1.66897,-1.66897c0,-3.33793 3.83472,-7.50989 9.17885,-7.50989c5.34413,0 9.17885,4.17196 9.17885,7.50989c0,1.66897 -1.10237,1.77775 -1.66897,1.66897c-2.48124,-0.48229 -4.48653,-0.83403 -7.50989,-0.83403c-3.02336,0 -5.02956,0.35174 -7.50989,0.83403z" data-paper-data="{&quot;origPos&quot;:null}" fill="#65471b" stroke-width="0.5"/><path d="M253.81792,198.7759c0,1.00174 -6.14371,1.81311 -13.7225,1.81311c-7.57879,0 -13.7225,-0.81137 -13.7225,-1.81311c0,-0.65997 2.67977,-1.23654 6.67133,-1.55293v-6.43744c0,-2.34979 3.52559,-4.70048 7.05117,-4.70048c3.52559,0 7.05117,2.34979 7.05117,4.70048v6.43744c3.99156,0.31639 6.67133,0.89296 6.67133,1.55293z" data-paper-data="{&quot;origPos&quot;:null}" fill="#77af57" stroke-width="1"/><path d="M237.10923,189.0105c0,-0.61833 0.50126,-1.11959 1.11959,-1.11959c0.61833,0 1.11959,0.50126 1.11959,1.11959c0,0.61833 -0.50126,1.11959 -1.11959,1.11959c-0.61833,0 -1.11959,-0.50126 -1.11959,-1.11959z" data-paper-data="{&quot;origPos&quot;:null}" fill="#5d8f3f" stroke-width="1"/><path d="M241.48154,191.19711c0,-0.61833 0.50126,-1.11959 1.11959,-1.11959c0.61833,0 1.11959,0.50126 1.11959,1.11959c0,0.61833 -0.50126,1.11959 -1.11959,1.11959c-0.61833,0 -1.11959,-0.50126 -1.11959,-1.11959z" data-paper-data="{&quot;origPos&quot;:null}" fill="#5d8f3f" stroke-width="1"/><path d="M242.90676,196.72093c-0.61035,-0.09906 -1.02482,-0.67415 -0.92576,-1.2845c0.09906,-0.61035 0.67415,-1.02482 1.2845,-0.92576c0.61035,0.09906 1.02482,0.67415 0.92576,1.2845c-0.09906,0.61035 -0.67415,1.02482 -1.2845,0.92576z" data-paper-data="{&quot;origPos&quot;:null}" fill="#5d8f3f" stroke-width="1"/><path d="M237.27625,199.03898c-0.87228,-0.14158 -1.46463,-0.96347 -1.32305,-1.83574c0.14158,-0.87228 0.96347,-1.46463 1.83574,-1.32305c0.87228,0.14158 1.46463,0.96347 1.32305,1.83574c-0.14158,0.87228 -0.96347,1.46463 -1.83574,1.32305z" data-paper-data="{&quot;origPos&quot;:null}" fill="#5d8f3f" stroke-width="1"/></g><path d="M252.54026,185.01262c-0.185,0.247 -0.469,0.378 -0.757,0.378c-0.196,0 -0.394,-0.061 -0.564,-0.187c-0.036,-0.027 -3.6,-2.645 -7.935,-2.645c-0.381,0 -0.726,-0.23 -0.872,-0.583c-0.146,-0.353 -0.065,-0.759 0.205,-1.029c3.075,-3.074 8.015,-3.11 8.223,-3.11c0.522,0 0.943,0.422 0.944,0.943c0.001,0.521 -0.422,0.945 -0.942,0.946c-0.026,0 -1.472,0.014 -3.175,0.506c0.208,0.246 0.339,0.561 0.339,0.91c0,0.116 -0.018,0.228 -0.044,0.336c2.565,0.867 4.28,2.133 4.388,2.214c0.416,0.313 0.501,0.903 0.19,1.321z" data-paper-data="{&quot;origPos&quot;:null}" fill="#65471b" stroke-width="0.5"/><path d="M238.48726,181.97462c-0.146,0.353 -0.49,0.583 -0.872,0.583c-4.357,0 -7.898,2.618 -7.933,2.644c-0.17,0.127 -0.369,0.189 -0.566,0.189c-0.287,0 -0.571,-0.13 -0.756,-0.378c-0.313,-0.417 -0.228,-1.009 0.189,-1.322c0.108,-0.081 1.824,-1.347 4.389,-2.214c-0.026,-0.108 -0.044,-0.22 -0.044,-0.336c0,-0.348 0.131,-0.663 0.339,-0.91c-1.702,-0.491 -3.149,-0.506 -3.174,-0.506c-0.521,-0.002 -0.943,-0.425 -0.942,-0.946c0.001,-0.521 0.423,-0.943 0.944,-0.943c0.209,0 5.149,0.035 8.223,3.11c0.271,0.271 0.351,0.676 0.203,1.029z" data-paper-data="{&quot;origPos&quot;:null}" fill="#65471b" stroke-width="0.5"/></g></g></svg>