<svg version="1.1" xmlns="http://www.w3.org/2000/svg" xmlns:xlink="http://www.w3.org/1999/xlink" width="47.1163" height="42.64337"><g transform="translate(-222.00025,-162.00025)"><g data-paper-data="{&quot;isPaintingLayer&quot;:true}" fill="none" fill-rule="nonzero" stroke="none" stroke-width="none" stroke-linecap="butt" stroke-linejoin="miter" stroke-miterlimit="10" stroke-dasharray="" stroke-dashoffset="0" font-family="none" font-weight="none" font-size="none" text-anchor="none" style="mix-blend-mode: normal"><path d="M252.728,167.272c7.029,7.029 7.029,18.427 0,25.456c-7.029,7.029 -18.426,7.029 -25.456,0c-7.029,-7.029 -7.029,-18.427 0,-25.456c7.029,-7.029 18.426,-7.029 25.456,0" fill="#ffcb4c" stroke-width="1"/><path d="M269.11655,198.33503c0,3.48414 -7.09733,6.30859 -15.85235,6.30859c-8.75501,0 -15.85234,-2.82445 -15.85234,-6.30859c0,-3.48414 7.09733,-6.30858 15.85234,-6.30858c8.75501,0 15.85235,2.82445 15.85235,6.30858z" data-paper-data="{&quot;origPos&quot;:null}" fill="#77af57" stroke-width="0"/><path d="M245.87822,186.21199c-3.4023,2.42379 -5.3763,4.42826 -7.7811,6.96128c-0.5504,0.57706 -1.87824,1.33731 -3.21722,-0.5412c-2.6756,-3.75577 -1.70494,-11.5257 4.30898,-15.81c6.01489,-4.28499 13.67491,-2.665 16.35106,1.0926c1.33898,1.87851 0.18567,2.88582 -0.5394,3.21667c-3.1787,1.44465 -5.71903,2.65617 -9.12231,5.08066z" data-paper-data="{&quot;origPos&quot;:null,&quot;index&quot;:null,&quot;origRot&quot;:0}" fill="#65471b" stroke-width="1"/><path d="M247.431,169.502c0.046,0.324 -0.069,0.635 -0.284,0.85c-0.147,0.147 -0.341,0.25 -0.563,0.282c-0.047,0.007 -4.676,0.715 -7.921,3.96c-0.286,0.286 -0.717,0.372 -1.09,0.217c-0.374,-0.155 -0.617,-0.519 -0.617,-0.924c0,-4.604 3.672,-8.329 3.828,-8.485c0.39,-0.39 1.021,-0.389 1.412,0c0.391,0.389 0.391,1.023 0.003,1.413c-0.02,0.019 -1.091,1.113 -1.998,2.756c0.341,0.028 0.675,0.166 0.936,0.427c0.087,0.087 0.157,0.184 0.219,0.285c2.57,-1.271 4.802,-1.608 4.943,-1.628c0.546,-0.078 1.051,0.3 1.132,0.847zM234.636,177.748c0.154,0.374 0.069,0.804 -0.217,1.09c-3.262,3.262 -3.953,7.873 -3.96,7.919c-0.032,0.223 -0.135,0.418 -0.282,0.565c-0.215,0.215 -0.524,0.33 -0.849,0.283c-0.546,-0.078 -0.926,-0.584 -0.848,-1.131c0.02,-0.141 0.357,-2.374 1.629,-4.943c-0.101,-0.062 -0.198,-0.132 -0.285,-0.219c-0.261,-0.261 -0.398,-0.595 -0.427,-0.936c-1.643,0.906 -2.737,1.978 -2.756,1.997c-0.392,0.389 -1.025,0.388 -1.414,-0.003c-0.39,-0.39 -0.39,-1.022 0,-1.412c0.156,-0.156 3.881,-3.828 8.485,-3.828c0.405,0 0.769,0.243 0.924,0.618z" fill="#65471b" stroke-width="1"/><path d="M252.101,174.055c2.741,0.334 5.234,-1.618 5.567,-4.36c0.334,-2.741 -1.617,-5.234 -4.359,-5.568c-2.741,-0.333 -10.409,2.763 -10.53,3.756c-0.121,0.992 6.581,5.837 9.322,6.172zM234.157,191.999c0.334,2.741 -1.618,5.234 -4.36,5.567c-2.741,0.334 -5.234,-1.617 -5.568,-4.359c-0.334,-2.742 2.763,-10.41 3.756,-10.531c0.992,-0.12 5.837,6.582 6.172,9.323z" fill="#64aadd" stroke-width="1"/><path d="M246.57435,200.67634l-7.8527,-8.1506c-2.86363,-3.41158 -2.32661,-10.21364 1.07514,-13.60282c3.40175,-3.38918 9.66714,-3.36677 12.53187,0.04611l15.30231,19.91407c4.23692,-3.37777 -24.5224,6.0897 -21.05662,1.79323z" data-paper-data="{&quot;origPos&quot;:null,&quot;origRot&quot;:0}" fill="#77af57" stroke-width="1"/><path d="M239.74208,184.29876c-0.65248,-0.67461 -0.63452,-1.75044 0.0401,-2.40292c0.67461,-0.65248 1.75044,-0.63452 2.40291,0.04009c0.65248,0.67461 0.63452,1.75044 -0.04009,2.40292c-0.67461,0.65248 -1.75044,0.63452 -2.40292,-0.0401z" data-paper-data="{&quot;origPos&quot;:null,&quot;origRot&quot;:0}" fill="#5d8f3f" stroke-width="1"/><path d="M246.81972,182.07068c-0.65248,-0.67461 -0.63452,-1.75043 0.04009,-2.40291c0.67461,-0.65248 1.75044,-0.63452 2.40292,0.04009c0.65248,0.67461 0.63452,1.75044 -0.0401,2.40292c-0.67461,0.65248 -1.75043,0.63451 -2.40291,-0.0401z" data-paper-data="{&quot;origPos&quot;:null,&quot;origRot&quot;:0}" fill="#5d8f3f" stroke-width="1"/><path d="M254.20348,186.5934c-0.77043,0.53597 -1.82948,0.34589 -2.36545,-0.42455c-0.53597,-0.77043 -0.3459,-1.82948 0.42454,-2.36545c0.77043,-0.53597 1.82948,-0.3459 2.36546,0.42454c0.53597,0.77043 0.34589,1.82949 -0.42455,2.36547z" data-paper-data="{&quot;origPos&quot;:null,&quot;origRot&quot;:0}" fill="#5d8f3f" stroke-width="1"/><path d="M250.50649,195.06384c-1.10107,0.76597 -2.61461,0.49433 -3.38058,-0.60674c-0.76597,-1.10107 -0.49434,-2.61461 0.60673,-3.38058c1.10107,-0.76597 2.61462,-0.49434 3.38059,0.60673c0.76597,1.10107 0.49433,2.61461 -0.60674,3.38059z" data-paper-data="{&quot;origPos&quot;:null,&quot;origRot&quot;:0}" fill="#5d8f3f" stroke-width="1"/><path d="M252.08603,201.19643c-0.65248,-0.67461 -0.63452,-1.75044 0.04009,-2.40292c0.67461,-0.65248 1.75044,-0.63452 2.40292,0.04009c0.65248,0.67461 0.63452,1.75044 -0.04009,2.40292c-0.67461,0.65248 -1.75044,0.63452 -2.40292,-0.04009z" data-paper-data="{&quot;origPos&quot;:null,&quot;origRot&quot;:0}" fill="#5d8f3f" stroke-width="1"/><path d="M263.10319,200.36854c-0.77043,0.53597 -1.82948,0.34589 -2.36545,-0.42455c-0.53597,-0.77043 -0.3459,-1.82948 0.42455,-2.36545c0.77043,-0.53597 1.82948,-0.3459 2.36546,0.42454c0.53597,0.77043 0.34589,1.82949 -0.42455,2.36547z" data-paper-data="{&quot;origPos&quot;:null,&quot;origRot&quot;:0}" fill="#5d8f3f" stroke-width="1"/><path d="M242.63922,198.68076c-0.65248,-0.67461 -0.63452,-1.75044 0.0401,-2.40292c0.67461,-0.65248 1.75044,-0.63452 2.40291,0.04009c0.65248,0.67461 0.63452,1.75044 -0.04009,2.40292c-0.67461,0.65248 -1.75044,0.63452 -2.40292,-0.0401z" data-paper-data="{&quot;origPos&quot;:null,&quot;origRot&quot;:0}" fill="#5d8f3f" stroke-width="1"/></g></g></svg>