<svg version="1.1" xmlns="http://www.w3.org/2000/svg" xmlns:xlink="http://www.w3.org/1999/xlink" width="36" height="38.82207"><g transform="translate(-222,-162)"><g data-paper-data="{&quot;isPaintingLayer&quot;:true}" fill="none" fill-rule="nonzero" stroke="none" stroke-width="none" stroke-linecap="butt" stroke-linejoin="miter" stroke-miterlimit="10" stroke-dasharray="" stroke-dashoffset="0" font-family="none" font-weight="none" font-size="none" text-anchor="none" style="mix-blend-mode: normal"><path d="M258,180c0,9.941 -8.059,18 -18,18c-9.94,0 -18,-8.059 -18,-18c0,-9.94 8.06,-18 18,-18c9.941,0 18,8.06 18,18" fill="#da2f47" stroke-width="1"/><path d="M255.55958,198.82207c0,1.105 -6.777,2 -15.137,2c-8.36,0 -15.137,-0.895 -15.137,-2c0,-0.728 2.956,-1.364 7.359,-1.713v-7.101c0,-2.592 3.889,-5.185 7.778,-5.185c3.889,0 7.778,2.592 7.778,5.185v7.101c4.403,0.349 7.359,0.985 7.359,1.713z" data-paper-data="{&quot;origPos&quot;:null}" fill="#77af57" stroke-width="1"/><path d="M237.12858,188.05007c0,-0.68207 0.55293,-1.235 1.235,-1.235c0.68207,0 1.235,0.55293 1.235,1.235c0,0.68207 -0.55293,1.235 -1.235,1.235c-0.68207,0 -1.235,-0.55293 -1.235,-1.235z" data-paper-data="{&quot;origPos&quot;:null}" fill="#5d8f3f" stroke-width="1"/><path d="M241.95158,190.46207c0,-0.68207 0.55293,-1.235 1.235,-1.235c0.68207,0 1.235,0.55293 1.235,1.235c0,0.68207 -0.55293,1.235 -1.235,1.235c-0.68207,0 -1.235,-0.55293 -1.235,-1.235z" data-paper-data="{&quot;origPos&quot;:null}" fill="#5d8f3f" stroke-width="1"/><path d="M243.52371,196.55528c-0.67326,-0.10927 -1.13047,-0.74365 -1.02119,-1.41691c0.10927,-0.67326 0.74365,-1.13047 1.41691,-1.0212c0.67326,0.10927 1.13046,0.74365 1.02119,1.41691c-0.10927,0.67326 -0.74364,1.13047 -1.4169,1.02119z" data-paper-data="{&quot;origPos&quot;:null}" fill="#5d8f3f" stroke-width="1"/><path d="M237.31281,199.11227c-0.96219,-0.15617 -1.6156,-1.06278 -1.45943,-2.02497c0.15617,-0.96219 1.06278,-1.6156 2.02497,-1.45943c0.96219,0.15617 1.6156,1.06278 1.45943,2.02497c-0.15617,0.96219 -1.06278,1.6156 -2.02497,1.45943z" data-paper-data="{&quot;origPos&quot;:null}" fill="#5d8f3f" stroke-width="1"/><path d="M251.739,195h-23.478c-1.244,0 -2.261,-1.017 -2.261,-2.261v-5.739c0,-1.244 1.017,-2.261 2.261,-2.261h23.478c1.244,0 2.261,1.017 2.261,2.261v5.739c0,1.244 -1.017,2.261 -2.261,2.261z" fill="#292f33" stroke-width="1"/><path d="M229.841,189.229h-0.818c-0.314,0 -0.457,-0.229 -0.457,-0.457c0,-0.228 0.143,-0.456 0.457,-0.456h0.95l0.209,-1.53c0.047,-0.342 0.19,-0.456 0.475,-0.456c0.228,0 0.438,0.151 0.438,0.38c0,0.143 0,0.076 -0.019,0.229l-0.19,1.378h0.913l0.209,-1.53c0.047,-0.342 0.19,-0.456 0.475,-0.456c0.228,0 0.438,0.151 0.438,0.38c0,0.143 0,0.076 -0.019,0.229l-0.191,1.378h0.818c0.314,0 0.456,0.229 0.456,0.456c0,0.228 -0.143,0.457 -0.456,0.457h-0.951l-0.152,1.083h0.818c0.314,0 0.456,0.229 0.456,0.457c0,0.228 -0.143,0.456 -0.456,0.456h-0.951l-0.209,1.53c-0.048,0.343 -0.191,0.456 -0.476,0.456c-0.228,0 -0.438,-0.151 -0.438,-0.38c0,-0.143 0,-0.076 0.019,-0.229l0.191,-1.378h-0.912l-0.209,1.53c-0.048,0.343 -0.19,0.456 -0.476,0.456c-0.228,0 -0.438,-0.151 -0.438,-0.38c0,-0.143 0,-0.076 0.019,-0.229l0.19,-1.378h-0.816c-0.313,0 -0.456,-0.229 -0.456,-0.456c0,-0.229 0.143,-0.457 0.456,-0.457h0.951zM230.611,190.312h0.903l0.152,-1.083h-0.903zM235.227,187.812c0,-0.827 0.618,-1.54 1.464,-1.54c0.846,0 1.464,0.713 1.464,1.54c0,0.827 -0.618,1.531 -1.464,1.531c-0.847,0.001 -1.464,-0.703 -1.464,-1.531zM237.185,187.812c0,-0.304 -0.181,-0.57 -0.494,-0.57c-0.314,0 -0.495,0.267 -0.495,0.57c0,0.305 0.181,0.562 0.495,0.562c0.313,0 0.494,-0.257 0.494,-0.562zM239.495,186.52c0.124,-0.237 0.219,-0.304 0.438,-0.304c0.295,0 0.561,0.237 0.561,0.532c0,0.076 0,0.143 -0.076,0.285l-3.194,5.979c-0.143,0.199 -0.2,0.313 -0.428,0.313c-0.247,0 -0.542,-0.237 -0.542,-0.522c0,-0.143 0.057,-0.275 0.095,-0.352zM238.573,191.739c0,-0.827 0.618,-1.54 1.464,-1.54c0.846,0 1.464,0.713 1.464,1.54c0,0.826 -0.618,1.53 -1.464,1.53c-0.847,0.001 -1.464,-0.704 -1.464,-1.53zM240.531,191.739c0,-0.305 -0.181,-0.57 -0.495,-0.57c-0.314,0 -0.495,0.266 -0.495,0.57c0,0.304 0.181,0.561 0.495,0.561c0.314,0 0.495,-0.257 0.495,-0.561zM243.017,192.528c0,-0.409 0.333,-0.742 0.741,-0.742c0.409,0 0.742,0.333 0.742,0.742c0,0.408 -0.333,0.741 -0.742,0.741c-0.408,0.001 -0.741,-0.332 -0.741,-0.741zM243.074,186.919c0,-0.399 0.294,-0.646 0.684,-0.646c0.381,0 0.685,0.257 0.685,0.646v3.66c0,0.39 -0.304,0.646 -0.685,0.646c-0.39,0 -0.684,-0.247 -0.684,-0.646zM251.152,193.326c-0.187,0 -0.304,-0.053 -0.431,-0.196l-0.724,-0.79l-0.072,0.066c-0.702,0.645 -1.308,0.919 -2.024,0.919c-1.109,0 -2.229,-0.632 -2.229,-2.044c0,-1.107 0.867,-1.769 1.384,-2.065l0.117,-0.067l-0.095,-0.098c-0.425,-0.445 -0.599,-0.813 -0.599,-1.269c0,-1.077 0.983,-1.567 1.896,-1.567c0.764,0 1.84,0.453 1.84,1.458c0,0.951 -0.883,1.501 -1.153,1.647l-0.115,0.062l1.161,1.341l0.444,-0.536c0.247,-0.297 0.391,-0.422 0.646,-0.422c0.205,0 0.424,0.184 0.424,0.523c0,0.254 -0.252,0.585 -0.499,0.875l-0.297,0.335l0.706,0.838c0.131,0.156 0.185,0.239 0.185,0.428c0.001,0.295 -0.269,0.562 -0.565,0.562zM247.705,189.852c-0.428,0.287 -0.864,0.665 -0.864,1.291c0,0.656 0.427,1.079 1.089,1.079c0.552,0 0.909,-0.242 1.275,-0.606l0.071,-0.069l-1.5,-1.743zM248.376,187.141c-0.28,0 -0.67,0.229 -0.67,0.602c0,0.348 0.171,0.56 0.534,0.929l0.051,0.052l0.063,-0.033c0.497,-0.26 0.749,-0.553 0.749,-0.869c0.001,-0.468 -0.376,-0.681 -0.727,-0.681z" fill="#ffffff" stroke-width="1"/><path d="M252.09,181.99756c-0.185,0.247 -0.469,0.378 -0.757,0.378c-0.196,0 -0.394,-0.061 -0.564,-0.187c-0.036,-0.027 -3.6,-2.645 -7.935,-2.645c-0.381,0 -0.726,-0.23 -0.872,-0.583c-0.146,-0.353 -0.065,-0.759 0.205,-1.029c3.075,-3.074 8.015,-3.11 8.223,-3.11c0.522,0 0.943,0.422 0.944,0.943c0.001,0.521 -0.422,0.945 -0.942,0.946c-0.026,0 -1.472,0.014 -3.175,0.506c0.208,0.246 0.339,0.561 0.339,0.91c0,0.116 -0.018,0.228 -0.044,0.336c2.565,0.867 4.28,2.133 4.388,2.214c0.416,0.313 0.501,0.903 0.19,1.321z" data-paper-data="{&quot;origPos&quot;:null}" fill="#292f33" stroke-width="0.5"/><path d="M238.037,178.95956c-0.146,0.353 -0.49,0.583 -0.872,0.583c-4.357,0 -7.898,2.618 -7.933,2.644c-0.17,0.127 -0.369,0.189 -0.566,0.189c-0.287,0 -0.571,-0.13 -0.756,-0.378c-0.313,-0.417 -0.228,-1.009 0.189,-1.322c0.108,-0.081 1.824,-1.347 4.389,-2.214c-0.026,-0.108 -0.044,-0.22 -0.044,-0.336c0,-0.348 0.131,-0.663 0.339,-0.91c-1.702,-0.491 -3.149,-0.506 -3.174,-0.506c-0.521,-0.002 -0.943,-0.425 -0.942,-0.946c0.001,-0.521 0.423,-0.943 0.944,-0.943c0.209,0 5.149,0.035 8.223,3.11c0.271,0.271 0.351,0.676 0.203,1.029z" data-paper-data="{&quot;origPos&quot;:null}" fill="#292f33" stroke-width="0.5"/></g></g></svg>