<svg version="1.1" xmlns="http://www.w3.org/2000/svg" xmlns:xlink="http://www.w3.org/1999/xlink" width="36.00008" height="39.22865"><defs><linearGradient x1="240.36981" y1="186.80557" x2="240.36981" y2="201.22865" gradientUnits="userSpaceOnUse" id="color-1"><stop offset="0" stop-color="#77af57"/><stop offset="1" stop-color="#8dcfd8"/></linearGradient><linearGradient x1="243.6688" y1="194.50762" x2="243.6688" y2="196.978" gradientUnits="userSpaceOnUse" id="color-2"><stop offset="0" stop-color="#5d8f3f"/><stop offset="1" stop-color="#6da6a8"/></linearGradient></defs><g transform="translate(-222,-162)"><g data-paper-data="{&quot;isPaintingLayer&quot;:true}" fill="none" fill-rule="nonzero" stroke="none" stroke-width="none" stroke-linecap="butt" stroke-linejoin="miter" stroke-miterlimit="10" stroke-dasharray="" stroke-dashoffset="0" font-family="none" font-weight="none" font-size="none" text-anchor="none" style="mix-blend-mode: normal"><path d="M222,180c0,-9.94112 8.05888,-18 18,-18c9.94113,0 18,8.05888 18,18c0,9.94113 -8.05887,18 -18,18c-9.94112,0 -18,-8.05887 -18,-18z" fill="#50a5e6" stroke-width="1"/><path d="M231.485,177.188c0,-1.933 1.11929,-3.5 2.5,-3.5c1.38071,0 2.5,1.567 2.5,3.5c0,1.933 -1.11929,3.5 -2.5,3.5c-1.38071,0 -2.5,-1.567 -2.5,-3.5z" fill="#1c6399" stroke-width="1"/><path d="M243.485,177.188c0,-1.933 1.11929,-3.5 2.5,-3.5c1.38071,0 2.5,1.567 2.5,3.5c0,1.933 -1.11929,3.5 -2.5,3.5c-1.38071,0 -2.5,-1.567 -2.5,-3.5z" fill="#1c6399" stroke-width="1"/><path d="M246.985,183.833c2.209,0 4,1.791 4,4c0,2.209 -1.791,4 -4,4h-14c-2.209,0 -4,-1.791 -4,-4c0,-2.209 1.791,-4 4,-4z" data-paper-data="{&quot;origPos&quot;:null}" fill="#ffffff" stroke-width="1"/><path d="M257.798,182.98c-0.08,0.485 -0.379,2.472 -0.479,2.979c-0.098,0.499 -0.637,2.576 -0.734,3.067c-0.102,0.515 -0.373,3.692 -0.465,4.156c-0.111,0.562 -0.133,0.92 -0.218,1.349c-0.183,0.928 -0.19,2.053 -0.599,2.053c-0.408,0 -0.648,-0.669 -0.832,-1.598c-0.085,-0.43 -0.189,-0.835 -0.3,-1.398c-0.092,-0.467 -0.228,-2.341 -0.333,-2.873c-0.095,-0.483 -0.502,-2.082 -0.602,-2.589c-0.099,-0.5 -0.417,-2.417 -0.497,-4.392c-0.023,-0.572 -0.196,-2.697 1.265,-3.152c3.706,-1.154 3.752,-3.839 3.752,-3.394c0,0.001 0.52,2.895 0.042,5.792zM222.702,188.497c0.076,0.303 0.11,0.64 0.19,0.987c0.073,0.315 0.403,1.627 0.479,1.958c0.075,0.326 0.424,2.599 0.496,2.913c0.08,0.345 0.13,0.674 0.2,0.976l0.225,0.977c0.14,0.606 0.321,1.484 0.693,1.484c0.372,0 0.654,-2.492 0.73,-2.823c0.076,-0.326 0.426,-2.969 0.562,-5.625c0.032,-0.62 0.034,-1.907 -0.776,-2.594c-0.81,-0.687 -1.35,-1.469 -2.04,-1.887c-0.535,-0.324 -1.148,-1.778 -1.148,-1.488c0,0.001 0.062,3.822 0.389,5.122z" fill="#bbddf5" stroke-width="1"/><path d="M227.986,173.375c-0.552,0 -1,-0.448 -1,-1c0,-0.551 0.445,-0.998 0.996,-1c0.156,-0.002 3.569,-0.086 6.205,-3.6c0.331,-0.44 0.957,-0.532 1.4,-0.2c0.442,0.331 0.531,0.958 0.2,1.4c-3.263,4.35 -7.617,4.4 -7.801,4.4zM251.986,173.375c-0.184,0 -4.537,-0.05 -7.8,-4.4c-0.332,-0.442 -0.242,-1.069 0.2,-1.4c0.441,-0.333 1.067,-0.242 1.399,0.2c2.641,3.521 6.062,3.599 6.206,3.6c0.55,0.006 0.994,0.456 0.991,1.005c-0.002,0.551 -0.446,0.995 -0.996,0.995z" fill="#1c6399" stroke-width="1"/><path d="M246.266,163.125c0,0 -0.991,-0.421 -1.317,-0.521c-0.287,-0.088 -1.193,-0.276 -1.753,-0.384c-0.625,-0.121 -1.294,-0.115 -1.294,-0.115c0,0 -0.03,0.402 0.114,1.025c0.116,0.502 0.404,1.198 0.458,1.559c0.059,0.391 0.068,0.855 0.141,1.348c0.064,0.426 0.128,0.88 0.197,1.342c0.067,0.446 0.182,0.894 0.249,1.341c0.07,0.464 0.102,0.925 0.167,1.353c0.074,0.496 -0.01,0.978 0.049,1.371c0.121,0.806 0.333,1.932 0.562,1.932c0.229,0 0.431,-1.019 0.552,-1.828c0.059,-0.391 -0.027,-0.695 0.047,-1.188c0.064,-0.426 0.118,-0.85 0.188,-1.312c0.067,-0.446 0.121,-0.882 0.188,-1.328c0.07,-0.464 0.061,-0.916 0.125,-1.344c0.074,-0.496 0.363,-1.107 0.422,-1.5c0.119,-0.806 0.905,-1.751 0.905,-1.751zM227.875,171.379c0,0 0.731,-0.164 1.427,-0.309c0.453,-0.094 0.812,-0.459 1.553,-0.729c0.771,-0.281 1.267,-0.524 1.267,-0.524c0,0 0.063,1.305 -0.109,1.956c-0.139,0.525 -0.212,1.203 -0.276,1.58c-0.07,0.408 -0.109,0.889 -0.197,1.404c-0.076,0.445 -0.216,0.91 -0.299,1.394c-0.08,0.467 -0.144,1.014 -0.224,1.481c-0.083,0.485 -0.105,0.902 -0.182,1.349c-0.089,0.518 -0.022,0.57 -0.093,0.98c-0.145,0.843 -0.165,0.727 -0.212,1.186c-0.047,0.459 -0.394,0.516 -0.544,0.18c-0.15,-0.336 0.009,-0.521 -0.136,-1.367c-0.07,-0.408 -0.327,-1.487 -0.41,-1.97c-0.08,-0.467 -0.188,-1.199 -0.268,-1.666c-0.083,-0.485 -0.104,-1.267 -0.181,-1.715c-0.089,-0.518 -0.225,-0.838 -0.295,-1.248c-0.145,-0.841 -0.821,-1.982 -0.821,-1.982z" fill="#bbddf5" stroke-width="1"/><path d="M251.985,187.812c0,2.757 -2.243,5 -5,5h-14c-2.757,0 -5,-2.243 -5,-5c0,-2.757 2.243,-5 5,-5h14c2.757,0 5,2.243 5,5zM246.485,184.812v2.5h3.449c-0.239,-1.416 -1.466,-2.5 -2.949,-2.5zM242.485,184.812v2.5h3v-2.5zM238.485,184.812v2.5h3v-2.5zM234.485,184.812v2.5h3v-2.5zM230.035,187.312h3.45v-2.5h-0.5c-1.483,0 -2.71,1.085 -2.95,2.5zM233.485,190.812v-2.5h-3.449c0.239,1.416 1.466,2.5 2.949,2.5zM237.485,190.812v-2.5h-3v2.5zM241.485,190.812v-2.5h-3v2.5zM245.485,190.812v-2.5h-3v2.5zM249.934,188.312h-3.449v2.5h0.5c1.483,0 2.71,-1.084 2.949,-2.5z" data-paper-data="{&quot;origPos&quot;:null}" fill="#1c6399" stroke-width="1"/><path d="M229.3204,188.77933v-2.47644h21.2749v2.47644z" data-paper-data="{&quot;origPos&quot;:null}" fill="#1c6399" stroke-width="0"/><path d="M255.50681,199.22865c0,1.105 -6.777,2 -15.137,2c-8.36,0 -15.137,-0.895 -15.137,-2c0,-0.728 2.956,-1.364 7.359,-1.713v-7.101c0,-2.592 3.889,-3.60908 7.778,-3.60908c3.889,0 7.778,1.01608 7.778,3.60908v7.101c4.403,0.349 7.359,0.985 7.359,1.713z" data-paper-data="{&quot;origPos&quot;:null}" fill="url(#color-1)" stroke-width="1"/><path d="M237.07581,189.13205c0,-0.68207 0.55293,-1.235 1.235,-1.235c0.68207,0 1.235,0.55293 1.235,1.235c0,0.68207 -0.55293,1.235 -1.235,1.235c-0.68207,0 -1.235,-0.55293 -1.235,-1.235z" data-paper-data="{&quot;origPos&quot;:null}" fill="#5d8f3f" stroke-width="1"/><path d="M241.89881,190.86865c0,-0.68207 0.55293,-1.235 1.235,-1.235c0.68207,0 1.235,0.55293 1.235,1.235c0,0.68207 -0.55293,1.235 -1.235,1.235c-0.68207,0 -1.235,-0.55293 -1.235,-1.235z" data-paper-data="{&quot;origPos&quot;:null}" fill="#5d8f3f" stroke-width="1"/><path d="M243.47094,196.96186c-0.67326,-0.10927 -1.13046,-0.74364 -1.02119,-1.41691c0.10927,-0.67326 0.74364,-1.13046 1.41691,-1.02119c0.67326,0.10927 1.13046,0.74364 1.02119,1.41691c-0.10927,0.67326 -0.74364,1.13046 -1.41691,1.02119z" data-paper-data="{&quot;origPos&quot;:null}" fill="url(#color-2)" stroke-width="1"/><path d="M237.26004,199.51885c-0.96219,-0.15617 -1.6156,-1.06278 -1.45943,-2.02497c0.15617,-0.96219 1.06278,-1.6156 2.02497,-1.45943c0.96219,0.15617 1.6156,1.06278 1.45943,2.02497c-0.15617,0.96219 -1.06278,1.6156 -2.02497,1.45943z" data-paper-data="{&quot;origPos&quot;:null}" fill="#6da6a8" stroke-width="1"/></g></g></svg>