<svg version="1.1" xmlns="http://www.w3.org/2000/svg" xmlns:xlink="http://www.w3.org/1999/xlink" width="40.20027" height="39.63629"><g transform="translate(-222,-162)"><g data-paper-data="{&quot;isPaintingLayer&quot;:true}" fill="none" fill-rule="nonzero" stroke="none" stroke-width="none" stroke-linecap="butt" stroke-linejoin="miter" stroke-miterlimit="10" stroke-dasharray="" stroke-dashoffset="0" font-family="none" font-weight="none" font-size="none" text-anchor="none" style="mix-blend-mode: normal"><path d="M222,181c0,-9.38884 7.61116,-17 17,-17c9.38884,0 17,7.61116 17,17c0,9.38884 -7.61116,17 -17,17c-9.38884,0 -17,-7.61116 -17,-17z" fill="#ffcc4d" stroke-width="1"/><path d="M237.999,188c0,-1.38071 0.89543,-2.5 2,-2.5c1.10457,0 2,1.11929 2,2.5c0,1.38071 -0.89543,2.5 -2,2.5c-1.10457,0 -2,-1.11929 -2,-2.5z" fill="#664500" stroke-width="1"/><path d="M223,195.5c0,-0.82843 0.67157,-1.5 1.5,-1.5c0.82843,0 1.5,0.67157 1.5,1.5c0,0.82843 -0.67157,1.5 -1.5,1.5c-0.82843,0 -1.5,-0.67157 -1.5,-1.5z" fill="#55acee" stroke-width="1"/><path d="M249,164c0,-1.10457 0.89543,-2 2,-2c1.10457,0 2,0.89543 2,2c0,1.10457 -0.89543,2 -2,2c-1.10457,0 -2,-0.89543 -2,-2z" fill="#55acee" stroke-width="1"/><path d="M222.412,191.675l2.114,-6.045l2.338,5.616zM245,164l-1,4l4,-1z" fill="#ea596e" stroke-width="1"/><path d="M255,168l3,1.999l-4.001,5.001z" fill="#77b255" stroke-width="1"/><g data-paper-data="{&quot;origPos&quot;:null}" stroke-width="1"><path d="M232.20458,192.87807c-0.625,0.121 -1.841,0 -1.841,-1.841c0,-3.682 4.23,-8.284 10.125,-8.284c5.895,0 10.125,4.602 10.125,8.284c0,1.841 -1.216,1.961 -1.841,1.841c-2.737,-0.532 -4.949,-0.92 -8.284,-0.92c-3.335,0 -5.548,0.388 -8.284,0.92z" fill="#65471b"/><path d="M255.55958,198.82207c0,1.105 -6.777,2 -15.137,2c-8.36,0 -15.137,-0.895 -15.137,-2c0,-0.728 2.956,-1.364 7.359,-1.713v-7.101c0,-2.592 3.889,-5.185 7.778,-5.185c3.889,0 7.778,2.592 7.778,5.185v7.101c4.403,0.349 7.359,0.985 7.359,1.713z" fill="#77af57"/><path d="M237.12858,188.05007c0,-0.68207 0.55293,-1.235 1.235,-1.235c0.68207,0 1.235,0.55293 1.235,1.235c0,0.68207 -0.55293,1.235 -1.235,1.235c-0.68207,0 -1.235,-0.55293 -1.235,-1.235z" fill="#5d8f3f"/><path d="M241.95158,190.46207c0,-0.68207 0.55293,-1.235 1.235,-1.235c0.68207,0 1.235,0.55293 1.235,1.235c0,0.68207 -0.55293,1.235 -1.235,1.235c-0.68207,0 -1.235,-0.55293 -1.235,-1.235z" fill="#5d8f3f"/><path d="M243.52371,196.55528c-0.67326,-0.10927 -1.13047,-0.74365 -1.02119,-1.41691c0.10927,-0.67326 0.74365,-1.13047 1.41691,-1.0212c0.67326,0.10927 1.13046,0.74365 1.02119,1.41691c-0.10927,0.67326 -0.74364,1.13047 -1.4169,1.02119z" fill="#5d8f3f"/><path d="M237.31281,199.11227c-0.96219,-0.15617 -1.6156,-1.06278 -1.45943,-2.02497c0.15617,-0.96219 1.06278,-1.6156 2.02497,-1.45943c0.96219,0.15617 1.6156,1.06278 1.45943,2.02497c-0.15617,0.96219 -1.06278,1.6156 -2.02497,1.45943z" fill="#5d8f3f"/></g><g data-paper-data="{&quot;origPos&quot;:null}" stroke-width="1"><path d="M256.10229,201.49637l-10.573,-1.303c-1.13,-0.102 -3.117,-0.112 -3.015,-1.902c0.093,-1.623 2.04,-1.373 3.479,-1.16l10.638,1.774z" data-paper-data="{&quot;origPos&quot;:null}" fill="#3b88c3"/><path d="M256.32229,201.52637l-4.144,-0.512c-0.499,-0.102 -0.751,-0.54 -0.726,-1.406c0.022,-0.779 0.462,-1.515 0.956,-1.426l4.222,0.724z" data-paper-data="{&quot;origPos&quot;:null}" fill="#88c9f9"/><path d="M261.11829,198.60837l-2.622,2.411l-4.687,-5.097l2.622,-2.411c1.361,-1.252 3.499,-1.162 4.751,0.199l0.135,0.147c1.251,1.362 1.162,3.499 -0.199,4.751z" data-paper-data="{&quot;origPos&quot;:null}" fill="#3b88c3"/><path d="M254.11237,200.34709c-1.29412,-1.4075 -1.43027,-3.38789 -0.30412,-4.42333c1.12615,-1.03545 3.08818,-0.73385 4.38229,0.67365c1.29412,1.4075 1.43028,3.38788 0.30412,4.42333c-1.12615,1.03545 -3.08818,0.73385 -4.3823,-0.67365z" data-paper-data="{&quot;origPos&quot;:null}" fill="#88c9f9"/><path d="M255.13192,199.40967c-0.77639,-0.84441 -0.94933,-1.94864 -0.38625,-2.46636c0.56308,-0.51773 1.64894,-0.25289 2.42534,0.59152c0.77639,0.84441 0.94933,1.94864 0.38625,2.46637c-0.56308,0.51773 -1.64894,0.25288 -2.42534,-0.59153z" data-paper-data="{&quot;origPos&quot;:null}" fill="#226699"/></g><path d="M252.09,182.06566c-0.185,0.247 -0.469,0.378 -0.757,0.378c-0.196,0 -0.394,-0.061 -0.564,-0.187c-0.036,-0.027 -3.6,-2.645 -7.935,-2.645c-0.381,0 -0.726,-0.23 -0.872,-0.583c-0.146,-0.353 -0.065,-0.759 0.205,-1.029c3.075,-3.074 8.015,-3.11 8.223,-3.11c0.522,0 0.943,0.422 0.944,0.943c0.001,0.521 -0.422,0.945 -0.942,0.946c-0.026,0 -1.472,0.014 -3.175,0.506c0.208,0.246 0.339,0.561 0.339,0.91c0,0.116 -0.018,0.228 -0.044,0.336c2.565,0.867 4.28,2.133 4.388,2.214c0.416,0.313 0.501,0.903 0.19,1.321z" data-paper-data="{&quot;origPos&quot;:null}" fill="#65471b" stroke-width="0.5"/><path d="M238.037,179.02766c-0.146,0.353 -0.49,0.583 -0.872,0.583c-4.357,0 -7.898,2.618 -7.933,2.644c-0.17,0.127 -0.369,0.189 -0.566,0.189c-0.287,0 -0.571,-0.13 -0.756,-0.378c-0.313,-0.417 -0.228,-1.009 0.189,-1.322c0.108,-0.081 1.824,-1.347 4.389,-2.214c-0.026,-0.108 -0.044,-0.22 -0.044,-0.336c0,-0.348 0.131,-0.663 0.339,-0.91c-1.702,-0.491 -3.149,-0.506 -3.174,-0.506c-0.521,-0.002 -0.943,-0.425 -0.942,-0.946c0.001,-0.521 0.423,-0.943 0.944,-0.943c0.209,0 5.149,0.035 8.223,3.11c0.271,0.271 0.351,0.676 0.203,1.029z" data-paper-data="{&quot;origPos&quot;:null}" fill="#65471b" stroke-width="0.5"/><path d="M232.086,173.196c-4.521,3.997 -8.675,6.685 -9.279,6.001c-0.044,-0.049 -0.062,-0.118 -0.067,-0.199c0,0 -1.051,-16.175 -0.363,-16.784c0.689,-0.608 16.613,2.415 16.613,2.415c0.079,0.015 0.146,0.042 0.189,0.091c0.604,0.684 -2.571,4.478 -7.093,8.476z" data-paper-data="{&quot;origPos&quot;:null}" fill="#dd2e44" stroke-width="1"/><path d="M229.572,175.319c-1.714,1.359 -3.173,2.45 -4.609,3.253c-0.957,-3.526 -2.493,-14.807 -2.652,-16.178c0.01,-0.052 0.023,-0.093 0.038,-0.123c0.809,-0.125 5.767,10.383 7.223,13.048z" data-paper-data="{&quot;origPos&quot;:null}" fill="#ea596e" stroke-width="1"/></g></g></svg>