<svg version="1.1" xmlns="http://www.w3.org/2000/svg" xmlns:xlink="http://www.w3.org/1999/xlink" width="36" height="38.82207"><g transform="translate(-222,-162)"><g data-paper-data="{&quot;isPaintingLayer&quot;:true}" fill="none" fill-rule="nonzero" stroke="none" stroke-width="1" stroke-linecap="butt" stroke-linejoin="miter" stroke-miterlimit="10" stroke-dasharray="" stroke-dashoffset="0" font-family="none" font-weight="none" font-size="none" text-anchor="none" style="mix-blend-mode: normal"><path d="M222,180c0,-9.94113 8.05887,-18 18,-18c9.94113,0 18,8.05887 18,18c0,9.94113 -8.05887,18 -18,18c-9.94113,0 -18,-8.05887 -18,-18z" fill="#ffcc4d"/><path d="M242.996,189c-0.103,0 -0.206,-0.016 -0.309,-0.049c-1.76,-0.571 -3.615,-0.571 -5.375,0c-0.524,0.169 -1.089,-0.117 -1.26,-0.642c-0.171,-0.525 0.117,-1.089 0.643,-1.26c2.162,-0.702 4.447,-0.702 6.609,0c0.525,0.171 0.813,0.735 0.643,1.26c-0.137,0.421 -0.529,0.691 -0.951,0.691z" fill="#65471b"/><path d="M253.85,178.446c-0.184,1.423 -1.079,2.62 -2.456,3.285c-1.303,0.629 -3.139,1.018 -4.873,0.909c-1.013,-0.064 -1.993,-0.298 -2.813,-0.752c-1.232,-0.681 -1.964,-1.775 -2.116,-3.163c-0.06,-0.543 -0.1,-1.045 -0.136,-1.54c1.108,0.929 2.473,1.491 3.95,1.584c0.146,0.009 0.291,0.014 0.435,0.014c3.009,0 5.591,-1.97 6.494,-4.715c1.161,1.454 1.698,2.963 1.515,4.378z" fill="#ffffff"/><path d="M250.752,172.443c0.122,0.104 0.228,0.211 0.343,0.316c-0.404,2.587 -2.619,4.524 -5.253,4.524c-0.113,0 -0.227,-0.004 -0.341,-0.011c-1.715,-0.108 -3.191,-1.013 -4.088,-2.332l-0.039,-0.068c0.03,-2.988 0.68,-4.739 1.977,-5.289c0.934,-0.397 3.686,-0.31 7.401,2.86z" fill="#65471b"/><path d="M245.406,178.769c-1.477,-0.093 -2.842,-0.655 -3.95,-1.584c-0.062,-0.84 -0.09,-1.612 -0.083,-2.313l0.039,0.068c0.897,1.319 2.373,2.224 4.088,2.332c0.114,0.007 0.228,0.011 0.341,0.011c2.634,0 4.849,-1.937 5.253,-4.524c0.47,0.429 0.887,0.866 1.241,1.309c-0.903,2.745 -3.485,4.715 -6.494,4.715c-0.144,0 -0.289,-0.004 -0.435,-0.014z" fill="#f4900c"/><path d="M242.306,172.705c0,-0.61138 0.49562,-1.107 1.107,-1.107c0.61138,0 1.107,0.49562 1.107,1.107c0,0.61138 -0.49562,1.107 -1.107,1.107c-0.61138,0 -1.107,-0.49562 -1.107,-1.107z" fill="#ffffff"/><path d="M234.594,178.768c1.48,-0.093 2.847,-0.657 3.95,-1.58c-0.036,0.494 -0.076,0.994 -0.136,1.536c-0.153,1.388 -0.885,2.482 -2.116,3.163c-0.82,0.455 -1.8,0.688 -2.813,0.752c-1.735,0.109 -3.57,-0.28 -4.873,-0.909c-1.377,-0.664 -2.271,-1.862 -2.456,-3.285c-0.182,-1.414 0.354,-2.923 1.515,-4.377c0.903,2.745 3.485,4.715 6.494,4.715c0.144,0 0.289,-0.004 0.435,-0.015z" fill="#ffffff"/><path d="M228.906,172.758c0.116,-0.105 0.221,-0.212 0.343,-0.316c3.714,-3.169 6.467,-3.256 7.401,-2.859c1.297,0.55 1.946,2.301 1.977,5.289l-0.039,0.068c-0.897,1.319 -2.373,2.224 -4.088,2.332c-0.114,0.007 -0.228,0.011 -0.341,0.011c-2.634,0 -4.849,-1.937 -5.253,-4.525z" fill="#65471b"/><path d="M238.543,177.189c-1.103,0.923 -2.47,1.487 -3.95,1.58c-0.146,0.009 -0.291,0.014 -0.435,0.014c-3.009,0 -5.591,-1.97 -6.494,-4.715c0.354,-0.443 0.771,-0.88 1.241,-1.309c0.404,2.587 2.619,4.524 5.253,4.524c0.113,0 0.227,-0.004 0.341,-0.011c1.715,-0.108 3.191,-1.013 4.088,-2.332l0.039,-0.068c0.008,0.703 -0.021,1.476 -0.083,2.317z" fill="#f4900c"/><path d="M230.606,172.774c-0.038,-0.61 0.426,-1.136 1.036,-1.174c0.61,-0.038 1.136,0.426 1.174,1.036c0.039,0.61 -0.425,1.136 -1.035,1.174c-0.61,0.038 -1.136,-0.426 -1.175,-1.036z" fill="#ffffff"/><g><path d="M232.20458,192.87807c-0.625,0.121 -1.841,0 -1.841,-1.841c0,-3.682 4.23,-8.284 10.125,-8.284c5.895,0 10.125,4.602 10.125,8.284c0,1.841 -1.216,1.961 -1.841,1.841c-2.737,-0.532 -4.949,-0.92 -8.284,-0.92c-3.335,0 -5.548,0.388 -8.284,0.92z" data-paper-data="{&quot;origPos&quot;:null}" fill="#65471b"/><path d="M255.55958,198.82207c0,1.105 -6.777,2 -15.137,2c-8.36,0 -15.137,-0.895 -15.137,-2c0,-0.728 2.956,-1.364 7.359,-1.713v-7.101c0,-2.592 3.889,-5.185 7.778,-5.185c3.889,0 7.778,2.592 7.778,5.185v7.101c4.403,0.349 7.359,0.985 7.359,1.713z" data-paper-data="{&quot;origPos&quot;:null}" fill="#77af57"/><path d="M237.12858,188.05007c0,-0.68207 0.55293,-1.235 1.235,-1.235c0.68207,0 1.235,0.55293 1.235,1.235c0,0.68207 -0.55293,1.235 -1.235,1.235c-0.68207,0 -1.235,-0.55293 -1.235,-1.235z" data-paper-data="{&quot;origPos&quot;:null}" fill="#5d8f3f"/><path d="M241.95158,190.46207c0,-0.68207 0.55293,-1.235 1.235,-1.235c0.68207,0 1.235,0.55293 1.235,1.235c0,0.68207 -0.55293,1.235 -1.235,1.235c-0.68207,0 -1.235,-0.55293 -1.235,-1.235z" data-paper-data="{&quot;origPos&quot;:null}" fill="#5d8f3f"/><path d="M243.52371,196.55528c-0.67326,-0.10927 -1.13047,-0.74365 -1.02119,-1.41691c0.10927,-0.67326 0.74365,-1.13047 1.41691,-1.0212c0.67326,0.10927 1.13046,0.74365 1.02119,1.41691c-0.10927,0.67326 -0.74364,1.13047 -1.4169,1.02119z" data-paper-data="{&quot;origPos&quot;:null}" fill="#5d8f3f"/><path d="M237.31281,199.11227c-0.96219,-0.15617 -1.6156,-1.06278 -1.45943,-2.02497c0.15617,-0.96219 1.06278,-1.6156 2.02497,-1.45943c0.96219,0.15617 1.6156,1.06278 1.45943,2.02497c-0.15617,0.96219 -1.06278,1.6156 -2.02497,1.45943z" data-paper-data="{&quot;origPos&quot;:null}" fill="#5d8f3f"/></g></g></g></svg>