<svg version="1.1" xmlns="http://www.w3.org/2000/svg" xmlns:xlink="http://www.w3.org/1999/xlink" width="37.79284" height="37.00835"><g transform="translate(-220.20716,-162)"><g data-paper-data="{&quot;isPaintingLayer&quot;:true}" fill="none" fill-rule="nonzero" stroke="none" stroke-width="none" stroke-linecap="butt" stroke-linejoin="miter" stroke-miterlimit="10" stroke-dasharray="" stroke-dashoffset="0" font-family="none" font-weight="none" font-size="none" text-anchor="none" style="mix-blend-mode: normal"><path d="M227.4469,195.01313c0,2.20736 -1.62066,3.99522 -3.61987,3.99522c-1.99921,0 -3.61987,-1.78786 -3.61987,-3.99522c0,-1.45426 0.7069,-2.72474 1.75984,-3.4219v-14.18502c0,-5.1778 2.16652,-9.02598 3.09653,-9.02598c0.93002,0 0.62353,3.84618 0.62353,9.02598v14.18502c1.05294,0.69717 1.75984,1.96764 1.75984,3.4219z" data-paper-data="{&quot;origPos&quot;:null}" fill="#77af57" stroke-width="1"/><path d="M244.476,196.452l-2.639,1.427c-0.487,0.263 -1.093,0.082 -1.356,-0.404c-0.263,-0.487 -0.082,-1.093 0.404,-1.356l0.222,-0.12h-1.107c-0.553,0 -1,-0.447 -1,-1c0,-0.553 0.447,-1 1,-1h2c0,0 0,-3 1,-4l1,-1c1,0 0,1.447 0,2c0,0 -1.135,2.001 0.462,3.707c0.168,0.089 0.32,0.211 0.418,0.391c0.263,0.486 0.082,1.092 -0.404,1.355zM237.477,196.452l-2.639,1.427c-0.487,0.263 -1.093,0.082 -1.356,-0.404c-0.263,-0.487 -0.082,-1.093 0.404,-1.356l0.222,-0.12h-1.108c-0.553,0 -1,-0.447 -1,-1c0,-0.553 0.447,-1 1,-1h2c0,0 0,-3 1,-4l1,-1c1,0 0,1.447 0,2c0,0 -1.134,2.001 0.463,3.707c0.167,0.089 0.32,0.211 0.417,0.391c0.263,0.486 0.082,1.092 -0.403,1.355z" fill="#ffac33" stroke-width="1"/><path d="M228.134,169c2,5 -2,9 -3,7c-1,-2 4,-2 2,-7c0,0 -1,-5 1,0z" fill="#be1931" stroke-width="1"/><path d="M229,168c0,1.104 1.933,2 0,2c-1.933,0 -7,-1 -7,-2c0,-1 1.067,-3 3,-3c1.933,0 4,1.896 4,3z" data-paper-data="{&quot;origPos&quot;:null}" fill="#ffac33" stroke-width="1"/><path d="M226.29423,170.94448c-1.41064,1.32158 -2.82836,1.36895 -3.14789,1.0279c-0.31952,-0.34106 3.0587,-4.14639 4.46934,-5.46797c1.41064,-1.32158 0.28629,0.30559 0.63905,0.68212c0.35276,0.37653 -0.54986,2.43637 -1.96051,3.75795z" data-paper-data="{&quot;origPos&quot;:null,&quot;index&quot;:null,&quot;origRot&quot;:0}" fill="#ffac33" stroke-width="1"/><path d="M228,183c0,-6 3.209,-13 1,-13c-4,0 -4,-1.791 -4,-4c0,-2.209 1.791,-4 4,-4c7,0 6,9 4,13c-1.674,3.348 -2.022,8 -5,8z" data-paper-data="{&quot;origPos&quot;:null}" fill="#c1694f" stroke-width="1"/><path d="M258,179c0,7.959 -5,11.3 -10,11.249c-2.034,1.796 -4.927,2.751 -8,2.751c-6.627,0 -12,-4.836 -12,-10.8c0,-5.965 5.373,-10.8 12,-10.8c3,-2.7 7,-6.5 10,-7.4c6,3.6 8,7.8 8,15z" fill="#31373d" stroke-width="1"/><path d="M245.001,173.781c-3.251,-1.594 -5.688,-1.781 -9.602,-1.552c1.411,-0.532 2.959,-0.827 4.585,-0.829c1.625,0 4.094,0.866 5.017,2.381zM257.406,173.29c0.266,1.089 0.434,2.267 0.52,3.545c-3.924,0 -6.77,-2.273 -0.52,-3.545zM253.318,166.426c1.082,0.981 1.947,2.032 2.623,3.186c-5.629,1.544 -9.785,0.388 -2.623,-3.186zM248,190.249c0.625,-0.957 2.125,-2.937 3.594,-0.749c-0.687,-3.062 0.844,-4.344 3.344,-2c-2.032,-2.594 -1.187,-4.5 2.215,-3.415c-1.633,4.32 -5.392,6.202 -9.153,6.164zM250,164c1.286,0.771 2.378,1.574 3.315,2.424c-5.315,1.982 -10.315,1.264 -3.315,-2.424zM257.932,180.188c-3.807,-0.469 -4.616,-2.969 -0.006,-3.351c0.047,0.692 0.074,1.408 0.074,2.163c0,1.973 -0.309,3.66 -0.847,5.084c-3.402,-1.646 -2.778,-3.834 0.779,-3.896zM257.405,173.288c-5.155,0.618 -7.889,-1.288 -1.462,-3.673c0.654,1.116 1.134,2.329 1.462,3.673z" fill="#66757f" stroke-width="1"/><path d="M223.36655,184.66979c0,-0.49831 0.40396,-0.90227 0.90227,-0.90227c0.49831,0 0.90227,0.40396 0.90227,0.90227c0,0.49831 -0.40396,0.90227 -0.90227,0.90227c-0.49831,0 -0.90227,-0.40396 -0.90227,-0.90227z" data-paper-data="{&quot;origPos&quot;:null}" fill="#5d8f3f" stroke-width="1"/><path d="M222.52299,174.03095c0,-0.68207 0.55293,-1.235 1.235,-1.235c0.68207,0 1.235,0.55293 1.235,1.235c0,0.68207 -0.55293,1.235 -1.235,1.235c-0.68207,0 -1.235,-0.55293 -1.235,-1.235z" data-paper-data="{&quot;origPos&quot;:null}" fill="#5d8f3f" stroke-width="1"/><path d="M224.66101,196.19253c-0.67326,-0.10927 -1.13047,-0.74365 -1.02119,-1.41691c0.10927,-0.67326 0.74365,-1.13047 1.41691,-1.0212c0.67326,0.10927 1.13046,0.74365 1.02119,1.41691c-0.10927,0.67326 -0.74364,1.13047 -1.4169,1.02119z" data-paper-data="{&quot;origPos&quot;:null}" fill="#5d8f3f" stroke-width="1"/><path d="M223.55726,180.02382c-0.74456,-0.12085 -1.25017,-0.82239 -1.12933,-1.56695c0.12085,-0.74456 0.82239,-1.25017 1.56695,-1.12933c0.74456,0.12085 1.25017,0.82239 1.12933,1.56695c-0.12085,0.74456 -0.82239,1.25017 -1.56695,1.12933z" data-paper-data="{&quot;origPos&quot;:null}" fill="#5d8f3f" stroke-width="1"/><path d="M220.94754,194.52068c0,-0.4983 0.40396,-0.90226 0.90226,-0.90226c0.4983,0 0.90227,0.40396 0.90227,0.90226c0,0.4983 -0.40396,0.90227 -0.90227,0.90227c-0.4983,0 -0.90226,-0.40396 -0.90226,-0.90227z" data-paper-data="{&quot;origPos&quot;:null}" fill="#5d8f3f" stroke-width="1"/><path d="M232.09114,167.77468c-0.10347,0.13815 -0.26231,0.21142 -0.42339,0.21142c-0.10962,0 -0.22037,-0.03412 -0.31545,-0.10459c-0.02014,-0.0151 -2.01349,-1.47935 -4.43805,-1.47935c-0.2131,0 -0.40605,-0.12863 -0.48771,-0.32607c-0.08166,-0.19744 -0.03636,-0.42451 0.11465,-0.57552c1.71985,-1.71929 4.4828,-1.73942 4.59913,-1.73942c0.29196,0 0.52742,0.23602 0.52798,0.52742c0.00056,0.29139 -0.23603,0.52854 -0.52686,0.5291c-0.01454,0 -0.82328,0.00784 -1.77578,0.28301c0.11633,0.13759 0.1896,0.31376 0.1896,0.50896c0,0.06488 -0.01007,0.12752 -0.02461,0.18793c1.43461,0.48492 2.3938,1.19299 2.45421,1.23829c0.23267,0.17506 0.28021,0.50504 0.10627,0.73883z" data-paper-data="{&quot;origPos&quot;:null}" fill="#292f33" stroke-width="0.5"/></g></g></svg>