<svg version="1.1" xmlns="http://www.w3.org/2000/svg" xmlns:xlink="http://www.w3.org/1999/xlink" width="36" height="37.68848"><g transform="translate(-222,-162)"><g data-paper-data="{&quot;isPaintingLayer&quot;:true}" fill="none" fill-rule="nonzero" stroke="none" stroke-width="none" stroke-linecap="butt" stroke-linejoin="miter" stroke-miterlimit="10" stroke-dasharray="" stroke-dashoffset="0" font-family="none" font-weight="none" font-size="none" text-anchor="none" style="mix-blend-mode: normal"><path d="M258,180c0,9.941 -8.059,18 -18,18c-9.94,0 -18,-8.059 -18,-18c0,-9.94 8.06,-18 18,-18c9.941,0 18,8.06 18,18" fill="#ffcb4c" stroke-width="1"/><path d="M231.529,176.71c0,-2.04676 1.1851,-3.706 2.647,-3.706c1.4619,0 2.647,1.65924 2.647,3.706c0,2.04676 -1.1851,3.706 -2.647,3.706c-1.4619,0 -2.647,-1.65923 -2.647,-3.706z" fill="#65471b" stroke-width="1"/><path d="M240,176.294c0,-3.80083 3.08118,-6.882 6.882,-6.882c3.80083,0 6.882,3.08118 6.882,6.882c0,3.80083 -3.08118,6.882 -6.882,6.882c-3.80083,0 -6.882,-3.08117 -6.882,-6.882z" data-paper-data="{&quot;origPos&quot;:null}" fill="#f4f7f9" stroke-width="1"/><path d="M236.825,171.946c-0.322,0 -0.64,-0.146 -0.848,-0.423c-0.991,-1.321 -2.028,-2.029 -3.083,-2.104c-1.39,-0.095 -2.523,0.947 -2.734,1.158c-0.414,0.414 -1.084,0.414 -1.497,0c-0.414,-0.414 -0.414,-1.084 0,-1.497c0.457,-0.457 2.129,-1.936 4.381,-1.773c1.695,0.12 3.251,1.111 4.627,2.945c0.351,0.468 0.256,1.132 -0.211,1.482c-0.192,0.143 -0.415,0.212 -0.635,0.212z" fill="#65471b" stroke-width="1"/><g data-paper-data="{&quot;origPos&quot;:null}"><path d="M232.39139,191.74448c-0.625,0.121 -1.841,0 -1.841,-1.841c0,-3.682 4.23,-8.284 10.125,-8.284c5.895,0 10.125,4.602 10.125,8.284c0,1.841 -1.216,1.961 -1.841,1.841c-2.737,-0.532 -4.949,-0.92 -8.284,-0.92c-3.335,0 -5.548,0.388 -8.284,0.92z" data-paper-data="{&quot;origPos&quot;:null}" fill="#65471b" stroke-width="0.5"/><path d="M255.74639,197.68848c0,1.105 -6.777,2 -15.137,2c-8.36,0 -15.137,-0.895 -15.137,-2c0,-0.728 2.956,-1.364 7.359,-1.713v-7.101c0,-2.592 3.889,-5.185 7.778,-5.185c3.889,0 7.778,2.592 7.778,5.185v7.101c4.403,0.349 7.359,0.985 7.359,1.713z" data-paper-data="{&quot;origPos&quot;:null}" fill="#77af57" stroke-width="1"/><path d="M237.31539,186.91648c0,-0.68207 0.55293,-1.235 1.235,-1.235c0.68207,0 1.235,0.55293 1.235,1.235c0,0.68207 -0.55293,1.235 -1.235,1.235c-0.68207,0 -1.235,-0.55293 -1.235,-1.235z" data-paper-data="{&quot;origPos&quot;:null}" fill="#5d8f3f" stroke-width="1"/><path d="M242.13839,189.32848c0,-0.68207 0.55293,-1.235 1.235,-1.235c0.68207,0 1.235,0.55293 1.235,1.235c0,0.68207 -0.55293,1.235 -1.235,1.235c-0.68207,0 -1.235,-0.55293 -1.235,-1.235z" data-paper-data="{&quot;origPos&quot;:null}" fill="#5d8f3f" stroke-width="1"/><path d="M243.71052,195.42169c-0.67326,-0.10927 -1.13046,-0.74364 -1.02119,-1.41691c0.10927,-0.67326 0.74364,-1.13046 1.41691,-1.02119c0.67326,0.10927 1.13046,0.74364 1.02119,1.41691c-0.10927,0.67326 -0.74364,1.13046 -1.41691,1.02119z" data-paper-data="{&quot;origPos&quot;:null}" fill="#5d8f3f" stroke-width="1"/><path d="M237.49962,197.97868c-0.96219,-0.15617 -1.6156,-1.06278 -1.45943,-2.02497c0.15617,-0.96219 1.06278,-1.6156 2.02497,-1.45943c0.96219,0.15617 1.6156,1.06278 1.45943,2.02497c-0.15617,0.96219 -1.06278,1.6156 -2.02497,1.45943z" data-paper-data="{&quot;origPos&quot;:null}" fill="#5d8f3f" stroke-width="1"/></g><path d="M254.824,198c-0.585,0 -1.059,-0.474 -1.059,-1.059v-20.117c0,-0.585 0.474,-1.059 1.059,-1.059c0.585,0 1.059,0.474 1.059,1.059v20.118c-0.001,0.584 -0.474,1.058 -1.059,1.058z" data-paper-data="{&quot;origPos&quot;:null}" fill="#292f33" stroke-width="1"/><path d="M256.941,176.823c0,1.17 -0.948,2.118 -2.118,2.118c-0.153,0 -0.301,-0.018 -0.445,-0.049c-1.08,3.105 -4.028,5.343 -7.496,5.343c-4.379,0 -7.941,-3.562 -7.941,-7.941c0,-4.379 3.562,-7.941 7.941,-7.941c3.841,0 7.052,2.741 7.784,6.369c0.053,-0.004 0.104,-0.016 0.158,-0.016c1.169,0 2.117,0.948 2.117,2.117zM252.706,176.294c0,-3.212 -2.613,-5.824 -5.824,-5.824c-3.21,0 -5.823,2.612 -5.823,5.824c0,3.212 2.612,5.824 5.823,5.824c3.211,0 5.824,-2.612 5.824,-5.824z" data-paper-data="{&quot;origPos&quot;:null}" fill="#67757f" stroke-width="1"/><path d="M241.998,179.462c-0.592,-0.912 -0.94,-1.998 -0.94,-3.167c0,-3.217 2.608,-5.824 5.824,-5.824c1.169,0 2.255,0.347 3.167,0.94zM252.143,173.809c0.357,0.754 0.563,1.595 0.563,2.485c0,3.217 -2.608,5.824 -5.824,5.824c-0.89,0 -1.73,-0.206 -2.485,-0.563z" data-paper-data="{&quot;origPos&quot;:null}" fill="#bdddf4" stroke-width="1"/></g></g></svg>