<svg version="1.1" xmlns="http://www.w3.org/2000/svg" xmlns:xlink="http://www.w3.org/1999/xlink" width="39.7524" height="34.86492" viewBox="0,0,39.7524,34.86492"><g transform="translate(-220.13792,-166)"><g data-paper-data="{&quot;isPaintingLayer&quot;:true}" fill="none" fill-rule="nonzero" stroke="none" stroke-width="none" stroke-linecap="butt" stroke-linejoin="miter" stroke-miterlimit="10" stroke-dasharray="" stroke-dashoffset="0" font-family="none" font-weight="none" font-size="none" text-anchor="none" style="mix-blend-mode: normal"><path d="M257.976,173.629c0.015,0.192 0.024,0.396 0.024,0.621c0,2.623 -2.238,3.75 -5,3.75c-2.762,0 -5,-1.127 -5,-3.75c0,-0.218 0.021,-0.412 0.051,-0.597c-2.425,-0.351 -5.153,-0.653 -8.051,-0.653c-2.898,0 -5.626,0.302 -8.051,0.653c0.03,0.185 0.051,0.379 0.051,0.597c0,2.623 -2.239,3.75 -5,3.75c-2.761,0 -5,-1.127 -5,-3.75c0,-0.229 0.01,-0.435 0.022,-0.631c-0.003,-0.043 -0.022,-0.074 -0.022,-0.119c0,-3.038 3,-7.5 18,-7.5c15,0 18,4.462 18,7.5c0,0.049 -0.02,0.083 -0.024,0.129z" fill="#be1931" stroke-width="1"/><path d="M258,189c0,2 -1.791,5 -4,5h-28c-2.209,0 -4,-3 -4,-5c0,-2 0.488,-2.761 1.066,-4c0.481,-1.03 2.307,-4.185 3.964,-7c1.56,-2.649 3.97,-5 5.97,-5v-2c0,-1.104 0.896,-2 2,-2c1.104,0 2,0.896 2,2v2h6v-2c0,-1.104 0.896,-2 2,-2c1.104,0 2,0.896 2,2v2c2,0 4.408,2.346 5.966,4.993c1.658,2.817 3.486,5.976 3.968,7.007c0.618,1.324 1.066,2 1.066,4z" fill="#dd2e44" stroke-width="1"/><path d="M242.046,176.818c0,0.452 -0.916,0.818 -2.046,0.818c-1.13,0 -2.045,-0.366 -2.045,-0.818c0,-0.452 0.915,-0.818 2.045,-0.818c1.13,0 2.046,0.366 2.046,0.818zM237.136,176.818c0,0.452 -0.915,0.818 -2.045,0.818c-1.13,0 -2.045,-0.366 -2.045,-0.818c0,-0.452 0.916,-0.818 2.045,-0.818c1.129,0 2.045,0.366 2.045,0.818zM246.954,176.818c0,0.452 -0.915,0.818 -2.045,0.818c-1.13,0 -2.046,-0.366 -2.046,-0.818c0,-0.452 0.916,-0.818 2.046,-0.818c1.13,0 2.045,0.366 2.045,0.818zM242.454,179.682c0,0.679 -1.099,1.228 -2.454,1.228c-1.355,0 -2.455,-0.549 -2.455,-1.228c0,-0.677 1.099,-1.227 2.455,-1.227c1.356,0 2.454,0.549 2.454,1.227zM248.182,179.682c0,0.679 -1.1,1.228 -2.454,1.228c-1.355,0 -2.455,-0.549 -2.455,-1.228c0,-0.677 1.1,-1.227 2.455,-1.227c1.354,0 2.454,0.549 2.454,1.227zM236.727,179.682c0,0.679 -1.099,1.228 -2.454,1.228c-1.355,0 -2.455,-0.549 -2.455,-1.228c0,-0.677 1.099,-1.227 2.455,-1.227c1.355,0 2.454,0.549 2.454,1.227zM243.272,183.363c0,0.906 -1.465,1.637 -3.272,1.637c-1.807,0 -3.273,-0.731 -3.273,-1.637c0,-0.903 1.466,-1.636 3.273,-1.636c1.807,0.001 3.272,0.733 3.272,1.636zM250.637,183.363c0,0.905 -1.467,1.637 -3.273,1.637c-1.807,0 -3.273,-0.731 -3.273,-1.637c0,-0.903 1.466,-1.636 3.273,-1.636c1.806,0.001 3.273,0.733 3.273,1.636zM235.909,183.363c0,0.905 -1.466,1.637 -3.273,1.637c-1.807,0 -3.272,-0.731 -3.272,-1.637c0,-0.903 1.465,-1.636 3.272,-1.636c1.807,0.001 3.273,0.733 3.273,1.636z" fill="#ffffff" stroke-width="1"/><path d="M231.716,190.056c-0.625,0.121 -1.841,0 -1.841,-1.841c0,-3.682 4.23,-8.284 10.125,-8.284c5.895,0 10.125,4.602 10.125,8.284c0,1.841 -1.216,1.961 -1.841,1.841c-2.737,-0.532 -4.949,-0.92 -8.284,-0.92c-3.335,0 -5.548,0.388 -8.284,0.92z" data-paper-data="{&quot;origPos&quot;:null}" fill="#921326" stroke-width="0.5"/><path d="M255.071,196c0,1.105 -6.777,2 -15.137,2c-8.36,0 -15.137,-0.895 -15.137,-2c0,-0.728 2.956,-1.364 7.359,-1.713v-7.101c0,-2.592 3.889,-5.185 7.778,-5.185c3.889,0 7.778,2.592 7.778,5.185v7.101c4.403,0.349 7.359,0.985 7.359,1.713z" data-paper-data="{&quot;origPos&quot;:null}" fill="#596570" stroke-width="1"/><path d="M236.64,185.228c0,-0.68207 0.55293,-1.235 1.235,-1.235c0.68207,0 1.235,0.55293 1.235,1.235c0,0.68207 -0.55293,1.235 -1.235,1.235c-0.68207,0 -1.235,-0.55293 -1.235,-1.235z" data-paper-data="{&quot;origPos&quot;:null}" fill="#31373d" stroke-width="1"/><path d="M241.463,187.64c0,-0.68207 0.55293,-1.235 1.235,-1.235c0.68207,0 1.235,0.55293 1.235,1.235c0,0.68207 -0.55293,1.235 -1.235,1.235c-0.68207,0 -1.235,-0.55293 -1.235,-1.235z" data-paper-data="{&quot;origPos&quot;:null}" fill="#31373d" stroke-width="1"/><path d="M239.00176,192.86361c-0.93241,0.28427 -1.91873,-0.24115 -2.203,-1.17356c-0.28427,-0.93241 0.24115,-1.91873 1.17356,-2.203c0.93241,-0.28427 1.91873,0.24115 2.203,1.17356c0.28427,0.93241 -0.24115,1.91873 -1.17356,2.203z" data-paper-data="{&quot;origPos&quot;:null,&quot;origRot&quot;:0}" fill="#31373d" stroke-width="1"/><path d="M230.15941,194.5189c-0.10918,0.02163 -0.22056,-0.02682 -0.27911,-0.12168l-1.69127,-2.74014l-2.09749,3.4773c-0.06599,0.10936 -0.20005,0.15669 -0.32002,0.1126c-0.05816,-0.02113 -0.10495,-0.06089 -0.13549,-0.11035c-0.03263,-0.05287 -0.04666,-0.11723 -0.03632,-0.18221l0.4108,-2.55594l0.81939,-5.09768c0.01769,-0.10995 0.1018,-0.19758 0.21097,-0.21922c0.10918,-0.02163 0.22064,0.02645 0.2792,0.1213l1.69128,2.74015l2.09748,-3.4773c0.06599,-0.10936 0.20006,-0.15669 0.32003,-0.1126c0.05816,0.02113 0.10495,0.06089 0.13549,0.11035c0.03263,0.05287 0.04666,0.11723 0.03632,0.18221l-0.4108,2.55594l-0.81939,5.09768c-0.01755,0.11017 -0.1018,0.19758 -0.21106,0.21959z" data-paper-data="{&quot;origPos&quot;:null,&quot;origRot&quot;:4.72491,&quot;index&quot;:null}" fill="#ffac33" stroke-width="1"/><path d="M249.82147,194.63168c-0.10926,-0.02201 -0.19351,-0.10942 -0.21106,-0.21959l-0.81939,-5.09768l-0.4108,-2.55594c-0.01034,-0.06498 0.00369,-0.12934 0.03632,-0.18221c0.03054,-0.04946 0.07733,-0.08922 0.13549,-0.11035c0.11997,-0.04409 0.25404,0.00324 0.32003,0.1126l2.09748,3.4773l1.69128,-2.74015c0.05856,-0.09485 0.17002,-0.14293 0.2792,-0.1213c0.10917,0.02164 0.19328,0.10927 0.21097,0.21922l0.81939,5.09768l0.4108,2.55594c0.01034,0.06498 -0.00369,0.12934 -0.03632,0.18221c-0.03054,0.04946 -0.07733,0.08922 -0.13549,0.11035c-0.11997,0.04409 -0.25403,-0.00324 -0.32002,-0.1126l-2.09749,-3.4773l-1.69127,2.74014c-0.05855,0.09486 -0.16993,0.14331 -0.27911,0.12168z" data-paper-data="{&quot;origPos&quot;:null,&quot;origRot&quot;:4.72491,&quot;index&quot;:null}" fill="#ffac33" stroke-width="1"/><g data-paper-data="{&quot;origPos&quot;:null,&quot;origRot&quot;:0}" stroke-width="1"><path d="M226.68213,189.03762c0.22743,-0.07031 0.47082,0.05813 0.54114,0.28556c0.07031,0.22743 -0.05813,0.47082 -0.28556,0.54114l-4.96114,1.53344c-0.22743,0.07031 -0.47082,-0.05813 -0.54114,-0.28556c-0.07031,-0.22743 0.05813,-0.47082 0.28556,-0.54114zM225.40427,184.90318c0.22743,-0.07031 0.47082,0.05813 0.54114,0.28556c0.07031,0.22743 -0.05813,0.47082 -0.28556,0.54114l-4.96154,1.5342c-0.22743,0.07031 -0.47082,-0.05813 -0.54114,-0.28556c-0.07031,-0.22743 0.05813,-0.47082 0.28556,-0.54114z" fill="#9aaab4"/><path d="M237.89887,186.08042c-1.37618,-0.72622 -2.78496,-0.53953 -3.67687,-0.28461c0.0377,0.77043 -0.44069,1.49897 -1.21126,1.73719l-0.6437,0.199c-0.13409,0.58046 -0.55787,1.0785 -1.16825,1.2672l-2.89402,0.8947c0.14116,0.45661 -0.11451,0.94111 -0.57112,1.08227c-0.45661,0.14116 -0.94111,-0.11451 -1.08227,-0.57112l-0.51115,-1.65339l-0.76711,-2.48029l-0.00016,-0.00155l-0.51079,-1.65222c-0.14098,-0.45603 0.11509,-0.94129 0.5717,-1.08245c0.45641,-0.14078 0.94091,0.11489 1.08227,0.57112l2.89381,-0.89432c0.61056,-0.18812 1.2415,-0.01711 1.68017,0.3866l0.64253,-0.19864c0.76861,-0.2373 1.57204,0.09175 1.97698,0.74481c1.19611,-0.34833 3.09656,-0.59798 4.99704,0.40491z" fill="#31373d"/></g><g data-paper-data="{&quot;origPos&quot;:null,&quot;origRot&quot;:0,&quot;index&quot;:null}" stroke-width="1"><path d="M257.82063,195.21212c0.216,0.10007 0.31077,0.35844 0.2107,0.57444c-0.10007,0.216 -0.35844,0.31076 -0.57444,0.2107l-4.71177,-2.18254c-0.216,-0.10007 -0.31076,-0.35844 -0.21069,-0.57444c0.10007,-0.216 0.35844,-0.31077 0.57444,-0.2107zM259.63973,191.2863c0.216,0.10007 0.31077,0.35844 0.2107,0.57444c-0.10007,0.216 -0.35844,0.31076 -0.57444,0.21069l-4.71207,-2.18335c-0.216,-0.10007 -0.31077,-0.35844 -0.2107,-0.57444c0.10007,-0.216 0.35844,-0.31077 0.57444,-0.2107z" fill="#9aaab4"/><path d="M241.79176,186.97523c2.01744,-0.73998 3.86749,-0.23864 5.00634,0.26637c0.48856,-0.5931 1.32876,-0.81185 2.05877,-0.47398l0.61023,0.28271c0.48867,-0.34148 1.13681,-0.42665 1.71675,-0.15864l2.74838,1.27294c0.20105,-0.43325 0.71536,-0.6219 1.14887,-0.4214c0.43366,0.20091 0.6226,0.71604 0.42195,1.14913l-0.72697,1.56916l-0.00037,0.00151l-1.09162,2.35555l-0.72748,1.57027c-0.20091,0.43366 -0.71522,0.6223 -1.14887,0.4214c-0.43366,-0.20091 -0.6223,-0.71522 -0.4214,-1.14887l-2.74853,-1.27335c-0.57969,-0.26856 -0.93313,-0.81875 -0.98846,-1.41192l-0.61134,-0.28322c-0.73183,-0.33904 -1.10859,-1.12496 -0.9683,-1.88345c-0.84985,-0.3718 -2.22106,-0.74504 -3.68194,-0.20921z" fill="#31373d"/></g><g data-paper-data="{&quot;origPos&quot;:null,&quot;origRot&quot;:0,&quot;index&quot;:null}" stroke-width="1"><path d="M222.42926,196.81477c-0.22114,0.08812 -0.47395,-0.02062 -0.56207,-0.24176c-0.08812,-0.22114 0.02062,-0.47395 0.24176,-0.56207l4.82372,-1.9225c0.22114,-0.08812 0.47395,0.02062 0.56207,0.24176c0.08812,0.22114 -0.02062,0.47395 -0.24176,0.56207zM224.03065,200.83432c-0.22114,0.08812 -0.47395,-0.02062 -0.56207,-0.24175c-0.08812,-0.22114 0.02063,-0.47395 0.24176,-0.56207l4.82451,-1.92216c0.22114,-0.08812 0.47395,0.02062 0.56207,0.24176c0.08812,0.22114 -0.02062,0.47395 -0.24176,0.56207z" fill="#9aaab4"/><path d="M239.4289,190.83285c-0.84906,1.97401 -2.48475,2.97329 -3.63431,3.45343c0.09503,0.76251 -0.32353,1.52316 -1.07068,1.82122l-0.62476,0.24896c-0.08782,0.58966 -0.47141,1.11899 -1.06467,1.35605l-2.81358,1.12149c0.17652,0.44381 -0.03993,0.94705 -0.48352,1.12415c-0.44398,0.17692 -0.94802,-0.03988 -1.12472,-0.48329l-0.64017,-1.60653l-0.00085,-0.00131l-0.96077,-2.41188l-0.64063,-1.60766c-0.17692,-0.44398 0.03953,-0.94723 0.48352,-1.12415c0.44398,-0.17692 0.94723,0.03954 1.12415,0.48352l2.81397,-1.12132c0.59349,-0.2365 1.23606,-0.11509 1.70496,0.2524l0.6259,-0.24941c0.74926,-0.29857 1.57908,-0.03208 2.0336,0.59113c0.85417,-0.36178 2.0677,-1.10127 2.68253,-2.5307z" fill="#31373d"/></g></g></g></svg>